<svg width="1133" height="702" viewBox="0 0 1133 702" fill="none" xmlns="http://www.w3.org/2000/svg">
<g clip-path="url(#clip0_16675_27871)">
<path d="M1331.4 -112.9H88.4V382.6H1331.4V-112.9Z" fill="#B8DFF7"/>
<path d="M793 199.7L1243.8 -92.2L1269.1 194.5L793 199.7Z" fill="#99B7B7"/>
<path d="M736.7 195.9L604.3 116.8L558 128L458.7 73.8L399.4 82L321.9 10.6L287.3 10.3L247.7 -30.8L242.2 267.2L243.3 383.7L736.7 195.9Z" fill="#99B7B7"/>
<path d="M1277.9 195.3H242.2V371.7H1277.9V195.3Z" fill="#A5CAA5"/>
<path d="M730.1 57.9H439.7C439.7 57.9 459.2 -14.3 530.9 30.1C530.9 30.1 551.4 16.8 560.7 34.5C560.7 34.6 676.2 -13.2 730.1 57.9Z" fill="white"/>
<path d="M685.4 200.3C685.4 210.6 679.8 219 673 219C666.1 219 660.6 210.7 660.6 200.3C660.6 189.9 672.4 174.4 679.3 174.5C690.3 174.8 685.4 190 685.4 200.3Z"
      fill="#4E5D62"/>
<path
    d="M667.6 212.1L671.5 215.5L671.8 209.1L665.6 204.8L665.8 204.7L672.2 208.6L674.5 206L675 206.2L672.7 209.2L673 216.1L679.8 212.4L680.1 212.6L673 216.8L673.2 221.8H671.1L671.3 216.9L667.1 212.3L667.6 212.1Z"
    fill="#585741"/>
<path
    d="M596.2 233.8C596.2 268.8 577.2 297.3 553.9 297.3C530.6 297.3 511.6 268.9 511.6 233.8C511.6 198.7 551.7 145.6 575.1 146.1C612.7 147 596.2 198.7 596.2 233.8Z"
    fill="#4E5D62"/>
<path
    d="M535.7 273.7L548.9 285.4L550 263.5L528.8 248.7L529.5 248.2L551.1 261.5L558.9 252.5L560.8 253.2L553 263.3L554.1 286.9L577.4 274.2L578.5 275L554.3 289.3L555.1 306.5H547.8L548.6 289.7L534.5 274.1L535.7 273.7Z"
    fill="#585741"/>
<path
    d="M655.7 225.8C659.6 223.6 662.2 219.2 662.2 214.3C662.2 208.6 658.8 203.8 654 202C655 200.1 655.6 197.9 655.6 195.6C655.6 188.4 650 182.5 643.1 182.5C636.4 182.5 631 188.1 630.7 195C626.2 197 623.1 201.7 623.1 207.1C623.1 208.9 623.5 210.7 624.1 212.3C620.6 214.6 618.3 218.7 618.3 223.4C618.3 224.7 618.5 226 618.8 227.2C616.1 229.6 614.3 233.2 614.3 237.3C614.3 244.5 619.9 250.4 626.8 250.4C631.6 250.4 635.7 247.5 637.8 243.4C640 247.2 643.9 249.8 648.5 249.8C655.4 249.8 661 243.9 661 236.7C661 232.1 658.9 228.2 655.7 225.8Z"
    fill="#81A28A"/>
<path
    d="M642.3 234.3L638.2 245.4L638.4 257.3H636.3L636.5 245.1L629.4 235L629.7 234.4L636.5 243.4L636.8 226.6L634.5 219.4L635 218.9L637.3 225.3L643.6 215.9L643.8 216.2L637.6 226.7L637.9 242.2L641.8 233.9L642.3 234.3Z"
    fill="#585741"/>
<path
    d="M1067.1 201.6C1068.7 200.7 1069.8 198.8 1069.8 196.7C1069.8 194.3 1068.3 192.3 1066.3 191.5C1066.7 190.7 1067 189.8 1067 188.8C1067 185.7 1064.6 183.3 1061.7 183.3C1058.9 183.3 1056.6 185.6 1056.5 188.6C1054.6 189.4 1053.3 191.4 1053.3 193.7C1053.3 194.5 1053.5 195.2 1053.7 195.9C1052.2 196.9 1051.3 198.6 1051.3 200.6C1051.3 201.2 1051.4 201.7 1051.5 202.2C1050.4 203.2 1049.6 204.7 1049.6 206.4C1049.6 209.5 1052 211.9 1054.9 211.9C1056.9 211.9 1058.7 210.7 1059.6 208.9C1060.5 210.5 1062.2 211.6 1064.1 211.6C1067 211.6 1069.4 209.1 1069.4 206.1C1069.4 204.2 1068.5 202.6 1067.1 201.6Z"
    fill="#81A28A"/>
<path
    d="M1061.5 205.2L1059.8 209.9L1059.9 214.9H1059L1059.1 209.8L1056.1 205.5L1056.2 205.3L1059.1 209.1L1059.2 202L1058.2 199L1058.4 198.8L1059.4 201.5L1062.1 197.5L1062.2 197.6L1059.6 202L1059.7 208.5L1061.3 205L1061.5 205.2Z"
    fill="#585741"/>
<path
    d="M1026.4 215.2C1026.4 224.8 1021.2 232.7 1014.8 232.7C1008.4 232.7 1003.2 224.9 1003.2 215.2C1003.2 205.6 1014.2 190.9 1020.7 191.1C1031 191.3 1026.4 205.5 1026.4 215.2Z"
    fill="#4E5D62"/>
<path
    d="M1009.8 226.2L1013.4 229.4L1013.7 223.4L1007.9 219.3L1008.1 219.2L1014.1 222.9L1016.3 220.4L1016.8 220.6L1014.7 223.4L1015 229.9L1021.4 226.4L1021.7 226.6L1015 230.5L1015.2 235.2H1013.2L1013.4 230.6L1009.5 226.3L1009.8 226.2Z"
    fill="#585741"/>
<path d="M877.6 200.9C877.6 206.9 874.4 211.7 870.4 211.7C866.4 211.7 863.2 206.9 863.2 200.9C863.2 194.9 870 185.9 874 186C880.4 186.1 877.6 195 877.6 200.9Z"
      fill="#4E5D62"/>
<path
    d="M867.3 207.7L869.5 209.7L869.7 206L866.1 203.5L866.2 203.4L869.9 205.7L871.2 204.2L871.5 204.3L870.2 206L870.4 210L874.4 207.8L874.6 207.9L870.5 210.3L870.6 213.2H869.4L869.5 210.3L867.1 207.6L867.3 207.7Z"
    fill="#585741"/>
<path
    d="M916.7 205.1C916.7 214.7 911.5 222.6 905.1 222.6C898.7 222.6 893.5 214.8 893.5 205.1C893.5 195.5 904.5 180.8 911 181C921.3 181.2 916.7 195.5 916.7 205.1Z"
    fill="#4E5D62"/>
<path
    d="M900.1 216.1L903.7 219.3L904 213.3L898.2 209.2L898.4 209.1L904.4 212.8L906.6 210.3L907.1 210.5L905 213.3L905.3 219.8L911.7 216.3L912 216.5L905.3 220.4L905.5 225.1H903.5L903.7 220.5L899.8 216.2L900.1 216.1Z"
    fill="#585741"/>
<path
    d="M964.6 230C970.2 226.8 973.9 220.6 973.9 213.4C973.9 205.2 968.9 198.2 962 195.6C963.5 192.9 964.3 189.7 964.3 186.4C964.3 176 956.3 167.5 946.3 167.5C936.7 167.5 928.8 175.5 928.4 185.6C921.9 188.5 917.4 195.2 917.4 203C917.4 205.7 917.9 208.2 918.9 210.5C913.9 213.9 910.6 219.7 910.6 226.4C910.6 228.3 910.9 230.2 911.4 231.9C907.5 235.4 905 240.6 905 246.4C905 256.8 913 265.3 923 265.3C929.9 265.3 935.9 261.2 938.9 255.2C942 260.7 947.8 264.4 954.3 264.4C964.2 264.4 972.3 255.9 972.3 245.5C972.2 239.1 969.2 233.5 964.6 230Z"
    fill="#81A28A"/>
<path
    d="M945.3 242.2L939.4 258.1L939.7 275.3H936.6L936.9 257.7L926.7 243.1L927.1 242.3L936.9 255.3L937.4 231.1L934.1 220.7L934.9 220L938.2 229.2L947.3 215.6L947.6 216.1L938.7 231.2L939.1 253.6L944.7 241.6L945.3 242.2Z"
    fill="#585741"/>
<path
    d="M969.6 345.2H975.5C977.9 345.2 979.9 343.2 979.9 340.8V-87.8C979.9 -90.2 977.9 -92.2 975.5 -92.2H969.6C967.2 -92.2 965.2 -90.2 965.2 -87.8V340.8C965.2 343.2 967.1 345.2 969.6 345.2Z"
    fill="#D1D1D1"/>
<path d="M974.2 60.5L978.7 53.5L809.4 -57.3L804.9 -50.2L974.2 60.5Z" fill="#D1D1D1"/>
<path d="M939.4 38.4L960.6 52.2L965.2 55.2L965.5 44L944.6 30.4L939.4 38.4Z" fill="#6D6D6C"/>
<path d="M953.503 51.5283L955.935 53.1088L964.764 39.5251L962.332 37.9446L953.503 51.5283Z" fill="#4D4D4D"/>
<path d="M948.951 48.6534L951.382 50.2339L960.211 36.6502L957.78 35.0697L948.951 48.6534Z" fill="#4D4D4D"/>
<path d="M944.453 45.6947L946.884 47.2752L955.713 33.6915L953.282 32.111L944.453 45.6947Z" fill="#4D4D4D"/>
<path d="M939.955 42.736L942.386 44.3165L951.215 30.7328L948.784 29.1523L939.955 42.736Z" fill="#4D4D4D"/>
<path d="M568.1 364.7L729.4 195.9L797.5 195.3L964.7 365L568.1 364.7Z" fill="#D6D1CB"/>
<path d="M639 336.4L893.5 337L905.6 354.3L625.4 354.9L639 336.4Z" fill="#705943"/>
<path d="M695.1 319.1H879.7L869 305H663.9L653.6 318.7L695.1 319.1Z" fill="#705943"/>
<path d="M673.5 290.9H858.4L850.6 280.4H681.1L673.5 290.9Z" fill="#705943"/>
<path d="M693.4 267.2H839.1L830.9 257.3H700.8L693.4 267.2Z" fill="#705943"/>
<path d="M706.9 246.1H825.1L818.9 237.8H713.1L706.9 246.1Z" fill="#705943"/>
<path d="M719.1 229.3H812.8L808.3 223.4H723.4L719.1 229.3Z" fill="#705943"/>
<path d="M728.7 216H803L798.4 210.1H733L728.7 216Z" fill="#705943"/>
<path d="M737 204.1H793.7L790.3 199.7H740.3C740.4 199.7 736.5 204.8 737 204.1Z" fill="#705943"/>
<path d="M649.1 375.8L750.3 195.7L755.3 195.8L668.1 376.4L649.1 375.8Z" fill="#262B35"/>
<path d="M776.8 195.5L860.1 372.3H880.9L782.2 195.5H776.8Z" fill="#262B35"/>
<path
    d="M96 -74.9V394H1414.7V-74.9H96ZM1174.3 260.2C1174.3 301.7 1136.2 335.3 1089.2 335.3H358.8C311.8 335.3 273.7 301.7 273.7 260.2V47.9C273.7 6.4 311.8 -27.2 358.8 -27.2H1089.3C1136.3 -27.2 1174.4 6.4 1174.4 47.9V260.2H1174.3Z"
    fill="#E3D9C8"/>
<path
    d="M863.9 245.8H867.2C868.6 245.8 869.7 244.7 869.7 243.3V4.7C869.7 3.3 868.6 2.2 867.2 2.2H863.9C862.5 2.2 861.4 3.3 861.4 4.7V243.3C861.4 244.7 862.5 245.8 863.9 245.8Z"
    fill="#D1D1D1"/>
<path
    d="M793.3 37.4V35.5C793.3 34.7 792.7 34.1 791.9 34.1H726.1C725.3 34.1 724.7 34.7 724.7 35.5V37.4C724.7 38.2 725.3 38.8 726.1 38.8H792C792.7 38.8 793.3 38.2 793.3 37.4Z"
    fill="#D1D1D1"/>
<path
    d="M863.2 24.5V22.6C863.2 21.8 862.6 21.2 861.8 21.2H726.1C725.3 21.2 724.7 21.8 724.7 22.6V24.5C724.7 25.3 725.3 25.9 726.1 25.9H861.8C862.6 25.9 863.2 25.3 863.2 24.5Z"
    fill="#D1D1D1"/>
<path d="M866.5 87.3L869 83.4L774.7 21.8L772.2 25.7L866.5 87.3Z" fill="#D1D1D1"/>
<path d="M847.574 26.3572L861.674 26.3572L861.674 21.0572L847.574 21.0572L847.574 26.3572Z" fill="#6D6D6C"/>
<path d="M858.143 28.1572L859.743 28.1572L859.743 19.1572L858.143 19.1572L858.143 28.1572Z" fill="#4D4D4D"/>
<path d="M855.157 28.1572L856.757 28.1572L856.757 19.1572L855.157 19.1572L855.157 28.1572Z" fill="#4D4D4D"/>
<path d="M852.171 28.1572L853.771 28.1572L853.771 19.1572L852.171 19.1572L852.171 28.1572Z" fill="#4D4D4D"/>
<path d="M849.185 28.1572L850.785 28.1572L850.785 19.1572L849.185 19.1572L849.185 28.1572Z" fill="#4D4D4D"/>
<path d="M847.1 75L858.9 82.7L861.5 84.4L861.6 78.2L850 70.6L847.1 75Z" fill="#6D6D6C"/>
<path d="M854.89 82.309L856.231 83.181L861.136 75.6345L859.795 74.7625L854.89 82.309Z" fill="#4D4D4D"/>
<path d="M852.389 80.647L853.731 81.5191L858.636 73.9726L857.294 73.1005L852.389 80.647Z" fill="#4D4D4D"/>
<path d="M849.918 79.1234L851.26 79.9954L856.165 72.4489L854.823 71.5769L849.918 79.1234Z" fill="#4D4D4D"/>
<path d="M847.418 77.4614L848.759 78.3334L853.664 70.7869L852.323 69.9149L847.418 77.4614Z" fill="#4D4D4D"/>
<path
    d="M820.7 203.1C821.9 203.1 822.8 202.2 822.8 201V81.1C822.8 79.9 821.9 79 820.7 79C819.5 79 818.6 79.9 818.6 81.1V201C818.6 202.1 819.5 203.1 820.7 203.1Z"
    fill="#D1D1D1"/>
<path
    d="M783.9 96.4C783.9 95.7 783.4 95.2 782.7 95.2H750.1C749.4 95.2 748.9 95.7 748.9 96.4C748.9 97.1 749.4 97.6 750.1 97.6H782.7C783.4 97.6 783.9 97.1 783.9 96.4Z"
    fill="#D1D1D1"/>
<path
    d="M819.5 89.9C819.5 89.2 819 88.7 818.3 88.7H750.1C749.4 88.7 748.9 89.2 748.9 89.9C748.9 90.6 749.4 91.1 750.1 91.1H818.3C819 91.1 819.5 90.5 819.5 89.9Z"
    fill="#D1D1D1"/>
<path d="M821.2 122.3L822.4 120.3L774.4 88.9L773.1 90.9L821.2 122.3Z" fill="#D1D1D1"/>
<path d="M811.514 91.224L818.714 91.224L818.714 88.524L811.514 88.524L811.514 91.224Z" fill="#6D6D6C"/>
<path d="M816.93 92.224L817.73 92.224L817.73 87.624L816.93 87.624L816.93 92.224Z" fill="#4D4D4D"/>
<path d="M815.38 92.224L816.18 92.224L816.18 87.624L815.38 87.624L815.38 92.224Z" fill="#4D4D4D"/>
<path d="M813.831 92.224L814.631 92.224L814.631 87.624L813.831 87.624L813.831 92.224Z" fill="#4D4D4D"/>
<path d="M812.381 92.224L813.181 92.224L813.181 87.624L812.381 87.624L812.381 92.224Z" fill="#4D4D4D"/>
<path d="M811.3 116.1L817.3 120L818.6 120.8L818.7 117.7L812.8 113.8L811.3 116.1Z" fill="#6D6D6C"/>
<path d="M815.253 119.766L815.924 120.202L818.431 116.345L817.76 115.909L815.253 119.766Z" fill="#4D4D4D"/>
<path d="M814.01 118.921L814.68 119.357L817.187 115.5L816.517 115.064L814.01 118.921Z" fill="#4D4D4D"/>
<path d="M812.711 118.16L813.382 118.596L815.889 114.739L815.218 114.303L812.711 118.16Z" fill="#4D4D4D"/>
<path d="M811.468 117.315L812.139 117.751L814.646 113.894L813.975 113.458L811.468 117.315Z" fill="#4D4D4D"/>
<path
    d="M836.2 195.3C837.8 194.4 838.9 192.5 838.9 190.4C838.9 188 837.4 186 835.4 185.2C835.8 184.4 836.1 183.5 836.1 182.5C836.1 179.4 833.7 177 830.8 177C828 177 825.7 179.3 825.6 182.3C823.7 183.1 822.4 185.1 822.4 187.4C822.4 188.2 822.6 188.9 822.8 189.6C821.3 190.6 820.4 192.3 820.4 194.3C820.4 194.9 820.5 195.4 820.6 195.9C819.5 196.9 818.7 198.4 818.7 200.1C818.7 203.2 821.1 205.6 824 205.6C826 205.6 827.8 204.4 828.7 202.6C829.6 204.2 831.3 205.3 833.2 205.3C836.1 205.3 838.5 202.8 838.5 199.8C838.4 198 837.5 196.3 836.2 195.3Z"
    fill="#81A28A"/>
<path
    d="M830.5 198.9L828.8 203.6L828.9 208.6H828L828.1 203.5L825.1 199.2L825.2 199L828.1 202.8L828.2 195.7L827.2 192.7L827.4 192.5L828.4 195.2L831.1 191.2L831.2 191.3L828.6 195.7L828.7 202.2L830.3 198.7L830.5 198.9Z"
    fill="#585741"/>
<path d="M1487.4 551.9L1482.7 572.6V796.7L0.6 788.7L37 700L267.9 527.1L1479.3 537.4L1487.4 551.9Z" fill="#E8E2DF"/>
<path d="M35.5 753.1L277.4 560.5L1437.5 572.2L1438.6 376.6L372.5 375.2L-13.1 576.7L-18.9 741.3L35.5 753.1Z" fill="#CECCCA"/>
<path d="M-13.7 444.5L242.2 360.3L1438.6 363.2V376.6L372.5 375.2L-13.1 576.7L-13.7 444.5Z" fill="#E8E2DF"/>
<path d="M-13.7 444.5L242.2 360.3L76 -134L-105.5 -110.4L-13.7 444.5Z" fill="#D7CFBB"/>
<path
    d="M619.8 536.1C626.538 536.1 632 530.638 632 523.9C632 517.162 626.538 511.7 619.8 511.7C613.062 511.7 607.6 517.162 607.6 523.9C607.6 530.638 613.062 536.1 619.8 536.1Z"
    fill="#5B5D60"/>
<path
    d="M619.8 504.6C626.538 504.6 632 499.138 632 492.4C632 485.662 626.538 480.2 619.8 480.2C613.062 480.2 607.6 485.662 607.6 492.4C607.6 499.138 613.062 504.6 619.8 504.6Z"
    fill="#5B5D60"/>
<path
    d="M619.8 473.5C626.538 473.5 632 468.038 632 461.3C632 454.562 626.538 449.1 619.8 449.1C613.062 449.1 607.6 454.562 607.6 461.3C607.6 468.038 613.062 473.5 619.8 473.5Z"
    fill="#5B5D60"/>
<path
    d="M619.8 440.3C626.538 440.3 632 434.838 632 428.1C632 421.362 626.538 415.9 619.8 415.9C613.062 415.9 607.6 421.362 607.6 428.1C607.6 434.838 613.062 440.3 619.8 440.3Z"
    fill="#5B5D60"/>
<path
    d="M907 542.1H664.7C660.1 542.1 656.4 538.4 656.4 533.8V415.1C656.4 410.5 660.1 406.8 664.7 406.8H907C911.6 406.8 915.3 410.5 915.3 415.1V533.8C915.3 538.3 911.6 542.1 907 542.1Z"
    fill="#5B5D60"/>
<path
    d="M893.8 528.6H679.1C674.5 528.6 670.8 524.9 670.8 520.3V428.4C670.8 423.8 674.5 420.1 679.1 420.1H893.8C898.4 420.1 902.1 423.8 902.1 428.4V520.3C902.1 524.8 898.4 528.6 893.8 528.6Z"
    fill="#656667"/>
<path d="M495.4 324.6L52.2 326.2L50.7 287.3L494.1 291.3L495.4 324.6Z" fill="#213C7F"/>
<path d="M504.6 548.2L63 587.7L52.3 326.2L495.5 324.5L504.6 548.2Z" fill="#F6F6F6"/>
<path
    d="M139.5 356.7L74.6 357.6C68.6 357.7 63.5 353.6 63.3 348.4L61.9 313.9C61.7 308.7 66.4 304.5 72.5 304.6L137.4 304.8C143.2 304.8 148 308.9 148.2 313.9L149.6 347.4C149.7 352.5 145.2 356.6 139.5 356.7Z"
    fill="white"/>
<path d="M144.3 331.1L67.2 331.5V330.9L144.3 330.5V331.1Z" fill="#E5E5E4"/>
<path d="M142.2 347.2L75.5 347.9L75.1 339.9L141.9 339.4L142.2 347.2Z" fill="#E5E5E4"/>
<path d="M141.1 322L74.4 322.2L74.1 314.2L140.8 314.3L141.1 322Z" fill="#E5E5E4"/>
<path
    d="M405.7 353.5L171.3 356.8C165.6 356.9 160.9 352.9 160.7 347.9L159.3 314.5C159.1 309.5 163.5 305.4 169.2 305.5L403.8 306.3C408.6 306.3 412.6 310 412.8 314.6L414 345C414.2 349.6 410.5 353.4 405.7 353.5Z"
    fill="white"/>
<path d="M409.8 330.1L164.1 331.5V330.9L409.8 329.6V330.1Z" fill="#E5E5E4"/>
<path d="M190.8 338.5L194.6 346.6H192.5L191.7 344.8H188.3L187.6 346.6H185.6L188.7 338.5H190.8ZM191.2 343.5L189.9 340.5L188.8 343.6L191.2 343.5Z"
      fill="#020203"/>
<path d="M196.7 338.5L197 346.6H195.2L194.9 338.5H196.7Z" fill="#020203"/>
<path
    d="M201.8 340.5V341.6H200.5L200.6 344.4C200.6 344.7 200.7 345 200.7 345C200.8 345.1 201 345.2 201.4 345.2C201.5 345.2 201.7 345.2 201.9 345.2L202 346.5C201.6 346.5 201.2 346.6 200.9 346.6C200.4 346.6 200 346.6 199.7 346.5C199.3 346.3 199 346 198.9 345.6C198.8 345.4 198.8 345 198.8 344.4L198.7 341.6H197.6V340.5H198.7L198.6 339.1H200.4L200.5 340.5H201.8Z"
    fill="#020203"/>
<path
    d="M208.4 342.2H206.7C206.7 342 206.6 341.8 206.5 341.7C206.3 341.5 206 341.4 205.5 341.4C205.2 341.4 204.9 341.5 204.8 341.6C204.6 341.7 204.6 341.9 204.6 342C204.6 342.2 204.7 342.3 204.9 342.4C205.1 342.5 205.5 342.6 206.2 342.7C207.1 342.8 207.7 343 208.1 343.3C208.6 343.6 208.8 344 208.8 344.5C208.8 345.1 208.6 345.6 208 346C207.5 346.4 206.7 346.5 205.8 346.5C204.7 346.5 203.8 346.3 203.3 345.8C202.9 345.5 202.7 345 202.7 344.4H204.4C204.4 344.7 204.5 344.9 204.7 345C204.9 345.2 205.3 345.4 205.9 345.4C206.3 345.4 206.6 345.3 206.8 345.2C207 345.1 207.1 344.9 207.1 344.7C207.1 344.5 207 344.3 206.8 344.2C206.6 344.1 206.2 344 205.6 343.9C205 343.8 204.6 343.7 204.4 343.6C204.2 343.5 203.9 343.5 203.7 343.4C203.4 343.3 203.2 343.1 203.1 342.9C203 342.7 202.9 342.4 202.9 342.1C202.9 341.5 203.1 341 203.7 340.7C204.2 340.4 204.8 340.3 205.7 340.3C206.8 340.3 207.6 340.5 208.1 341C208.1 341.3 208.3 341.7 208.4 342.2Z"
    fill="#020203"/>
<path
    d="M213.2 340.4V341.5H211.9L212 344.3C212 344.6 212.1 344.9 212.1 344.9C212.2 345 212.4 345.1 212.8 345.1C212.9 345.1 213.1 345.1 213.3 345.1L213.4 346.4C213 346.4 212.6 346.5 212.3 346.5C211.8 346.5 211.4 346.5 211.1 346.4C210.7 346.2 210.4 345.9 210.3 345.5C210.2 345.3 210.2 344.9 210.2 344.3L210.1 341.5H209V340.4H210.1L210 339H211.8L211.9 340.4H213.2Z"
    fill="#020203"/>
<path
    d="M220.2 344.4C220.1 344.7 220 345.1 219.7 345.4C219.1 346.1 218.3 346.5 217.2 346.5C216.2 346.5 215.4 346.2 214.8 345.7C214.5 345.4 214.3 345.1 214.1 344.7C213.9 344.3 213.8 343.9 213.8 343.4C213.8 342.5 214 341.8 214.5 341.2C215.1 340.5 215.9 340.2 216.9 340.2C217.7 340.2 218.4 340.4 219 340.8C219.4 341.1 219.7 341.5 219.9 342C220.1 342.5 220.2 343 220.2 343.8H215.6C215.6 344.1 215.7 344.3 215.8 344.5C216.1 345 216.5 345.3 217.2 345.3C217.5 345.3 217.8 345.2 218 345.1C218.2 345 218.4 344.8 218.5 344.5L220.2 344.4ZM218.5 342.7C218.5 342.4 218.4 342.2 218.3 342C218.2 341.8 218 341.7 217.8 341.6C217.6 341.5 217.4 341.4 217.1 341.4C216.7 341.4 216.4 341.5 216.1 341.8C215.9 342 215.7 342.4 215.7 342.8L218.5 342.7Z"
    fill="#020203"/>
<path
    d="M224.7 340.3V341.4H223.4L223.5 344.2C223.5 344.5 223.6 344.7 223.6 344.8C223.7 344.9 223.9 345 224.3 345C224.4 345 224.6 345 224.8 345L224.9 346.3C224.5 346.3 224.1 346.4 223.8 346.4C223.3 346.4 222.9 346.4 222.6 346.3C222.2 346.1 221.9 345.8 221.8 345.4C221.7 345.2 221.7 344.8 221.7 344.2L221.6 341.5H220.5V340.4H221.6L221.5 339H223.3L223.4 340.4L224.7 340.3Z"
    fill="#020203"/>
<path
    d="M229.4 340.2V341.3H228.1L228.2 344.1C228.2 344.4 228.3 344.6 228.3 344.7C228.4 344.8 228.6 344.9 229 344.9C229.1 344.9 229.3 344.9 229.5 344.9L229.6 346.2C229.2 346.2 228.8 346.3 228.5 346.3C228 346.3 227.6 346.3 227.3 346.2C226.9 346 226.6 345.7 226.5 345.3C226.4 345.1 226.4 344.7 226.4 344.1L226.3 341.4H225.2V340.3H226.3L226.2 338.9H228L228.1 340.3L229.4 340.2Z"
    fill="#020203"/>
<path
    d="M236.3 344.3C236.2 344.6 236.1 345 235.8 345.2C235.3 345.9 234.4 346.3 233.3 346.3C232.3 346.3 231.5 346 230.9 345.5C230.6 345.2 230.4 344.9 230.2 344.5C230 344.1 229.9 343.7 229.9 343.2C229.9 342.3 230.1 341.6 230.6 341C231.2 340.3 232 340 233 340C233.8 340 234.5 340.2 235 340.6C235.4 340.9 235.7 341.3 235.9 341.8C236.1 342.3 236.2 342.8 236.2 343.5H231.6C231.6 343.8 231.7 344 231.8 344.2C232.1 344.7 232.5 345 233.2 345C233.5 345 233.8 344.9 234 344.8C234.2 344.7 234.4 344.5 234.5 344.2L236.3 344.3ZM234.6 342.5C234.6 342.2 234.5 342 234.4 341.8C234.3 341.6 234.1 341.5 233.9 341.4C233.7 341.3 233.5 341.2 233.2 341.2C232.8 341.2 232.5 341.3 232.2 341.6C232 341.8 231.8 342.2 231.8 342.6L234.6 342.5Z"
    fill="#020203"/>
<path
    d="M239 340.2V341C239.2 340.7 239.4 340.6 239.5 340.4C239.9 340.1 240.4 339.9 241 339.9C241.5 339.9 242 340 242.4 340.3C242.7 340.5 242.9 340.7 243.1 341C243.2 341.3 243.3 341.7 243.3 342.3L243.5 346H241.8L241.7 342.6C241.7 342.2 241.6 341.9 241.6 341.8C241.5 341.6 241.4 341.5 241.2 341.4C241 341.3 240.8 341.3 240.6 341.3C240.3 341.3 240.1 341.4 239.9 341.5C239.7 341.6 239.5 341.8 239.4 342C239.3 342.2 239.2 342.6 239.3 343.1L239.4 346.2H237.7L237.5 340.3L239 340.2Z"
    fill="#020203"/>
<path d="M176.7 349H175.6L175.1 337.3H176.2L176.7 349Z" fill="#020203"/>
<path d="M178.1 343.1C178.1 344.2 177.2 345.1 176 345.1C174.8 345.1 173.8 344.2 173.7 343.2C173.7 342.1 174.6 341.2 175.8 341.2C177 341.2 178 342 178.1 343.1Z"
      fill="#020203"/>
<path
    d="M399.1 325.3C395.3 325.3 392.1 322.4 391.9 318.7C391.8 315.1 394.7 312.1 398.5 312.1C402.3 312.1 405.5 315 405.6 318.7C405.8 322.3 402.9 325.3 399.1 325.3Z"
    fill="white" stroke="#8C8C8D" stroke-miterlimit="10"/>
<path d="M406.3 344.5L351.1 345.1L350.8 337.9L406 337.4L406.3 344.5Z" fill="#E5E5E4"/>
<path
    d="M333.4 325.6L302.3 325.7C298.2 325.7 294.8 322.7 294.6 318.9C294.4 315.1 297.6 312.1 301.7 312.1H332.8C336.8 312.1 340.1 315.1 340.3 318.8C340.5 322.5 337.4 325.5 333.4 325.6Z"
    fill="white" stroke="#8C8C8D" stroke-miterlimit="10"/>
<path d="M334 321.8L301.4 321.9L301.1 315.6H333.8L334 321.8Z" fill="#E5E5E4"/>
<path
    d="M381.8 325.4L351.8 325.5C347.9 325.5 344.6 322.5 344.4 318.8C344.2 315.1 347.3 312.1 351.2 312.1H381.2C385 312.1 388.3 315.1 388.4 318.7C388.6 322.4 385.7 325.4 381.8 325.4Z"
    fill="white" stroke="#8C8C8D" stroke-miterlimit="10"/>
<path d="M382.4 321.7H350.9L350.7 315.6H382.2L382.4 321.7Z" fill="#E5E5E4"/>
<path
    d="M180.5 325.8H170.3C168.9 325.8 167.7 324.8 167.6 323.5L167.2 314.4C167.1 313.2 168.3 312.1 169.7 312.1H179.9C181.3 312.1 182.5 313.1 182.5 314.4L182.9 323.4C183 324.8 181.9 325.8 180.5 325.8Z"
    fill="#E5E5E4"/>
<path
    d="M200.6 325.8H190.5C189.1 325.8 187.9 324.8 187.9 323.6L187.5 314.6C187.4 313.4 188.5 312.4 189.9 312.4H200C201.4 312.4 202.5 313.4 202.6 314.6L203 323.6C203.1 324.7 202 325.7 200.6 325.8Z"
    fill="#E5E5E4"/>
<path
    d="M481.2 352.4L430.5 353.1C425.8 353.2 421.8 349.5 421.6 344.9L420.4 314.5C420.2 309.9 423.9 306.2 428.6 306.3L479.3 306.5C483.8 306.5 487.6 310.1 487.8 314.6L489 344.3C489.2 348.7 485.7 352.3 481.2 352.4Z"
    fill="white"/>
<path d="M484.8 329.7L424.7 330L424.6 329.5L484.8 329.2V329.7Z" fill="#E5E5E4"/>
<path d="M483.8 322.4L431.7 322.6L431.4 315.5H483.5L483.8 322.4Z" fill="#E5E5E4"/>
<path d="M484.7 343.6L432.6 344.1L432.3 337.1L484.4 336.7L484.7 343.6Z" fill="#E5E5E4"/>
<path
    d="M491.6 544.1L80.3 580.1C76.1 580.5 72.7 577.9 72.5 574.3L64.3 373.3C64.2 369.7 67.4 366.8 71.6 366.7L484.1 359.6C487.2 359.5 489.8 362 489.9 365.1L497 538C497 541.1 494.6 543.8 491.6 544.1Z"
    fill="white"/>
<path d="M490.1 372.1L64.5 381.5L64.6 382.6L490.1 373.2V372.1Z" fill="#E5E5E4"/>
<path d="M490.8 390.2L65.4 402.5V403.1L490.8 390.7V390.2Z" fill="#E5E5E4"/>
<path d="M491.5 407.5L66.2 422.6V423.1L491.5 408V407.5Z" fill="#E5E5E4"/>
<path d="M492 418.9L66.7 435.8L66.8 436.4L492 419.4V418.9Z" fill="#E5E5E4"/>
<path d="M492.7 437.3L67.6 457.2V457.8L492.8 437.8L492.7 437.3Z" fill="#E5E5E4"/>
<path d="M83.6 378.2L71.6 378.4L71.3 372L83.4 371.8L83.6 378.2Z" fill="#E5E5E4"/>
<path d="M413.4 371.1L403.8 371.3L403.6 365.5L413.2 365.4L413.4 371.1Z" fill="#E5E5E4"/>
<path d="M414.9 408.1L405.3 408.4L405.1 402.7L414.7 402.4L414.9 408.1Z" fill="#E5E5E4"/>
<path d="M445.1 370.6L435.7 370.8L435.5 365.1L444.8 365L445.1 370.6Z" fill="#E5E5E4"/>
<path d="M445.8 389.3L436.5 389.6L436.2 383.9L445.6 383.7L445.8 389.3Z" fill="#E5E5E4"/>
<path d="M446.6 407L437.2 407.3L437 401.7L446.3 401.4L446.6 407Z" fill="#E5E5E4"/>
<path d="M416.2 439.4L406.6 439.8L406.4 434.1L416 433.7L416.2 439.4Z" fill="#E5E5E4"/>
<path d="M447.8 437.9L438.5 438.3L438.2 432.7L447.6 432.3L447.8 437.9Z" fill="#E5E5E4"/>
<path d="M447.4 417.8L438 418.1L437.8 412.5L447.2 412.1L447.4 417.8Z" fill="#E5E5E4"/>
<path d="M476.9 369.7L467.8 369.9L467.6 364.3L476.7 364.2L476.9 369.7Z" fill="#E5E5E4"/>
<path d="M139.6 377L96.7 377.9L96.4 371.5L139.3 370.7L139.6 377Z" fill="#E5E5E4"/>
<path d="M84.7 399.4L72.6 399.8L72.4 393.3L84.4 393L84.7 399.4Z" fill="#E5E5E4"/>
<path d="M140.4 397.9L97.6 399.1L97.3 392.7L140.2 391.6L140.4 397.9Z" fill="#E5E5E4"/>
<path d="M85.5 418.9L73.4 419.3L73.2 412.8L85.2 412.4L85.5 418.9Z" fill="#E5E5E4"/>
<path d="M141.2 417.6L98.4 419.1L98.1 412.7L141 411.3L141.2 417.6Z" fill="#E5E5E4"/>
<path d="M87 454.6L74.9 455.2L74.6 448.7L86.7 448.2L87 454.6Z" fill="#E5E5E4"/>
<path d="M142.6 452L99.8 454L99.6 447.6L142.4 445.7L142.6 452Z" fill="#E5E5E4"/>
<path d="M86 431.8L73.9 432.2L73.7 425.8L85.8 425.3L86 431.8Z" fill="#E5E5E4"/>
<path d="M263.6 374.4L186.6 376L186.4 369.8L263.4 368.4L263.6 374.4Z" fill="#E5E5E4"/>
<path d="M266.1 424.8L189.2 427.8L189 421.6L265.9 418.8L266.1 424.8Z" fill="#E5E5E4"/>
<path d="M493.2 449.5L68.2 471.3V471.9L493.3 450L493.2 449.5Z" fill="#E5E5E4"/>
<path d="M448.3 448.8L438.9 449.2L438.7 443.6L448 443.1L448.3 448.8Z" fill="#E5E5E4"/>
<path d="M87.4 466.3L75.4 466.9L75.1 460.4L87.2 459.9L87.4 466.3Z" fill="#E5E5E4"/>
<path d="M267 457.9L190.1 461.8L189.9 455.6L266.8 451.9L267 457.9Z" fill="#E5E5E4"/>
<path d="M493.7 461.8L68.8 485.6V486.2L493.8 462.3L493.7 461.8Z" fill="#E5E5E4"/>
<path d="M448.5 461.3L439.1 461.8L438.9 456.2L448.2 455.7L448.5 461.3Z" fill="#E5E5E4"/>
<path d="M88 481.2L76 481.8L75.7 475.4L87.8 474.7L88 481.2Z" fill="#E5E5E4"/>
<path d="M267.3 471.3L190.3 475.5L190.1 469.3L267 465.3L267.3 471.3Z" fill="#E5E5E4"/>
<path d="M494.2 473.7L69.4 499.5V500.1L494.2 474.2V473.7Z" fill="#E5E5E4"/>
<path d="M449 473.5L439.6 474L439.4 468.4L448.7 467.8L449 473.5Z" fill="#E5E5E4"/>
<path d="M88.6 495L76.5 495.7L76.3 489.3L88.3 488.6L88.6 495Z" fill="#E5E5E4"/>
<path d="M267.8 484.3L190.9 488.9L190.6 482.7L267.5 478.2L267.8 484.3Z" fill="#E5E5E4"/>
<path d="M494.7 485.4L69.9 513.1V513.7L494.7 485.9V485.4Z" fill="#E5E5E4"/>
<path d="M496 515.8L71.4 548.5V549.1L496 516.3V515.8Z" fill="#E5E5E4"/>
<path d="M449.5 485.3L440.1 485.9L439.9 480.3L449.2 479.7L449.5 485.3Z" fill="#E5E5E4"/>
<path d="M89.2 508.4L77.1 509.2L76.8 502.8L88.9 502L89.2 508.4Z" fill="#E5E5E4"/>
<path d="M268.3 497L191.4 501.9L191.2 495.7L268.1 490.9L268.3 497Z" fill="#E5E5E4"/>
<path d="M450.7 516.3L441.4 517L441.1 511.4L450.5 510.7L450.7 516.3Z" fill="#E5E5E4"/>
<path d="M90.6 543.6L78.5 544.5L78.3 538.1L90.3 537.2L90.6 543.6Z" fill="#E5E5E4"/>
<path d="M269.7 530.1L192.8 535.9L192.5 529.7L269.4 524L269.7 530.1Z" fill="#E5E5E4"/>
<path d="M496.4 527.8L71.9 562.4L72 563L496.5 528.3L496.4 527.8Z" fill="#E5E5E4"/>
<path d="M451.2 528.5L441.9 529.2L441.6 523.6L451 522.8L451.2 528.5Z" fill="#E5E5E4"/>
<path d="M91.2 557.4L79.1 558.4L78.8 552L90.9 551L91.2 557.4Z" fill="#E5E5E4"/>
<path d="M270.2 543L193.3 549.2L193.1 543L269.9 537L270.2 543Z" fill="#E5E5E4"/>
<path d="M496.9 539.5L72.5 576V576.6L496.9 540V539.5Z" fill="#E5E5E4"/>
<path d="M451.7 540.4L442.4 541.2L442.1 535.5L451.5 534.7L451.7 540.4Z" fill="#E5E5E4"/>
<path d="M91.7 570.9L79.7 571.9L79.4 565.5L91.5 564.5L91.7 570.9Z" fill="#E5E5E4"/>
<path d="M270.7 555.7L193.9 562.2L193.6 556.1L270.5 549.7L270.7 555.7Z" fill="#E5E5E4"/>
<path d="M431.3 549.3L432.4 549.2L425.2 374.3H424.2L431.3 549.3Z" fill="#E5E5E4"/>
<path d="M154.6 392.7C154.7 394 153.5 395 152.1 395C150.7 395 149.5 394.1 149.4 392.8C149.3 391.5 150.5 390.5 151.9 390.5C153.4 390.4 154.6 391.4 154.6 392.7Z"
      fill="#020203"/>
<path
    d="M156.8 446.3C156.9 447.6 155.7 448.6 154.3 448.7C152.9 448.8 151.7 447.8 151.6 446.5C151.5 445.2 152.7 444.2 154.1 444.1C155.6 444.1 156.8 445 156.8 446.3Z"
    fill="#020203"/>
<path d="M159.9 521.6C160 522.9 158.8 524 157.4 524.1C156 524.2 154.8 523.3 154.7 522C154.6 520.7 155.8 519.6 157.2 519.5C158.7 519.4 159.9 520.3 159.9 521.6Z"
      fill="#020203"/>
<path d="M193.3 390.4V391.3L190 395L193.5 394.9V395.9L188.2 396V395L191.4 391.3L188.2 391.4V390.4H193.3Z" fill="#020203"/>
<path
    d="M198.4 391.7L198.6 395.9H197.4V395.3C197.1 395.8 196.6 396 195.9 396.1C195.3 396.1 194.9 396 194.6 395.6C194.5 395.5 194.4 395.3 194.3 395.1C194.2 394.9 194.2 394.7 194.2 394.4L194.1 391.7H195.3L195.4 394C195.4 394.2 195.4 394.4 195.4 394.5C195.4 394.6 195.5 394.7 195.5 394.8C195.6 395 195.9 395.1 196.2 395.1C196.6 395.1 196.9 394.9 197 394.6C197.1 394.4 197.1 394.2 197.1 393.8L197 391.7H198.4ZM195.9 390.4V391.4H194.7V390.4H195.9ZM197.7 390.3V391.3H196.5V390.3H197.7Z"
    fill="#020203"/>
<path
    d="M202.3 391.6V392.7C202.1 392.7 201.9 392.7 201.8 392.7C201.3 392.7 201 392.9 200.8 393.2C200.7 393.4 200.6 393.7 200.7 394.2L200.8 395.9H199.6L199.4 391.7H200.6V392.5C200.9 391.9 201.4 391.6 202 391.6C202.1 391.5 202.2 391.5 202.3 391.6Z"
    fill="#020203"/>
<path d="M204 390.2V391.2H202.8V390.2H204ZM204.1 391.6L204.3 395.8H203.1L202.9 391.6H204.1Z" fill="#020203"/>
<path
    d="M209.5 394C209.5 394.4 209.3 394.8 209.1 395.1C208.7 395.6 208.2 395.8 207.4 395.8C206.6 395.8 206 395.6 205.6 395.2C205.2 394.8 205 394.3 205 393.8C205 393.1 205.2 392.5 205.6 392.1C206 391.7 206.5 391.5 207.2 391.5C207.8 391.5 208.3 391.6 208.7 391.9C209.1 392.2 209.3 392.5 209.4 393H208.2C208.1 392.8 208 392.6 207.9 392.5C207.7 392.4 207.5 392.3 207.3 392.3C207 392.3 206.7 392.4 206.5 392.7C206.3 392.9 206.2 393.3 206.3 393.7C206.3 394.1 206.4 394.4 206.6 394.6C206.8 394.9 207.1 395 207.4 395C207.9 395 208.3 394.7 208.3 394.1L209.5 394Z"
    fill="#020203"/>
<path
    d="M211.3 390L211.4 392C211.5 391.8 211.7 391.6 212 391.5C212.2 391.4 212.5 391.3 212.8 391.3C213.4 391.3 213.9 391.5 214.2 391.9C214.4 392.1 214.5 392.5 214.5 392.9L214.6 395.5H213.4L213.3 393.1C213.3 392.8 213.2 392.6 213.1 392.5C213 392.3 212.7 392.3 212.4 392.3C212 392.3 211.7 392.5 211.6 392.8C211.6 392.9 211.5 393 211.5 393.1C211.5 393.2 211.5 393.4 211.5 393.6L211.6 395.6H210.4L210.2 390H211.3Z"
    fill="#020203"/>
<path d="M223 389.7L223.2 395.3H221.9L221.8 392.9L219.3 393L219.4 395.4H218L217.8 389.8H219.2L219.3 391.9L221.8 391.8L221.7 389.7H223Z" fill="#020203"/>
<path
    d="M224.2 389.6L227 389.5C227.6 389.5 228 389.5 228.3 389.7C228.6 389.8 228.8 390 228.9 390.2C229 390.4 229.1 390.6 229.1 390.8C229.1 391.1 229 391.3 228.9 391.5C228.8 391.7 228.6 391.9 228.3 392C228.5 392.1 228.7 392.1 228.8 392.2C229.2 392.5 229.4 392.8 229.4 393.3C229.4 393.6 229.3 393.9 229.2 394.1C229.1 394.3 228.9 394.5 228.6 394.7C228.3 394.9 227.8 395 227.3 395L224.3 395.1L224.2 389.6ZM225.6 390.6L225.7 391.9H226.9C227.2 391.9 227.4 391.9 227.5 391.8C227.7 391.7 227.9 391.5 227.9 391.2C227.9 391 227.8 390.8 227.6 390.7C227.4 390.6 227.2 390.6 226.8 390.6H225.6ZM225.7 392.7L225.8 394.2H227.2C227.6 394.2 227.9 394.1 228 394C228.2 393.9 228.3 393.7 228.3 393.4C228.3 393.1 228.1 392.9 227.9 392.7C227.7 392.6 227.5 392.6 227.1 392.6L225.7 392.7Z"
    fill="#020203"/>
<path d="M194.4 409.8L194.6 415.4H193.2L193.1 413L190.5 413.1L190.6 415.5H189.2L189 410H190.4L190.5 412.1L193.1 412L193 409.9L194.4 409.8Z" fill="#020203"/>
<path
    d="M200 415.2H198.7C198.6 415 198.6 414.9 198.6 414.8C198.2 415.2 197.7 415.4 197.1 415.4C196.6 415.4 196.2 415.3 196 415.1C195.7 414.9 195.5 414.6 195.5 414.2C195.5 413.7 195.7 413.3 196.3 413.1C196.5 413 196.9 412.9 197.5 412.8C198 412.7 198.3 412.7 198.4 412.6C198.5 412.5 198.6 412.4 198.6 412.3C198.6 411.9 198.3 411.8 197.8 411.8C197.5 411.8 197.3 411.9 197.2 412C197.1 412.1 197 412.3 197 412.5H195.8C195.8 412 196 411.7 196.3 411.4C196.6 411.2 197.1 411 197.8 411C198.5 411 199.1 411.1 199.4 411.3C199.6 411.4 199.7 411.5 199.7 411.7C199.8 411.8 199.8 412.1 199.8 412.4C199.8 412.5 199.8 412.7 199.8 413.2C199.8 413.7 199.8 414 199.8 414.1C199.8 414.4 199.8 414.6 199.9 414.8C199.8 414.9 199.9 415 200 415.2ZM198.5 413.2C198.3 413.3 198.1 413.4 197.6 413.4C197.3 413.5 197.1 413.5 197 413.6C196.8 413.7 196.7 413.9 196.7 414.1C196.7 414.3 196.8 414.4 196.9 414.5C197 414.6 197.2 414.6 197.4 414.6C197.8 414.6 198.1 414.5 198.3 414.2C198.4 414.1 198.4 414 198.5 413.9C198.5 413.8 198.5 413.7 198.5 413.6V413.2Z"
    fill="#020203"/>
<path
    d="M203.5 410.8V411.9C203.3 411.9 203.1 411.9 203 411.9C202.5 411.9 202.2 412.1 202 412.5C201.9 412.7 201.8 413 201.9 413.5L202 415.2H200.8L200.6 411H201.8V411.8C202.1 411.2 202.6 410.9 203.2 410.9C203.3 410.8 203.4 410.8 203.5 410.8Z"
    fill="#020203"/>
<path
    d="M208.4 409.3L208.6 414.9H207.4V414.4C207.1 414.8 206.7 415.1 206.1 415.1C205.5 415.1 205 414.9 204.6 414.5C204.2 414.1 204 413.6 204 412.9C204 412.3 204.1 411.8 204.4 411.4C204.8 410.9 205.2 410.7 205.9 410.7C206.5 410.7 207 410.9 207.3 411.3L207.2 409.4L208.4 409.3ZM206.2 411.6C205.9 411.6 205.6 411.7 205.4 411.9C205.2 412.1 205.1 412.4 205.1 412.9C205.1 413.3 205.2 413.6 205.4 413.8C205.6 414 205.9 414.1 206.2 414.1C206.5 414.1 206.8 414 207 413.7C207.2 413.5 207.3 413.2 207.2 412.8C207.2 412.4 207.1 412.1 206.9 411.8C206.8 411.7 206.5 411.6 206.2 411.6Z"
    fill="#020203"/>
<path
    d="M210.6 409.3L210.7 411.2C211 410.8 211.5 410.5 212.1 410.5C212.5 410.5 212.9 410.6 213.2 410.8C213.8 411.2 214.1 411.8 214.1 412.6C214.1 413.2 214 413.7 213.7 414.1C213.3 414.6 212.8 414.9 212.2 414.9C211.6 414.9 211.1 414.7 210.8 414.3V414.8H209.6L209.4 409.2L210.6 409.3ZM211.7 411.4C211.4 411.4 211.1 411.5 210.9 411.8C210.7 412 210.6 412.3 210.6 412.7C210.6 413.1 210.7 413.3 210.9 413.6C211.1 413.9 211.4 414 211.8 414C212.2 414 212.4 413.8 212.6 413.6C212.8 413.4 212.8 413.1 212.8 412.7C212.8 412.3 212.7 412 212.4 411.8C212.3 411.5 212 411.4 211.7 411.4Z"
    fill="#020203"/>
<path
    d="M217.6 410.4V411.5C217.4 411.5 217.2 411.5 217.1 411.5C216.6 411.5 216.3 411.7 216.1 412.1C216 412.3 215.9 412.6 216 413.1L216.1 414.8H214.9L214.7 410.6H215.9V411.4C216.2 410.8 216.7 410.5 217.3 410.5C217.4 410.4 217.5 410.4 217.6 410.4Z"
    fill="#020203"/>
<path
    d="M222.4 410.3L222.6 414.4H221.4V413.8C221.1 414.3 220.6 414.5 219.9 414.6C219.3 414.6 218.9 414.5 218.6 414.1C218.5 414 218.4 413.8 218.4 413.7C218.3 413.5 218.3 413.3 218.3 413L218.2 410.4H219.4L219.5 412.7C219.5 412.9 219.5 413.1 219.5 413.2C219.5 413.3 219.6 413.4 219.6 413.4C219.7 413.6 220 413.7 220.3 413.7C220.7 413.7 221 413.5 221.1 413.2C221.2 413 221.2 412.8 221.2 412.4L221.1 410.4L222.4 410.3ZM219.9 408.9V409.9H218.7V408.9H219.9ZM221.7 408.9V409.9H220.5V408.9H221.7Z"
    fill="#020203"/>
<path
    d="M227.7 412.7C227.7 413.1 227.5 413.5 227.3 413.7C226.9 414.2 226.4 414.4 225.6 414.4C224.9 414.4 224.3 414.2 223.8 413.8C223.4 413.4 223.2 412.9 223.2 412.4C223.2 411.7 223.4 411.1 223.8 410.7C224.2 410.3 224.7 410.1 225.4 410.1C226 410.1 226.5 410.2 226.9 410.5C227.3 410.8 227.5 411.1 227.6 411.6H226.4C226.3 411.4 226.2 411.2 226.1 411.1C225.9 411 225.7 410.9 225.5 410.9C225.2 410.9 224.9 411 224.7 411.3C224.5 411.5 224.4 411.9 224.5 412.3C224.5 412.7 224.6 413 224.8 413.2C225 413.5 225.3 413.6 225.6 413.6C226.1 413.6 226.4 413.3 226.5 412.7H227.7Z"
    fill="#020203"/>
<path d="M232.6 409.9L231 411.5L233 414L231.5 414.1L230.2 412.3L229.7 412.7L229.8 414.1H228.6L228.4 408.6H229.6L229.7 411.5L231.2 410L232.6 409.9Z"
      fill="#020203"/>
<path
    d="M237.3 412.6C237.2 412.8 237.1 413.1 237 413.3C236.6 413.8 236.1 414.1 235.3 414.1C234.6 414.1 234.1 413.9 233.6 413.6C233.4 413.4 233.2 413.2 233.1 412.9C233 412.6 232.9 412.3 232.9 412C232.9 411.4 233 410.9 233.4 410.5C233.8 410 234.4 409.8 235 409.8C235.5 409.8 236 409.9 236.4 410.2C236.7 410.4 236.9 410.7 237 411C237.1 411.3 237.2 411.7 237.2 412.2L234 412.3C234 412.5 234.1 412.7 234.1 412.8C234.3 413.2 234.6 413.3 235.1 413.3C235.3 413.3 235.5 413.2 235.6 413.1C235.7 413 235.8 412.9 235.9 412.7L237.3 412.6ZM236.1 411.5C236.1 411.3 236 411.1 235.9 411C235.8 410.9 235.7 410.8 235.6 410.7C235.5 410.6 235.3 410.6 235.1 410.6C234.8 410.6 234.6 410.7 234.4 410.9C234.2 411.1 234.1 411.3 234.1 411.6L236.1 411.5Z"
    fill="#020203"/>
<path
    d="M193.6 443.7L196.2 449.2L194.8 449.3L194.2 448.1L191.9 448.2L191.4 449.5L190 449.6L192.2 443.9L193.6 443.7ZM193.8 447.2L192.9 445.1L192.1 447.3L193.8 447.2Z"
    fill="#020203"/>
<path d="M197.6 443.5L197.8 449.1L196.6 449.2L196.4 443.6L197.6 443.5Z" fill="#020203"/>
<path
    d="M201.2 444.8V445.6H200.3L200.4 447.6C200.4 447.8 200.4 448 200.5 448C200.6 448.1 200.7 448.1 201 448.1C201.1 448.1 201.2 448.1 201.4 448.1V449C201.1 449 200.9 449.1 200.6 449.1C200.2 449.1 200 449.1 199.8 449C199.5 448.9 199.3 448.7 199.2 448.4C199.2 448.3 199.1 448 199.1 447.6L199 445.7H198.2V444.9H199V443.9L200.2 443.8V444.8H201.2Z"
    fill="#020203"/>
<path
    d="M205.7 445.8L204.5 445.9C204.5 445.8 204.4 445.7 204.4 445.6C204.3 445.5 204 445.4 203.7 445.4C203.5 445.4 203.3 445.5 203.2 445.5C203.1 445.6 203 445.7 203 445.8C203 445.9 203.1 446 203.2 446.1C203.3 446.2 203.6 446.2 204.1 446.3C204.7 446.4 205.1 446.5 205.4 446.7C205.7 446.9 205.9 447.2 205.9 447.6C205.9 448 205.7 448.4 205.4 448.7C205 449 204.5 449.1 203.9 449.1C203.1 449.1 202.5 449 202.2 448.7C201.9 448.5 201.8 448.2 201.7 447.8L202.9 447.7C202.9 447.9 203 448 203.1 448.1C203.3 448.3 203.5 448.3 203.9 448.3C204.2 448.3 204.4 448.2 204.5 448.1C204.6 448 204.7 447.9 204.7 447.7C204.7 447.6 204.6 447.5 204.5 447.4C204.4 447.3 204.1 447.3 203.7 447.2C203.3 447.1 203 447.1 202.8 447C202.6 447 202.5 446.9 202.3 446.9C202.1 446.8 202 446.7 201.9 446.5C201.8 446.3 201.7 446.2 201.7 446C201.7 445.6 201.9 445.2 202.3 445C202.6 444.8 203.1 444.7 203.7 444.7C204.5 444.7 205 444.8 205.4 445.2C205.6 445.2 205.7 445.5 205.7 445.8Z"
    fill="#020203"/>
<path
    d="M209.1 444.4V445.2H208.2L208.3 447.2C208.3 447.4 208.3 447.6 208.4 447.6C208.5 447.7 208.6 447.7 208.9 447.7C209 447.7 209.1 447.7 209.3 447.7V448.6C209 448.6 208.8 448.7 208.5 448.7C208.1 448.7 207.9 448.7 207.7 448.6C207.4 448.5 207.2 448.3 207.1 448C207.1 447.9 207 447.6 207 447.2L206.9 445.3H206.1V444.5H206.9V443.5L208.1 443.4V444.4H209.1Z"
    fill="#020203"/>
<path
    d="M214 447.1C213.9 447.3 213.8 447.6 213.7 447.8C213.3 448.3 212.7 448.6 212 448.6C211.3 448.6 210.7 448.5 210.3 448.1C210.1 447.9 209.9 447.7 209.8 447.4C209.7 447.1 209.6 446.8 209.6 446.5C209.6 445.9 209.7 445.4 210.1 444.9C210.5 444.4 211.1 444.2 211.8 444.1C212.4 444.1 212.8 444.2 213.2 444.5C213.5 444.7 213.7 445 213.8 445.3C213.9 445.6 214 446 214 446.5L210.8 446.6C210.8 446.8 210.9 447 210.9 447.1C211.1 447.5 211.4 447.6 211.9 447.6C212.1 447.6 212.3 447.5 212.5 447.4C212.6 447.3 212.8 447.2 212.8 446.9L214 447.1ZM212.8 445.9C212.8 445.7 212.7 445.5 212.6 445.4C212.5 445.3 212.4 445.2 212.2 445.1C212.1 445 211.9 445 211.7 445C211.4 445 211.2 445.1 211 445.3C210.8 445.5 210.7 445.7 210.7 446L212.8 445.9Z"
    fill="#020203"/>
<path
    d="M217.1 444.1V444.9H216.2L216.3 446.9C216.3 447.1 216.3 447.3 216.4 447.3C216.5 447.4 216.6 447.4 216.9 447.4C217 447.4 217.1 447.4 217.3 447.4V448.3C217 448.3 216.8 448.4 216.5 448.4C216.1 448.4 215.9 448.4 215.7 448.3C215.4 448.2 215.2 448 215.1 447.7C215.1 447.6 215 447.3 215 446.9L214.9 445H214.1V444.2H214.9V443.2L216.1 443.1V444.1H217.1Z"
    fill="#020203"/>
<path
    d="M220.4 443.9V444.7H219.5L219.6 446.7C219.6 446.9 219.6 447.1 219.7 447.1C219.8 447.2 219.9 447.2 220.2 447.2C220.3 447.2 220.4 447.2 220.6 447.2V448.1C220.3 448.1 220.1 448.2 219.8 448.2C219.4 448.2 219.2 448.2 219 448.1C218.7 448 218.5 447.8 218.4 447.5C218.4 447.4 218.3 447.1 218.3 446.7L218.2 444.8H217.4V444H218.2V443L219.4 442.9V443.9H220.4Z"
    fill="#020203"/>
<path
    d="M225.3 446.6C225.2 446.8 225.1 447.1 225 447.3C224.6 447.8 224 448.1 223.3 448.1C222.6 448.1 222.1 448 221.6 447.6C221.4 447.4 221.2 447.2 221.1 446.9C221 446.6 220.9 446.3 220.9 446C220.9 445.4 221 444.9 221.4 444.5C221.8 444 222.4 443.8 223 443.7C223.6 443.7 224 443.8 224.4 444.1C224.7 444.3 224.9 444.6 225 444.9C225.1 445.2 225.2 445.6 225.2 446.1L222 446.2C222 446.4 222.1 446.6 222.1 446.7C222.3 447.1 222.6 447.2 223.1 447.2C223.3 447.2 223.5 447.1 223.7 447C223.8 446.9 224 446.8 224 446.5L225.3 446.6ZM224.1 445.4C224.1 445.2 224 445 223.9 444.9C223.8 444.8 223.7 444.7 223.6 444.6C223.5 444.5 223.3 444.5 223.1 444.5C222.8 444.5 222.6 444.6 222.4 444.8C222.2 445 222.1 445.2 222.1 445.5L224.1 445.4Z"
    fill="#020203"/>
<path
    d="M227.1 443.6V444.2C227.2 444 227.4 443.9 227.5 443.8C227.8 443.6 228.2 443.5 228.6 443.4C229 443.4 229.3 443.5 229.6 443.6C229.8 443.7 230 443.9 230.1 444.1C230.2 444.3 230.2 444.6 230.3 445L230.4 447.6L229.2 447.7L229.1 445.3C229.1 445 229.1 444.8 229 444.7C228.9 444.6 228.9 444.5 228.7 444.5C228.6 444.4 228.4 444.4 228.2 444.4C228 444.4 227.8 444.5 227.7 444.5C227.6 444.6 227.4 444.7 227.4 444.8C227.3 445 227.3 445.2 227.3 445.5L227.4 447.6L226.2 447.7L226 443.6H227.1Z"
    fill="#020203"/>
<path d="M495.4 503.3L70.8 534V534.6L495.5 503.8L495.4 503.3Z" fill="#E5E5E4"/>
<path d="M419 507.5L409.4 508.2L409.2 502.5L418.7 501.8L419 507.5Z" fill="#E5E5E4"/>
<path d="M450.6 505.3L441.2 505.9L441 500.3L450.3 499.6L450.6 505.3Z" fill="#E5E5E4"/>
<path d="M90.1 530.5L78 531.3L77.7 524.9L89.8 524L90.1 530.5Z" fill="#E5E5E4"/>
<path d="M145.7 527.1L102.9 530.2L102.7 523.8L145.5 520.8L145.7 527.1Z" fill="#E5E5E4"/>
<path
    d="M181.483 534.754L183.873 534.656C184.318 534.638 184.701 534.673 185.02 534.763C185.342 534.852 185.629 535.003 185.881 535.214C186.494 535.729 186.82 536.465 186.859 537.422C186.9 538.436 186.653 539.23 186.118 539.806C185.882 540.061 185.613 540.248 185.31 540.366C185.007 540.481 184.618 540.548 184.144 540.567L181.725 540.666L181.483 534.754ZM182.818 535.793L182.971 539.522L183.965 539.481C184.27 539.468 184.512 539.429 184.69 539.362C184.868 539.293 185.021 539.182 185.15 539.031C185.449 538.679 185.585 538.175 185.558 537.52C185.534 536.916 185.369 536.465 185.065 536.167C184.764 535.868 184.331 535.731 183.764 535.754L182.818 535.793ZM188.714 534.458L188.757 535.513L187.585 535.561L187.541 534.506L188.714 534.458ZM188.776 535.962L188.956 540.37L187.783 540.418L187.603 536.01L188.776 535.962ZM193.822 538.794C193.77 539.045 193.667 539.283 193.515 539.508C193.148 540.055 192.601 540.343 191.873 540.373C191.215 540.4 190.679 540.214 190.266 539.815C190.064 539.62 189.905 539.382 189.791 539.101C189.668 538.801 189.6 538.485 189.586 538.153C189.56 537.511 189.723 536.965 190.074 536.513C190.467 536.008 190.991 535.742 191.646 535.715C192.174 535.694 192.631 535.838 193.017 536.149C193.293 536.373 193.499 536.655 193.635 536.995C193.77 537.333 193.848 537.761 193.87 538.282L190.792 538.408C190.812 538.623 190.853 538.801 190.915 538.941C191.09 539.32 191.4 539.501 191.845 539.483C192.063 539.474 192.239 539.419 192.373 539.319C192.506 539.217 192.613 539.057 192.693 538.84L193.822 538.794ZM192.64 537.542C192.61 537.33 192.554 537.155 192.473 537.018C192.392 536.884 192.28 536.779 192.136 536.704C191.995 536.629 191.843 536.594 191.678 536.601C191.417 536.612 191.204 536.708 191.042 536.89C190.879 537.073 190.788 537.315 190.768 537.619L192.64 537.542ZM196.762 535.619L196.796 536.449L195.919 536.484L196.004 538.559C196.014 538.807 196.043 538.964 196.092 539.029C196.163 539.124 196.316 539.166 196.551 539.157C196.642 539.153 196.761 539.141 196.906 539.122L196.944 540.06C196.681 540.1 196.439 540.125 196.218 540.134C195.884 540.148 195.627 540.121 195.449 540.052C195.172 539.942 194.993 539.728 194.912 539.41C194.877 539.274 194.85 538.99 194.833 538.558L194.75 536.532L194.034 536.562L194 535.732L194.716 535.703L194.674 534.668L195.842 534.62L195.885 535.655L196.762 535.619ZM198.558 534.055L198.601 535.111L197.428 535.159L197.385 534.103L198.558 534.055ZM198.619 535.56L198.8 539.968L197.627 540.016L197.447 535.608L198.619 535.56ZM203.715 535.343L202.168 537.039L204.081 539.752L202.658 539.81L201.397 537.905L200.934 538.382L200.996 539.878L199.823 539.926L199.581 534.013L200.754 533.965L200.879 537.035L202.319 535.4L203.715 535.343ZM206.205 535.12C206.847 535.094 207.38 535.285 207.804 535.694C208.223 536.099 208.447 536.651 208.476 537.352C208.505 538.077 208.315 538.665 207.904 539.113C207.518 539.532 207.003 539.754 206.359 539.78C205.672 539.808 205.115 539.607 204.69 539.176C204.284 538.766 204.067 538.221 204.04 537.542C204.012 536.873 204.179 536.322 204.539 535.889C204.938 535.405 205.493 535.149 206.205 535.12ZM206.182 536.036C205.872 536.049 205.63 536.184 205.457 536.443C205.281 536.704 205.202 537.054 205.22 537.493C205.239 537.949 205.345 538.294 205.538 538.53C205.737 538.767 206 538.879 206.326 538.866C206.63 538.854 206.867 538.732 207.036 538.501C207.228 538.244 207.314 537.88 207.295 537.409C207.277 536.966 207.174 536.626 206.986 536.388C206.789 536.14 206.521 536.022 206.182 536.036ZM210.271 535.087L210.296 535.706C210.426 535.512 210.548 535.368 210.663 535.274C210.945 535.035 211.291 534.908 211.701 534.891C212.062 534.876 212.372 534.955 212.63 535.128C212.836 535.266 212.982 535.445 213.069 535.665C213.159 535.883 213.212 536.194 213.229 536.599L213.342 539.373L212.174 539.421L212.07 536.893C212.059 536.61 212.026 536.404 211.972 536.273C211.921 536.159 211.84 536.071 211.726 536.008C211.597 535.94 211.451 535.91 211.289 535.917C211.111 535.924 210.951 535.974 210.809 536.066C210.667 536.158 210.564 536.28 210.5 536.431C210.429 536.601 210.4 536.863 210.415 537.216L210.508 539.489L209.335 539.537L209.155 535.133L210.271 535.087Z"
    fill="#020203"/>
<path d="M159.1 573.5H159.8L151.9 380.3L151.2 380.4L159.1 573.5Z" fill="#020203"/>
<path
    d="M487.4 284.9L58.1 280C43.4 279.8 31.8 289.3 32.3 301.2L43.7 579.7C44.2 591.6 56.5 600.1 71.2 598.7L498.7 558.7C509.4 557.7 517.7 548.8 517.3 538.7L507.7 303.3C507.2 293.3 498.2 285.1 487.4 284.9ZM504.1 537.2C504.3 542.6 499.8 547.4 494.1 547.9L77.6 585C69.8 585.7 63.2 581.1 63 574.8L51.9 304C51.6 297.7 57.8 292.6 65.6 292.6L483.7 295.7C489.5 295.7 494.4 300.2 494.6 305.6L504.1 537.2Z"
    fill="#3D4145"/>
<path
    d="M660 565.7H555.1C552.5 565.7 550.5 563.6 550.5 561.1V552.5C550.5 549.9 552.6 547.9 555.1 547.9H660C662.6 547.9 664.6 550 664.6 552.5V561.1C664.6 563.6 662.6 565.7 660 565.7Z"
    fill="#5B5D60"/>
<path
    d="M606.7 680.9H578.5C574.2 680.9 571.4 677.4 572.2 673L586.5 590.1C587.3 585.7 591.3 582.2 595.6 582.2H623.8C628.1 582.2 630.9 585.7 630.1 590.1L615.8 673C615 677.4 611 680.9 606.7 680.9Z"
    fill="#CECCCA"/>
<path
    d="M586.2 649.6L601.4 563.6C601.9 561 604.3 559 606.8 559H615.4C618 559 619.7 561.1 619.2 563.6L604 649.6C603.5 652.2 601.1 654.2 598.6 654.2H590C587.5 654.2 585.8 652.2 586.2 649.6Z"
    fill="#5B5D60"/>
</g>
<defs>
<clipPath id="clip0_16675_27871">
<rect width="1133" height="744" fill="white" transform="translate(0 -42)"/>
</clipPath>
</defs>
</svg>
