<svg width="36" height="24" viewBox="0 0 36 24" fill="none" xmlns="http://www.w3.org/2000/svg">
<rect x="0.5" y="0.5" width="35" height="23" stroke="white"/>
<path
    d="M9.16895 7.86133H12.3818C13.0719 7.86133 13.5863 7.94759 13.9248 8.12012C14.2438 8.28288 14.4847 8.51888 14.6475 8.82812C14.7842 9.08854 14.8525 9.36523 14.8525 9.6582C14.8525 9.98372 14.7695 10.2734 14.6035 10.5273C14.4375 10.7812 14.1966 10.9814 13.8809 11.1279C14.1543 11.2191 14.3594 11.3151 14.4961 11.416C14.9583 11.7546 15.1895 12.2477 15.1895 12.8955C15.1895 13.2796 15.1032 13.6247 14.9307 13.9307C14.7614 14.2367 14.5173 14.4824 14.1982 14.668C13.8206 14.8893 13.3112 15 12.6699 15H9.16895V7.86133ZM10.7266 9.08691V10.752H12.1523C12.4844 10.752 12.7285 10.7129 12.8848 10.6348C13.1745 10.4948 13.3193 10.2539 13.3193 9.91211C13.3193 9.6224 13.2282 9.41243 13.0459 9.28223C12.8636 9.15202 12.5658 9.08691 12.1523 9.08691H10.7266ZM10.7266 11.8164V13.7744H12.3037C12.7562 13.7744 13.0736 13.7109 13.2559 13.584C13.4967 13.4115 13.6172 13.1494 13.6172 12.7979C13.6172 12.3779 13.4544 12.0915 13.1289 11.9385C12.9499 11.8571 12.6488 11.8164 12.2256 11.8164H10.7266ZM17.5039 7.86133V10.4004C17.6602 10.1204 17.8815 9.90234 18.168 9.74609C18.4577 9.58659 18.7767 9.50684 19.125 9.50684C19.8379 9.50684 20.349 9.75911 20.6582 10.2637C20.8372 10.5566 20.9268 11.0059 20.9268 11.6113V15H19.5156V11.8652C19.5156 11.4746 19.4619 11.2044 19.3545 11.0547C19.195 10.8333 18.946 10.7227 18.6074 10.7227C18.1615 10.7227 17.8424 10.918 17.6504 11.3086C17.5918 11.429 17.5527 11.5609 17.5332 11.7041C17.5137 11.8473 17.5039 12.0768 17.5039 12.3926V15H16.0879V7.86133H17.5039ZM24.8086 7.86621V8.95508C24.6328 8.9388 24.4701 8.93066 24.3203 8.93066C24.0729 8.93066 23.9069 8.96647 23.8223 9.03809C23.7376 9.1097 23.6953 9.2513 23.6953 9.46289V9.66797H24.7256V10.6738H23.71V15H22.2988V10.6738H21.4541V9.66797H22.2988C22.2988 9.29036 22.3216 9.01693 22.3672 8.84766C22.5462 8.17057 23.1126 7.83203 24.0664 7.83203C24.2194 7.83203 24.4668 7.84342 24.8086 7.86621ZM26.8301 13.4131V15H25.209V13.4131H26.8301Z"
    fill="white"/>
</svg>
