<svg xmlns="http://www.w3.org/2000/svg" xmlns:xlink="http://www.w3.org/1999/xlink" contentStyleType="text/css" height="324px" preserveAspectRatio="none" style="width:314px;height:324px;background:#FFFFFF;" version="1.1" viewBox="0 0 314 324" width="314px" zoomAndPan="magnify"><defs/><g><!--cluster DAS--><g id="cluster_DAS"><rect fill="none" height="220.97" rx="2.5" ry="2.5" style="stroke:#181818;stroke-width:1.0;" width="301" x="7" y="7"/><path d="M46.4082,7 L46.4082,16.4883 L36.4082,26.4883 L7,26.4883 " fill="none" style="stroke:#181818;stroke-width:1.0;"/><text fill="#000000" font-family="sans-serif" font-size="14" font-weight="bold" lengthAdjust="spacing" textLength="29.4082" x="10" y="21.5352">DAS</text></g><!--entity admin-app--><g id="elem_admin-app"><polygon fill="#F1F1F1" points="23.1,52,33.1,42,138.9037,42,138.9037,78.4883,128.9037,88.4883,23.1,88.4883,23.1,52" style="stroke:#181818;stroke-width:0.5;"/><line style="stroke:#181818;stroke-width:0.5;" x1="128.9037" x2="138.9037" y1="52" y2="42"/><line style="stroke:#181818;stroke-width:0.5;" x1="23.1" x2="128.9037" y1="52" y2="52"/><line style="stroke:#181818;stroke-width:0.5;" x1="128.9037" x2="128.9037" y1="52" y2="88.4883"/><text fill="#000000" font-family="sans-serif" font-size="14" lengthAdjust="spacing" textLength="75.8037" x="38.1" y="75.5352">admin-app</text></g><!--entity sfera-mock--><g id="elem_sfera-mock"><polygon fill="#F1F1F1" points="173.67,52,183.67,42,292.338,42,292.338,78.4883,282.338,88.4883,173.67,88.4883,173.67,52" style="stroke:#181818;stroke-width:0.5;"/><line style="stroke:#181818;stroke-width:0.5;" x1="282.338" x2="292.338" y1="52" y2="42"/><line style="stroke:#181818;stroke-width:0.5;" x1="173.67" x2="282.338" y1="52" y2="52"/><line style="stroke:#181818;stroke-width:0.5;" x1="282.338" x2="282.338" y1="52" y2="88.4883"/><text fill="#000000" font-family="sans-serif" font-size="14" lengthAdjust="spacing" textLength="78.668" x="188.67" y="75.5352">sfera-mock</text></g><!--entity mobile-app--><g id="elem_mobile-app"><polygon fill="#F1F1F1" points="169.08,175.48,179.08,165.48,288.9101,165.48,288.9101,201.9683,278.9101,211.9683,169.08,211.9683,169.08,175.48" style="stroke:#181818;stroke-width:0.5;"/><line style="stroke:#181818;stroke-width:0.5;" x1="278.9101" x2="288.9101" y1="175.48" y2="165.48"/><line style="stroke:#181818;stroke-width:0.5;" x1="169.08" x2="278.9101" y1="175.48" y2="175.48"/><line style="stroke:#181818;stroke-width:0.5;" x1="278.9101" x2="278.9101" y1="175.48" y2="211.9683"/><text fill="#000000" font-family="sans-serif" font-size="14" lengthAdjust="spacing" textLength="79.8301" x="184.08" y="199.0152">mobile-app</text></g><!--entity backend--><g id="elem_backend"><polygon fill="#F1F1F1" points="36.4,175.48,46.4,165.48,133.5963,165.48,133.5963,201.9683,123.5963,211.9683,36.4,211.9683,36.4,175.48" style="stroke:#181818;stroke-width:0.5;"/><line style="stroke:#181818;stroke-width:0.5;" x1="123.5963" x2="133.5963" y1="175.48" y2="165.48"/><line style="stroke:#181818;stroke-width:0.5;" x1="36.4" x2="123.5963" y1="175.48" y2="175.48"/><line style="stroke:#181818;stroke-width:0.5;" x1="123.5963" x2="123.5963" y1="175.48" y2="211.9683"/><text fill="#000000" font-family="sans-serif" font-size="14" lengthAdjust="spacing" textLength="57.1963" x="51.4" y="199.0152">backend</text></g><!--entity IM DAS-TS--><g id="elem_IM DAS-TS"><path d="M115.65,290.97 L198.3502,290.97 C203.3502,290.97 203.3502,304.2141 203.3502,304.2141 C203.3502,304.2141 203.3502,317.4583 198.3502,317.4583 L115.65,317.4583 C110.65,317.4583 110.65,304.2141 110.65,304.2141 C110.65,304.2141 110.65,290.97 115.65,290.97 " fill="#F1F1F1" style="stroke:#181818;stroke-width:0.5;"/><path d="M198.3502,290.97 C193.3502,290.97 193.3502,304.2141 193.3502,304.2141 C193.3502,317.4583 198.3502,317.4583 198.3502,317.4583 " fill="none" style="stroke:#181818;stroke-width:0.5;"/><text fill="#000000" font-family="sans-serif" font-size="14" lengthAdjust="spacing" textLength="72.7002" x="115.65" y="309.5052">IM DAS-TS</text></g><!--link mobile-app to IM DAS-TS--><g id="link_mobile-app_IM DAS-TS"><path d="M211.3858,217.4865 C196.4458,241.0365 180.0643,266.8536 168.1243,285.6736 " fill="none" id="mobile-app-IM DAS-TS" style="stroke:#181818;stroke-width:1.0;"/><polygon fill="#181818" points="214.6,212.42,206.4011,217.877,211.9215,216.6421,213.1564,222.1625,214.6,212.42" style="stroke:#181818;stroke-width:1.0;"/><polygon fill="#181818" points="164.91,290.74,173.109,285.2833,167.5886,286.518,166.3538,280.9975,164.91,290.74" style="stroke:#181818;stroke-width:1.0;"/><text fill="#000000" font-family="sans-serif" font-size="13" lengthAdjust="spacing" textLength="38.2065" x="194" y="257.5384">SFERA</text></g><!--reverse link backend to IM DAS-TS--><g id="link_backend_IM DAS-TS"><path d="M102.6142,217.4865 C117.5542,241.0365 137.15,271.92 149.09,290.74 " fill="none" id="backend-backto-IM DAS-TS" style="stroke:#181818;stroke-width:1.0;"/><polygon fill="#181818" points="99.4,212.42,100.8436,222.1625,102.0785,216.6421,107.5989,217.877,99.4,212.42" style="stroke:#181818;stroke-width:1.0;"/><text fill="#000000" font-family="sans-serif" font-size="13" lengthAdjust="spacing" textLength="38.2065" x="130.57" y="257.5384">SFERA</text></g><!--link sfera-mock to mobile-app--><g id="link_sfera-mock_mobile-app"><path d="M232.0621,94.8067 C231.3421,116.6267 230.6582,137.5033 229.9382,159.2833 " fill="none" id="sfera-mock-mobile-app" style="stroke:#181818;stroke-width:1.0;"/><polygon fill="#181818" points="232.26,88.81,227.9654,97.6732,232.0951,93.8073,235.961,97.937,232.26,88.81" style="stroke:#181818;stroke-width:1.0;"/><polygon fill="#181818" points="229.74,165.28,234.0352,156.4171,229.9052,160.2827,226.0395,156.1528,229.74,165.28" style="stroke:#181818;stroke-width:1.0;"/><text fill="#000000" font-family="sans-serif" font-size="13" lengthAdjust="spacing" textLength="38.2065" x="232.24" y="132.0484">SFERA</text></g><!--link backend to mobile-app--><g id="link_backend_mobile-app"><path d="M139.94,188.73 C151.57,188.73 151.21,188.73 162.84,188.73 " fill="none" id="backend-mobile-app" style="stroke:#181818;stroke-width:1.0;"/><polygon fill="#181818" points="133.94,188.73,142.94,192.73,138.94,188.73,142.94,184.73,133.94,188.73" style="stroke:#181818;stroke-width:1.0;"/><polygon fill="#181818" points="168.84,188.73,159.84,184.73,163.84,188.73,159.84,192.73,168.84,188.73" style="stroke:#181818;stroke-width:1.0;"/></g><!--link admin-app to backend--><g id="link_admin-app_backend"><path d="M81.9379,94.8067 C82.6579,116.6267 83.3418,137.5033 84.0618,159.2833 " fill="none" id="admin-app-backend" style="stroke:#181818;stroke-width:1.0;"/><polygon fill="#181818" points="81.74,88.81,78.039,97.937,81.9049,93.8073,86.0346,97.6732,81.74,88.81" style="stroke:#181818;stroke-width:1.0;"/><polygon fill="#181818" points="84.26,165.28,87.9605,156.1528,84.0948,160.2827,79.9648,156.4171,84.26,165.28" style="stroke:#181818;stroke-width:1.0;"/></g><!--SRC=[AonDBKrLKFBqLN1n3DOD2LRYuaehIinD1N4LghdoybE0ieafkPbvkea51KfGWUAqrA94tTpyv6oOI6v-KcPEAhAQfCJaxDIy52MkMYukhcY4VAoDRaf-UPwkNJJSqbW5AuLWDzSWHwveg2wW8bsiyWYRGKhiaCt5PWYA0gvek4SWcc7gk000]--></g></svg>