<svg width="108" height="108" viewBox="0 0 108 108" fill="none" xmlns="http://www.w3.org/2000/svg">
<path d="M57.1679 54.4996L54.4996 51.9996H56.4996L59.8329 55.3329L56.4996 58.6663H54.4996L57.1679 56.1663H53.9996V58.6663H52.3329V56.1663H49.1663L51.8329 58.6663H49.8329L46.4996 55.3329L49.8329 51.9996H51.8329L49.1663 54.4996H52.3329V51.9996H53.9996V54.4996H57.1679Z" fill="white"/>
<path fill-rule="evenodd" clip-rule="evenodd" d="M64 57.8337V47.8337C64 47.3549 63.7082 47.0294 63.4899 46.8515C63.2614 46.6653 62.9751 46.523 62.6862 46.4092C62.1001 46.1782 61.3013 45.9872 60.3742 45.8328C58.5067 45.5217 55.9587 45.3337 53.1667 45.3337C50.3746 45.3337 47.8266 45.5217 45.9591 45.8328C45.0321 45.9872 44.2332 46.1782 43.6472 46.4092C43.3583 46.523 43.072 46.6653 42.8435 46.8515C42.6252 47.0294 42.3333 47.3549 42.3333 47.8337V57.8337C42.3333 58.6587 42.836 59.3119 43.437 59.7854C43.8859 60.1391 44.4544 60.4472 45.103 60.712C45.5572 61.8544 46.6067 62.7568 47.8686 63.3776C49.312 64.0878 51.1641 64.5009 53.1667 64.5009C55.1692 64.5009 57.0213 64.0878 58.4646 63.3776C59.7258 62.757 60.775 61.8548 61.2286 60.7126C61.878 60.4478 62.4471 60.1394 62.8964 59.7854C63.4973 59.3119 64 58.6587 64 57.8337ZM46.2331 48.1901C45.5724 48.08 45.0332 47.9581 44.625 47.8334C45.0331 47.7086 45.5723 47.5868 46.233 47.4768C47.9851 47.1849 50.4371 47.0004 53.1667 47.0004C55.8963 47.0004 58.3483 47.1849 60.1004 47.4768C60.761 47.5868 61.3002 47.7086 61.7084 47.8334C61.3002 47.9581 60.7609 48.08 60.1003 48.1901C58.3482 48.4821 55.8962 48.6671 53.1667 48.6671C50.4372 48.6671 47.9852 48.4821 46.2331 48.1901ZM60.3743 49.8341C61.127 49.7086 61.795 49.5591 62.3333 49.3837V57.8337C62.3333 57.9288 62.2762 58.1522 61.8649 58.4762C61.4632 58.7928 60.8301 59.1143 59.9738 59.3998C58.2697 59.9679 55.8628 60.3337 53.1667 60.3337C50.4706 60.3337 48.0637 59.9679 46.3596 59.3998C45.5032 59.1143 44.8702 58.7928 44.4684 58.4762C44.0571 58.1522 44 57.9288 44 57.8337V49.3837C44.5383 49.5591 45.2064 49.7086 45.959 49.8341C47.8265 50.1453 50.3745 50.3337 53.1667 50.3337C55.9588 50.3337 58.5068 50.1453 60.3743 49.8341ZM48.6043 61.8821C48.3785 61.771 48.1721 61.6546 47.9847 61.5344C49.5235 61.8331 51.294 62.0004 53.1667 62.0004C55.0391 62.0004 56.8095 61.8332 58.3482 61.5345C58.1608 61.6547 57.9545 61.7711 57.7288 61.8822C56.5479 62.4632 54.9541 62.8342 53.1667 62.8342C51.3792 62.8342 49.7855 62.4632 48.6043 61.8821ZM62.4469 47.5149L62.4435 47.5181C62.4444 47.5173 62.4451 47.5167 62.4456 47.5162C62.4465 47.5153 62.4469 47.5149 62.4469 47.5149ZM43.8899 47.5181C43.8875 47.516 43.8864 47.5149 43.8865 47.5149L43.8899 47.5181Z" fill="white"/>
<path d="M43.1648 68.7702L43.9917 68.6666C43.1648 68.7702 43.1648 68.77 43.1648 68.7702L43.1651 68.7724L43.1656 68.776L43.167 68.7874L43.1723 68.8259C43.1769 68.8585 43.1837 68.9046 43.193 68.963C43.2115 69.0796 43.2399 69.2453 43.2804 69.4487C43.3614 69.8546 43.4918 70.4158 43.6905 71.04C44.0796 72.2619 44.766 73.8408 45.9553 74.919C48.2592 77.0054 50.267 78.6116 53.1667 78.6116C56.0663 78.6116 58.0753 77.0059 60.378 74.9191C61.5673 73.8409 62.2538 72.2619 62.6428 71.04C62.8416 70.4158 62.972 69.8546 63.0529 69.4487C63.0935 69.2453 63.1219 69.0796 63.1404 68.963C63.1496 68.9046 63.1564 68.8585 63.161 68.8259L63.1663 68.7874L63.1678 68.776L63.1683 68.7724L63.1685 68.7706C63.1685 68.7704 63.1685 68.7702 62.3548 68.6682L63.1685 68.7706L63.1701 68.7567L63.9951 61.1734L62.3382 60.9931L61.5142 68.5676L61.5107 68.593C61.5074 68.6167 61.502 68.6535 61.4943 68.702C61.4789 68.7992 61.4543 68.9431 61.4184 69.1227C61.3466 69.483 61.2305 69.9822 61.0547 70.5344C60.6946 71.6654 60.1193 72.904 59.2587 73.6842C56.938 75.7873 55.3604 76.9449 53.1667 76.9449C50.9731 76.9449 49.3973 75.7876 47.0747 73.6842C46.2141 72.904 45.6388 71.6654 45.2786 70.5344C45.1028 69.9822 44.9868 69.483 44.9149 69.1227C44.8791 68.9431 44.8545 68.7992 44.8391 68.702C44.8314 68.6535 44.826 68.6167 44.8227 68.593L44.8192 68.5677L43.9951 60.9931L42.3382 61.1734L43.1632 68.7567L43.1648 68.7702Z" fill="white"/>
<path d="M53.1667 71.9996C52.166 71.9996 51.2666 71.6477 50.5969 71.2726C50.2656 71.087 50.0012 70.9016 49.8219 70.7646C49.7326 70.6963 49.6652 70.6406 49.6222 70.6039C49.6006 70.5855 49.5852 70.5719 49.5763 70.5639L49.5686 70.5571C49.5688 70.5572 49.569 70.5574 49 71.1662C48.431 71.7751 48.4312 71.7753 48.4314 71.7755L48.4329 71.7769L48.4355 71.7793L48.4427 71.7859L48.465 71.806C48.4833 71.8224 48.5085 71.8446 48.5404 71.8718C48.6042 71.9262 48.6948 72.0008 48.8098 72.0887C49.0394 72.2642 49.3698 72.4955 49.7823 72.7266C50.6001 73.1847 51.784 73.6662 53.1667 73.6662C54.5493 73.6662 55.7333 73.1847 56.5511 72.7266C56.9635 72.4955 57.2939 72.2642 57.5235 72.0887C57.6386 72.0008 57.7292 71.9262 57.7929 71.8718C57.8248 71.8446 57.8501 71.8224 57.8684 71.806L57.8907 71.7859L57.8978 71.7793L57.9004 71.7769L57.9019 71.7755C57.9021 71.7753 57.9023 71.7751 57.3333 71.1662C56.7643 70.5574 56.7645 70.5572 56.7647 70.5571L56.7571 70.5639C56.7481 70.5719 56.7327 70.5855 56.7112 70.6039C56.6681 70.6406 56.6008 70.6963 56.5114 70.7646C56.3321 70.9016 56.0677 71.087 55.7365 71.2726C55.0668 71.6477 54.1674 71.9996 53.1667 71.9996Z" fill="white"/>
<path d="M51.0003 67.3332C51.0003 66.6665 50.5003 65.9998 49.667 65.9998C48.8337 65.9998 48.3337 66.4998 48.3337 67.3332C48.3337 67.9998 48.8337 68.6665 49.667 68.6665C50.5003 68.6665 51.0003 68.1665 51.0003 67.3332Z" fill="white"/>
<path d="M57.667 67.3332C57.667 66.6665 57.167 65.9998 56.3337 65.9998C55.5003 65.9998 55.0003 66.4998 55.0003 67.3332C55.0003 67.9998 55.5003 68.6665 56.3337 68.6665C57.167 68.6665 57.667 68.1665 57.667 67.3332Z" fill="white"/>
<rect width="108" height="40" fill="#EB0000"/>
<path fill-rule="evenodd" clip-rule="evenodd" d="M47.9901 35.4615H51.4863L46.7816 30.6731H52.6207V35.4615H55.3802V30.6731H61.2197L56.5137 35.4615H60.0102L66 29.2405L60.0102 23H56.5137L61.2197 27.8079H55.3802V23H52.6207V27.8079H46.7816L51.4863 23H47.9901L42 29.2405L47.9901 35.4615Z" fill="white"/>
<path fill-rule="evenodd" clip-rule="evenodd" d="M0 0L67 0L0 67L0 0Z" fill="black"/>
<path d="M22.6723 28.9314L23.5079 29.7669L22.847 30.4278L22.0115 29.5922L22.6723 28.9314ZM24.0776 30.3366L28.2249 34.484L27.5641 35.1448L23.4167 30.9975L24.0776 30.3366Z" fill="white"/>
<path d="M25.7297 28.6997L26.3639 29.334C26.3082 29.0352 26.2867 28.7934 26.2993 28.6086C26.3399 28.0769 26.5728 27.5983 26.9982 27.173C27.3628 26.8083 27.759 26.6045 28.1869 26.5615C28.4832 26.5336 28.7553 26.583 29.0035 26.7096C29.2516 26.8362 29.5554 27.0793 29.915 27.4388L32.5925 30.1164L31.9317 30.7772L29.4972 28.3427C29.2212 28.0667 29.0136 27.8768 28.8743 27.773C28.7351 27.6692 28.5946 27.6021 28.4528 27.5717C28.0806 27.4882 27.721 27.6198 27.3742 27.9667C27.0374 28.3035 26.8792 28.6921 26.8994 29.1327C26.9095 29.3859 26.988 29.634 27.1349 29.8771C27.2817 30.1151 27.5438 30.4227 27.9211 30.8L29.915 32.7939L29.2541 33.4547L25.1144 29.315L25.7297 28.6997Z" fill="white"/>
<path d="M31.1531 23.2535L31.7228 23.8232L30.9214 24.6245L33.3673 27.0704C33.623 27.3261 33.8041 27.4667 33.9104 27.492C34.0598 27.53 34.2383 27.4451 34.4459 27.2375C34.5573 27.1261 34.6611 26.9995 34.7573 26.8577L35.3384 27.4388C35.189 27.6338 35.0295 27.8161 34.8599 27.9857C34.4168 28.4288 34.0117 28.5934 33.6446 28.4794C33.518 28.4389 33.4002 28.3718 33.2913 28.2782C33.1799 28.1819 32.8546 27.8692 32.3153 27.3401L30.2606 25.2854L29.5846 25.9614L29.0149 25.3917L29.6909 24.7157L28.7376 23.7624L29.3985 23.1016L30.3517 24.0548L31.1531 23.2535Z" fill="white"/>
</svg>
