<svg width="51" height="26" viewBox="0 0 51 26" fill="none" xmlns="http://www.w3.org/2000/svg">
<rect x="0.5" y="0.5" width="50" height="25" stroke="white"/>
<rect x="2.5" y="2.5" width="46" height="21" stroke="white"/>
<path d="M7.90039 5.43066V5.82129L5.67139 8.58984H7.9541V9H5.10498V8.60205L7.3291 5.84082H5.28076V5.43066H7.90039ZM10.5249 6.33398V9H10.1294V8.58252C9.91618 8.91292 9.6167 9.07812 9.23096 9.07812C8.92497 9.07812 8.69466 8.98128 8.54004 8.7876C8.42611 8.64111 8.36914 8.39941 8.36914 8.0625V6.33398H8.79395V7.90137C8.79395 8.19434 8.82161 8.38721 8.87695 8.47998C8.96647 8.62809 9.12516 8.70215 9.35303 8.70215C9.64437 8.70215 9.85921 8.57113 9.99756 8.30908C10.0659 8.1805 10.1001 7.95101 10.1001 7.62061V6.33398H10.5249ZM13.3984 6.33398V8.729C13.3984 8.9471 13.3854 9.12207 13.3594 9.25391C13.3333 9.38574 13.2878 9.50781 13.2227 9.62012C13.1169 9.80078 12.959 9.9318 12.749 10.0132C12.5814 10.0767 12.3975 10.1084 12.1973 10.1084C11.8392 10.1084 11.5625 10.0238 11.3672 9.85449C11.224 9.72917 11.1377 9.55094 11.1084 9.31982H11.5454C11.5975 9.61279 11.8197 9.75928 12.2119 9.75928C12.5114 9.75928 12.7197 9.6722 12.8369 9.49805C12.9264 9.36133 12.9728 9.15869 12.9761 8.89014L12.9785 8.53613C12.9232 8.63704 12.8711 8.71354 12.8223 8.76562C12.6562 8.94466 12.4316 9.03418 12.1484 9.03418C11.8099 9.03418 11.5373 8.90967 11.3306 8.66064C11.1239 8.41162 11.0205 8.08366 11.0205 7.67676C11.0205 7.24382 11.1304 6.89714 11.3501 6.63672C11.4526 6.51465 11.5763 6.42025 11.7212 6.35352C11.866 6.28678 12.0182 6.25342 12.1777 6.25342C12.3617 6.25342 12.5195 6.29167 12.6514 6.36816C12.7832 6.44303 12.9004 6.56266 13.0029 6.72705V6.33398H13.3984ZM12.1973 6.62939C11.9548 6.62939 11.7668 6.73193 11.6333 6.93701C11.5145 7.11768 11.4551 7.35449 11.4551 7.64746C11.4551 7.82812 11.4795 7.99089 11.5283 8.13574C11.5771 8.27897 11.6455 8.39128 11.7334 8.47266C11.8685 8.59635 12.0264 8.6582 12.207 8.6582C12.4626 8.6582 12.6587 8.54997 12.7954 8.3335C12.9126 8.14795 12.9712 7.90462 12.9712 7.60352C12.9712 7.43913 12.9476 7.28776 12.9004 7.14941C12.8548 7.01107 12.7905 6.9012 12.7075 6.81982C12.5773 6.69287 12.4072 6.62939 12.1973 6.62939Z" fill="white"/>
<path d="M7.87354 11.4307V11.8408H6.67236V15H6.20117V11.8408H5.00244V11.4307H7.87354ZM9.1333 12.2559V12.7222C9.07308 12.7173 9.02832 12.7148 8.99902 12.7148C8.77116 12.7148 8.58398 12.7922 8.4375 12.9468C8.34147 13.0477 8.27637 13.1689 8.24219 13.3105C8.20801 13.4521 8.19092 13.6727 8.19092 13.9722V15H7.76611V12.3389H8.16162V12.8857C8.34554 12.4528 8.66943 12.2428 9.1333 12.2559ZM11.7212 14.6411V14.9927C11.6203 15.0269 11.5202 15.0439 11.4209 15.0439C11.3053 15.0439 11.2158 15.009 11.1523 14.939C11.0889 14.869 11.0555 14.7697 11.0522 14.6411C10.8097 14.9325 10.4972 15.0781 10.1147 15.0781C9.87223 15.0781 9.67936 15.0179 9.53613 14.8975C9.37012 14.7575 9.28711 14.5662 9.28711 14.3237C9.28711 13.9738 9.44906 13.7321 9.77295 13.5986C9.85596 13.5645 9.9349 13.5409 10.0098 13.5278C10.0863 13.5132 10.2734 13.4871 10.5713 13.4497C10.7438 13.4269 10.8626 13.3911 10.9277 13.3423C10.9928 13.2918 11.0254 13.2104 11.0254 13.0981C11.0254 12.7873 10.8309 12.6318 10.4419 12.6318C10.2368 12.6318 10.0846 12.6742 9.98535 12.7588C9.88607 12.8434 9.82666 12.981 9.80713 13.1714H9.38965C9.39616 12.8833 9.49463 12.6587 9.68506 12.4976C9.87712 12.3364 10.14 12.2559 10.4736 12.2559C10.8398 12.2559 11.1092 12.3429 11.2817 12.5171C11.3468 12.5838 11.3924 12.6636 11.4185 12.7563C11.4445 12.8491 11.4575 12.9785 11.4575 13.1445C11.4575 13.3561 11.4526 13.7207 11.4429 14.2383L11.4404 14.4019C11.4404 14.4995 11.4526 14.5687 11.4771 14.6094C11.5031 14.6484 11.5462 14.668 11.6064 14.668C11.6406 14.668 11.6789 14.659 11.7212 14.6411ZM11.0327 13.6279C10.9725 13.6719 10.9074 13.7036 10.8374 13.7231C10.769 13.741 10.6437 13.7622 10.4614 13.7866C10.3084 13.8045 10.1986 13.8216 10.1318 13.8379C10.0651 13.8542 10.0016 13.8778 9.94141 13.9087C9.79655 13.9852 9.72412 14.1097 9.72412 14.2822C9.72412 14.4206 9.76969 14.5296 9.86084 14.6094C9.95361 14.6891 10.0798 14.729 10.2393 14.729C10.3825 14.729 10.5176 14.6965 10.6445 14.6313C10.7715 14.5662 10.8732 14.4775 10.9497 14.3652C11.005 14.2839 11.0327 14.1602 11.0327 13.9941V13.6279ZM12.5659 11.4307V11.9678H12.1411V11.4307H12.5659ZM12.5659 12.334V15H12.1411V12.334H12.5659ZM13.623 12.3389V12.7466C13.7012 12.6326 13.772 12.548 13.8354 12.4927C14.0194 12.3348 14.248 12.2559 14.5215 12.2559C14.7559 12.2559 14.9487 12.3177 15.1001 12.4414C15.2043 12.5277 15.2759 12.631 15.3149 12.7515C15.354 12.8719 15.3735 13.0477 15.3735 13.2788V15H14.9487V13.4351C14.9487 13.2576 14.943 13.1299 14.9316 13.0518C14.9202 12.9736 14.8966 12.9069 14.8608 12.8516C14.7681 12.7051 14.6102 12.6318 14.3872 12.6318C14.1707 12.6318 13.995 12.7059 13.8599 12.854C13.7817 12.9386 13.7272 13.0436 13.6963 13.1689C13.667 13.2926 13.6523 13.4757 13.6523 13.7183V15H13.2275V12.3389H13.623Z" fill="white"/>
<path d="M7.87354 17.4307V17.8408H6.67236V21H6.20117V17.8408H5.00244V17.4307H7.87354ZM9.1333 18.2559V18.7222C9.07308 18.7173 9.02832 18.7148 8.99902 18.7148C8.77116 18.7148 8.58398 18.7922 8.4375 18.9468C8.34147 19.0477 8.27637 19.1689 8.24219 19.3105C8.20801 19.4521 8.19092 19.6727 8.19092 19.9722V21H7.76611V18.3389H8.16162V18.8857C8.34554 18.4528 8.66943 18.2428 9.1333 18.2559ZM11.5942 20.1455C11.4591 20.7673 11.0815 21.0781 10.4614 21.0781C10.0431 21.0781 9.72656 20.9316 9.51172 20.6387C9.32943 20.3896 9.23828 20.0715 9.23828 19.6841C9.23828 19.2674 9.34977 18.9264 9.57275 18.6611C9.80225 18.391 10.0936 18.2559 10.4468 18.2559C10.7397 18.2559 10.9896 18.347 11.1963 18.5293C11.3477 18.6628 11.4567 18.828 11.5234 19.0249C11.5918 19.2218 11.6252 19.4741 11.6235 19.7817H9.67529C9.69482 20.397 9.96663 20.7046 10.4907 20.7046C10.6714 20.7046 10.8154 20.6606 10.9229 20.5728C11.0303 20.4849 11.1149 20.3424 11.1768 20.1455H11.5942ZM11.1841 19.4155C11.1694 19.2349 11.1255 19.0851 11.0522 18.9663C10.9139 18.7417 10.708 18.6294 10.4346 18.6294C10.2214 18.6294 10.0505 18.6961 9.92188 18.8296C9.79492 18.9631 9.71436 19.1584 9.68018 19.4155H11.1841ZM12.4561 18.3389V18.7466C12.5342 18.6326 12.605 18.548 12.6685 18.4927C12.8524 18.3348 13.0811 18.2559 13.3545 18.2559C13.5889 18.2559 13.7817 18.3177 13.9331 18.4414C14.0373 18.5277 14.1089 18.631 14.1479 18.7515C14.187 18.8719 14.2065 19.0477 14.2065 19.2788V21H13.7817V19.4351C13.7817 19.2576 13.776 19.1299 13.7646 19.0518C13.7533 18.9736 13.7297 18.9069 13.6938 18.8516C13.6011 18.7051 13.4432 18.6318 13.2202 18.6318C13.0037 18.6318 12.828 18.7059 12.6929 18.854C12.6147 18.9386 12.5602 19.0436 12.5293 19.1689C12.5 19.2926 12.4854 19.4757 12.4854 19.7183V21H12.0605V18.3389H12.4561ZM15.9839 18.2559C16.3566 18.2559 16.6585 18.3869 16.8896 18.6489C17.1061 18.8947 17.2144 19.2332 17.2144 19.6646C17.2144 20.1382 17.0858 20.5036 16.8286 20.7607C16.617 20.9723 16.333 21.0781 15.9766 21.0781C15.568 21.0781 15.2523 20.9422 15.0293 20.6704C14.8161 20.4116 14.7095 20.0771 14.7095 19.667C14.7095 19.2747 14.8055 18.9541 14.9976 18.7051C15.2271 18.4056 15.5558 18.2559 15.9839 18.2559ZM15.957 18.6318C15.7292 18.6318 15.542 18.714 15.3955 18.8784C15.2279 19.0656 15.144 19.3276 15.144 19.6646C15.144 20.0063 15.2254 20.2692 15.3882 20.4531C15.533 20.6191 15.7292 20.7021 15.9766 20.7021C16.1947 20.7021 16.3713 20.6322 16.5063 20.4922C16.6886 20.3034 16.7798 20.0275 16.7798 19.6646C16.7798 19.3293 16.7 19.0688 16.5405 18.8833C16.3957 18.7157 16.2012 18.6318 15.957 18.6318Z" fill="white"/>
<path d="M28.3809 10.9658H26.3027C26.2617 10.4782 26.0794 10.1068 25.7559 9.85156C25.4368 9.5918 24.988 9.46191 24.4092 9.46191C23.8942 9.46191 23.4932 9.56445 23.2061 9.76953C22.9235 9.97005 22.7822 10.2526 22.7822 10.6172C22.7822 10.9453 22.9189 11.1823 23.1924 11.3281C23.4567 11.474 24.1266 11.679 25.2021 11.9434C26.3369 12.2259 27.123 12.5107 27.5605 12.7979C28.3672 13.3265 28.7705 14.0625 28.7705 15.0059C28.7705 16.0404 28.3649 16.8561 27.5537 17.4531C26.8382 17.9772 25.8698 18.2393 24.6484 18.2393C23.2904 18.2393 22.2354 17.9294 21.4834 17.3096C20.7314 16.6898 20.3418 15.8079 20.3145 14.6641H22.4883C22.5202 15.2201 22.6637 15.6325 22.9189 15.9014C23.32 16.3298 23.9238 16.5439 24.7305 16.5439C25.2773 16.5439 25.7103 16.4368 26.0293 16.2227C26.3893 15.9766 26.5693 15.6416 26.5693 15.2178C26.5693 14.7939 26.3164 14.484 25.8105 14.2881C25.5326 14.1787 24.8763 13.9805 23.8418 13.6934C23.1947 13.5156 22.6888 13.347 22.3242 13.1875C21.9596 13.028 21.668 12.8503 21.4492 12.6543C20.9388 12.1986 20.6836 11.5697 20.6836 10.7676C20.6836 9.80599 21.0824 9.04492 21.8799 8.48438C22.5589 8.00586 23.4408 7.7666 24.5254 7.7666C25.4779 7.7666 26.2754 7.95573 26.918 8.33398C27.8431 8.8763 28.3307 9.75358 28.3809 10.9658ZM32.25 8.00586V18H30.0693V8.00586H32.25ZM44.9648 8.00586V18H42.8936L42.9688 10.4053L40.4463 18H38.7305L36.167 10.6172L36.2422 18H34.1709V8.00586H37.2744L39.626 15.1904L41.8887 8.00586H44.9648Z" fill="white"/>
</svg>
