
<svg xmlns="http://www.w3.org/2000/svg" width="20" height="20" viewBox="0 0 20 20" fill="none">
    <circle cx="10" cy="10" r="9.5" fill="#06348B" stroke="white"/>
    <path fill-rule="evenodd" clip-rule="evenodd" d="M8.85366 13.871L14.878 7.67742C14.9106 7.64301 14.939 7.6043 14.9634 7.56129C14.9878 7.51828 15 7.47097 15 7.41935C15 7.36774 14.9878 7.31613 14.9634 7.26452C14.939 7.2129 14.9106 7.16989 14.878 7.13548L13.9024 6.12903C13.8699 6.09462 13.8293 6.06452 13.7805 6.03871C13.7317 6.0129 13.6829 6 13.6341 6C13.5854 6 13.5366 6.0129 13.4878 6.03871C13.439 6.06452 13.3984 6.09462 13.3659 6.12903L8.58537 11.0323L6.63415 9.07097C6.60163 9.01935 6.56098 8.98495 6.5122 8.96774C6.46341 8.95054 6.41463 8.94194 6.36585 8.94194C6.31707 8.94194 6.27236 8.95054 6.23171 8.96774C6.19106 8.98495 6.14634 9.01935 6.09756 9.07097L5.12195 10.0774C5.08943 10.1118 5.06098 10.1548 5.03659 10.2065C5.01219 10.2581 5 10.3011 5 10.3355C5 10.4043 5.01219 10.4602 5.03659 10.5032C5.06098 10.5462 5.08943 10.5849 5.12195 10.6194L8.31707 13.871C8.34959 13.9226 8.39024 13.957 8.43902 13.9742C8.48781 13.9914 8.53659 14 8.58537 14C8.63415 14 8.68293 13.9914 8.73171 13.9742C8.78049 13.957 8.82114 13.9226 8.85366 13.871Z" fill="white"/>
</svg>