<svg width="24" height="24" viewBox="0 0 24 24" fill="none" xmlns="http://www.w3.org/2000/svg">
<path fill-rule="evenodd" clip-rule="evenodd" d="M18.8535 18.1465L18.1465 18.8535L13.6885 14.3955C13.1689 14.1474 12.6019 14.0004 12.0005 14.0004C10.8606 14.0004 9.83791 14.4823 9.10791 15.2524L8.38135 14.5649C9.28927 13.607 10.5706 13.0004 12.0005 13.0004C12.1023 13.0004 12.2032 13.0037 12.3031 13.0101L10.4732 11.1802C9.09668 11.4893 7.87239 12.2001 6.93408 13.1885L6.57178 12.8447L6.20947 12.5C7.14405 11.5156 8.32692 10.7724 9.65679 10.3638L8.10045 8.80748C6.82902 9.34797 5.69014 10.1355 4.75488 11.1211L4.39258 10.7763L4.03027 10.4326C4.97059 9.44175 6.09505 8.63493 7.34371 8.05074L5.8593 6.56634C4.63728 7.22459 3.52721 8.06151 2.58252 9.05662L2.22021 8.71189L1.85791 8.36814C2.81064 7.36456 3.91494 6.51336 5.12326 5.8303L3.14648 3.85352L3.85352 3.14648L18.8535 18.1465ZM13 18C13 17.4474 12.5521 17 12 17C11.4479 17 11 17.4474 11 18C11 18.5519 11.4481 19 12 19C12.5519 19 13 18.5519 13 18ZM14 18C14 19.1041 13.1041 20 12 20C10.8959 20 10 19.1041 10 18C10 16.8946 10.8961 16 12 16C13.1039 16 14 16.8946 14 18ZM12.0005 3.9999C15.9972 3.99998 19.5935 5.68383 22.1431 8.36709L21.7798 8.71181L21.4175 9.05654C19.0472 6.56194 15.7096 4.99998 12.0005 4.9999C10.4241 4.9999 8.9199 5.29724 7.51807 5.81533L7.34521 5.3456L7.17236 4.87685C8.6764 4.32104 10.2971 3.9999 12.0005 3.9999ZM19.9702 10.432C17.9674 8.32246 15.1411 7.0004 12.0005 7.0004C11.1875 7.00041 10.3983 7.09292 9.64014 7.25919L9.85498 8.23575C10.5467 8.08407 11.2636 8.00041 12.0005 8.0004C14.8537 8.0004 17.4215 9.20026 19.2446 11.1205L19.6079 10.7768L19.9702 10.432ZM17.7969 12.4942C16.4605 11.0896 14.6206 10.1763 12.5664 10.0323L12.4961 11.0303C14.2938 11.1563 15.9027 11.9543 17.0723 13.1836L17.7969 12.4942Z" fill="black"/>
</svg>
