<svg width="24" height="24" viewBox="0 0 24 24" fill="none" xmlns="http://www.w3.org/2000/svg">
<path d="M12.0002 16.0001C13.1055 16.0002 14.0002 16.8962 14.0002 18.0001C14 19.1038 13.1054 20 12.0002 20.0001C10.895 20.0001 10.0005 19.1038 10.0002 18.0001C10.0002 16.8962 10.8949 16.0001 12.0002 16.0001ZM12.0002 17.0001C11.4476 17.0001 11.0002 17.448 11.0002 18.0001C11.0005 18.552 11.4477 19.0001 12.0002 19.0001C12.5526 19 13 18.5519 13.0002 18.0001C13.0002 17.4481 12.5528 17.0002 12.0002 17.0001ZM12.0002 13.0001C13.4292 13.0002 14.7118 13.6072 15.6194 14.5636L15.2561 14.9083L14.8938 15.252C14.1636 14.4827 13.1388 14.0002 12.0002 14.0001C10.8608 14.0001 9.83816 14.4824 9.10669 15.252L8.74438 14.9083L8.38208 14.5636C9.29051 13.6076 10.57 13.0001 12.0002 13.0001ZM12.0051 10.004C14.2876 10.004 16.3414 10.9639 17.7971 12.4942L17.0725 13.1837C15.7963 11.842 14.0006 11.004 12.0051 11.004C10.0081 11.0041 8.21003 11.8452 6.93384 13.1895L6.57153 12.8448L6.20923 12.5011C7.66487 10.9676 9.72051 10.0041 12.0051 10.004ZM12.0002 7.00009C15.1406 7.00021 17.9664 8.32361 19.969 10.4317L19.6067 10.7765L19.2444 11.1202C17.4212 9.20091 14.8532 8.00021 12.0002 8.00009C9.14715 8.00021 6.57834 9.20075 4.75513 11.1202L4.39282 10.7765L4.03052 10.4317C6.03313 8.32345 8.85973 7.00021 12.0002 7.00009ZM12.0002 4.00009C15.9969 4.00016 19.5933 5.68407 22.1428 8.36728L21.7795 8.71201L21.4172 9.05673C19.0469 6.56218 15.7093 5.00016 12.0002 5.00009C8.2901 5.00014 4.95162 6.56211 2.5813 9.05673L1.85669 8.36728C4.40628 5.68414 8.00267 4.00014 12.0002 4.00009Z" fill="black"/>
</svg>
