<svg width="20" height="20" viewBox="0 0 20 20" fill="none" xmlns="http://www.w3.org/2000/svg">
<path d="M14.5835 9.91626C15.9242 9.9164 16.7504 11.2326 16.7505 12.5002C16.7504 12.8859 16.6762 13.2602 16.5435 13.5999C17.8216 14.5811 18.4203 16.2994 18.4204 17.9192V18.4192H10.7515V17.9192C10.7515 16.3081 11.3445 14.5857 12.6226 13.6008C12.4897 13.2611 12.4165 12.8862 12.4165 12.5002C12.4166 11.2326 13.2426 9.91626 14.5835 9.91626ZM5.76807 11.0344L7.85107 13.0872L7.50049 13.4436L7.14893 13.7991L5.89111 12.5588C5.94657 13.969 6.33732 15.0887 6.93115 15.8889C7.66929 16.8834 8.74554 17.4225 9.99951 17.4182L10.0034 18.4182C8.4343 18.4238 7.05671 17.7367 6.12744 16.4846C5.39365 15.4956 4.95678 14.1778 4.89307 12.6096L3.68506 13.804L2.98193 13.093L5.06494 11.0344L5.4165 10.6877L5.76807 11.0344ZM16.0093 14.4504C15.6453 14.8295 15.1568 15.0832 14.5835 15.0833C14.0106 15.0833 13.5215 14.8308 13.1577 14.4524C12.3608 15.1123 11.8798 16.2203 11.7749 17.4192H17.397C17.2916 16.2154 16.8075 15.1082 16.0093 14.4504ZM14.5835 10.9163C14.0129 10.9163 13.4166 11.5382 13.4165 12.5002C13.4166 12.8818 13.5195 13.2344 13.686 13.5081L13.7769 13.6409C13.9988 13.9322 14.2863 14.0833 14.5835 14.0833C14.923 14.0832 15.25 13.8862 15.481 13.5081L15.5396 13.4016C15.6707 13.1457 15.7504 12.8342 15.7505 12.5002C15.7504 11.5383 15.1541 10.9164 14.5835 10.9163ZM5.4165 1.58325C6.75721 1.58331 7.58323 2.8987 7.5835 4.16626C7.5835 4.53784 7.51521 4.8986 7.39209 5.22778C8.84283 6.15166 9.25335 7.90703 9.25342 9.58618V10.0862H1.58545V9.58618C1.58552 7.9158 1.98716 6.15883 3.44092 5.23364C3.31641 4.90244 3.25049 4.53907 3.25049 4.16626C3.25075 2.89873 4.07586 1.58338 5.4165 1.58325ZM9.9917 1.59595C11.558 1.59089 12.9361 2.26622 13.8667 3.51001C14.6015 4.49239 15.0384 5.80378 15.1021 7.36938L16.3159 6.1731L16.6665 6.52954L17.0181 6.88501L14.9292 8.94458L14.5776 9.29126L14.2271 8.9436L12.1489 6.88989L12.5005 6.53442L12.8511 6.17896L14.103 7.41626C14.0471 6.01101 13.6582 4.90037 13.0659 4.10864C12.3289 3.12358 11.2515 2.59189 9.99463 2.59595L9.99365 2.09595L9.9917 1.59595ZM6.87256 6.08618C6.50577 6.48323 6.00713 6.75022 5.4165 6.75024C4.8284 6.75019 4.33021 6.4859 3.96338 6.09106C3.07254 6.67374 2.6767 7.74819 2.60107 9.08618H8.23779C8.16141 7.74428 7.76067 6.6691 6.87256 6.08618ZM5.4165 2.58325C4.84599 2.58339 4.25074 3.20449 4.25049 4.16626C4.25049 4.49206 4.32322 4.79563 4.44775 5.04614V5.04712C4.67557 5.5067 5.04087 5.75016 5.4165 5.75024C5.79236 5.75021 6.15709 5.50611 6.38525 5.04517C6.50975 4.79331 6.5835 4.49011 6.5835 4.16626C6.58324 3.20443 5.98705 2.58331 5.4165 2.58325Z" fill="black"/>
</svg>
