<svg width="24" height="24" viewBox="0 0 24 24" fill="none" xmlns="http://www.w3.org/2000/svg">
<path d="M19.6521 7.00488C20.4093 7.08167 20.9988 7.72092 20.9988 8.49707H20.9998V15.998H21.9988V16.998H20.9998V17.998H19.9988C19.9983 19.1029 19.1023 19.997 17.9988 19.9971C16.8952 19.9971 15.9993 19.103 15.9988 17.998H7.99878C7.99825 19.1029 7.10229 19.997 5.99878 19.9971C4.89518 19.9971 3.99931 19.103 3.99878 17.998H2.9978V16.998H1.99878V15.998H2.9978L2.99585 8.49805C2.99586 7.66992 3.66772 6.99805 4.49585 6.99805L19.4988 6.99707L19.6521 7.00488ZM4.99878 17.998C4.99931 18.5502 5.44703 18.9971 5.99878 18.9971C6.55044 18.997 6.99825 18.5502 6.99878 17.998H4.99878ZM16.9988 17.998C16.9993 18.5502 17.447 18.9971 17.9988 18.9971C18.5504 18.997 18.9983 18.5502 18.9988 17.998H16.9988ZM4.49585 7.99805C4.22 7.99805 3.99586 8.2222 3.99585 8.49805L3.9978 16.998H4.99878V12.998H8.99878V16.998H19.9998V8.49707H19.9988C19.9988 8.25528 19.8276 8.05331 19.5994 8.00684L19.4988 7.99707L4.49585 7.99805ZM5.99878 16.998H7.99878V13.998H5.99878V16.998ZM18.9998 15.998H9.99878V12.998H18.9998V15.998ZM10.9988 14.998H17.9998V13.998H10.9988V14.998ZM18.9998 11.9971H4.99878V8.99707H18.9998V11.9971ZM5.99878 10.9971H17.9998V9.99707H5.99878V10.9971Z" fill="white"/>
</svg>
