<svg width="10" height="10" viewBox="0 0 10 10" fill="none" xmlns="http://www.w3.org/2000/svg">
<path d="M0.0122299 1.3874C0.104959 2.0365 0.704119 2.48839 1.3528 2.40039L1.35811 2.39978C1.36751 2.39873 1.38703 2.39672 1.41587 2.3945C1.47366 2.39005 1.56821 2.38484 1.69331 2.38484C1.94433 2.38484 2.31266 2.40585 2.75056 2.49343C3.62095 2.6675 4.76292 3.10266 5.83012 4.16985C6.89732 5.23704 7.33248 6.37901 7.50656 7.24939C7.59414 7.68729 7.61515 8.05561 7.61515 8.30664C7.61515 8.43173 7.60993 8.52629 7.60549 8.58407C7.60327 8.61291 7.60128 8.63315 7.60023 8.64255L7.59984 8.64543L7.5996 8.64715C7.5116 9.29582 7.96349 9.89498 8.61259 9.9877C9.26453 10.0808 9.86869 9.6267 9.96183 8.97476L9.962 8.97355L9.96237 8.97091L9.96321 8.96481L9.96524 8.94928C9.96675 8.93746 9.96853 8.92273 9.97047 8.90519C9.97437 8.87013 9.97894 8.82377 9.98331 8.76698C9.99204 8.65349 10 8.49773 10 8.30664C10 7.92529 9.96831 7.39775 9.8451 6.78169C9.59759 5.54415 8.97878 3.94583 7.51647 2.48352C6.05415 1.02121 4.45581 0.402407 3.21827 0.154901C2.6022 0.0316891 2.07466 0 1.69331 0C1.50221 0 1.34645 0.0079572 1.23296 0.0166868C1.17617 0.0210553 1.12981 0.0256291 1.09475 0.0295251C1.07721 0.0314737 1.06248 0.0332549 1.05067 0.0347588L1.03513 0.0367938L1.02903 0.0376308L1.02639 0.0379995L1.02404 0.0383335C0.372097 0.131467 -0.0809044 0.735465 0.0122299 1.3874Z" fill="#007E84"/>
<path d="M0.0233861 5.66854C0.151371 6.30846 0.769409 6.7255 1.40898 6.60732L1.41492 6.60648C1.42857 6.60464 1.45784 6.60116 1.49982 6.59869C1.58501 6.59368 1.71435 6.59328 1.86719 6.61512C2.16845 6.65815 2.54075 6.78277 2.879 7.12102C3.21725 7.45927 3.34187 7.83157 3.3849 8.13282C3.40674 8.28566 3.40634 8.415 3.40133 8.50019C3.39886 8.54216 3.39539 8.57143 3.39354 8.58509L3.3927 8.59103C3.27452 9.2306 3.69157 9.84863 4.33149 9.97661C4.97726 10.1058 5.60546 9.68697 5.73462 9.0412L4.57584 8.80945C5.73462 9.0412 5.73451 9.04174 5.73462 9.0412L5.73505 9.03903L5.73551 9.03671L5.73649 9.03165L5.73871 9.01988L5.74401 8.9898C5.74788 8.96691 5.75234 8.93832 5.75691 8.90446C5.76605 8.83687 5.77575 8.74757 5.78206 8.64023C5.79462 8.4268 5.79422 8.13456 5.74579 7.79555C5.6483 7.11311 5.35132 6.22066 4.56535 5.43468C3.77937 4.64871 2.88691 4.35174 2.20446 4.25425C1.86545 4.20582 1.57321 4.20542 1.35978 4.21797C1.25244 4.22429 1.16314 4.23399 1.09555 4.24312C1.06169 4.2477 1.03309 4.25216 1.0102 4.25602L0.980128 4.26133L0.968355 4.26355L0.963299 4.26453L0.96098 4.26499C0.960442 4.26509 0.958802 4.26542 1.19266 5.43468L0.958802 4.26542C0.313032 4.39457 -0.105768 5.02277 0.0233861 5.66854Z" fill="#007E84"/>
</svg>
