<svg width="24" height="24" viewBox="0 0 24 24" fill="none" xmlns="http://www.w3.org/2000/svg">
    <path
        d="M22.2041 0.0107422C23.2128 0.113005 24 0.964349 24 2V22L23.9893 22.2041C23.8938 23.1457 23.1457 23.8938 22.2041 23.9893L22 24H2L1.7959 23.9893C0.854346 23.8938 0.1062 23.1457 0.0107422 22.2041L0 22V2C0 0.964349 0.787223 0.113005 1.7959 0.0107422L2 0H22L22.2041 0.0107422ZM12 21L1 13.3477V22C1 22.5523 1.44772 23 2 23H22C22.5523 23 23 22.5523 23 22V13.3477L12 21ZM2 1C1.44771 1 1 1.44772 1 2V4.30371L12 11L23 4.30371V2C23 1.44771 22.5523 1 22 1H2Z"
        fill="white"/>
</svg>
