<svg width="108" height="108" viewBox="0 0 108 108" fill="none" xmlns="http://www.w3.org/2000/svg">
<path d="M53.834 49C56.7309 49.0004 58.834 51.7606 58.834 54.8334C58.834 56.2561 58.3768 57.6076 57.6051 58.6534C61.386 60.4184 63.834 64.9191 63.834 69.8334V70.6667H43.834V69.8334C43.834 64.8792 46.3105 60.533 50.0807 58.6827C49.2963 57.6331 48.834 56.2689 48.834 54.8334C48.834 51.7604 50.9367 49 53.834 49ZM56.2949 59.918C55.5805 60.3901 54.7474 60.6666 53.834 60.6667C52.926 60.6667 52.0961 60.3947 51.3844 59.9278C48.1906 61.1885 45.8019 64.6681 45.5283 69H62.1396C61.8659 64.6274 59.4581 61.0448 56.2949 59.918ZM44.6673 62.3334H41.8971L40.4404 65.976L38.8942 65.3575L40.5609 61.1908L40.7692 60.6667H44.6673V62.3334ZM67.1071 61.1908L68.7737 65.3575L67.2275 65.976L65.7708 62.3334H63.0006V60.6667H66.8987L67.1071 61.1908ZM70.6553 38.3034L67.3219 58.3034L67.2064 59H60.5006V57.3334H65.7936L68.8502 39H39.1041L41.2412 57.3334H47.3333V59H39.7584L39.6722 58.2627L37.3382 38.2627L37.2308 37.3334H70.8164L70.6553 38.3034ZM53.834 50.6667C52.1288 50.6667 50.5006 52.3835 50.5006 54.8334C50.5006 57.2833 52.1288 59 53.834 59C55.5389 58.9996 57.1673 57.283 57.1673 54.8334C57.1673 52.3838 55.5389 50.6671 53.834 50.6667ZM57.6474 42.3334H59.6673V44H58.4303L59.2148 45.6667H61.334V47.3334H59.9993L60.7838 49H63.0006V50.6667H61.5683L62.3528 52.3334H64.6673V54H63.1374L63.7542 55.3119L62.2471 56.0215L61.2965 54H60.5006V52.3334H60.512L59.7275 50.6667H58.834V49H58.943L58.1585 47.3334H49L48.3131 49H48.834V50.6667H47.6263L46.9411 52.3334H47.1673V54H46.2542L45.4372 55.9841L43.8974 55.3493L44.4525 54H43.0006V52.3334H45.1393L45.8262 50.6667H44.6673V49H46.5114L47.1982 47.3334H46.334V45.6667H47.8851L48.5703 44H48.0006V42.3334H49.2571L49.7308 41.1827L51.2705 41.8174L51.0573 42.3334H55.805L55.5804 41.8549L57.0875 41.1452L57.6474 42.3334ZM49.6852 45.6667H57.374L56.5895 44H50.3721L49.6852 45.6667Z" fill="white"/>
<path fill-rule="evenodd" clip-rule="evenodd" d="M0 0L67 0L0 67L0 0Z" fill="black"/>
<path fill-rule="evenodd" clip-rule="evenodd" d="M22.0375 30.0385L22.8731 30.874L22.2123 31.5349L21.3767 30.6993L22.0375 30.0385ZM23.4428 31.4437L27.5901 35.5911L26.9293 36.2519L22.7819 32.1046L23.4428 31.4437ZM25.0911 29.8106L25.7253 30.4449C25.6696 30.1461 25.6481 29.9043 25.6608 29.7195C25.7013 29.1878 25.9342 28.7092 26.3596 28.2839C26.7242 27.9192 27.1205 27.7154 27.5484 27.6724C27.8446 27.6445 28.1168 27.6939 28.3649 27.8205C28.613 27.9471 28.9169 28.1902 29.2764 28.5497L31.954 31.2273L31.2931 31.8881L28.8586 29.4536C28.5827 29.1776 28.375 28.9877 28.2358 28.8839C28.0965 28.7801 27.956 28.713 27.8142 28.6826C27.442 28.5991 27.0825 28.7307 26.7356 29.0776C26.3988 29.4144 26.2406 29.803 26.2609 30.2436C26.271 30.4968 26.3495 30.7436 26.4963 30.9842C26.6432 31.2247 26.9052 31.5336 27.2825 31.9109L29.2764 33.9048L28.6156 34.5656L24.4758 30.4259L25.0911 29.8106ZM30.5107 24.3682L31.0804 24.9379L30.2791 25.7392L32.7249 28.1851C32.9807 28.4408 33.1617 28.5814 33.268 28.6067C33.4174 28.6447 33.5959 28.5598 33.8036 28.3522C33.915 28.2408 34.0188 28.1142 34.115 27.9724L34.6961 28.5535C34.5467 28.7485 34.3872 28.9308 34.2175 29.1004C33.7744 29.5435 33.3693 29.7081 33.0022 29.5941C32.8756 29.5536 32.7572 29.4859 32.6471 29.391C32.5369 29.296 32.2122 28.9839 31.6729 28.4548L29.6182 26.4001L28.9422 27.0761L28.3725 26.5064L29.0485 25.8304L28.0953 24.8771L28.7561 24.2163L29.7094 25.1695L30.5107 24.3682Z" fill="white"/>
</svg>
