<svg width="108" height="108" viewBox="0 0 108 108" fill="none" xmlns="http://www.w3.org/2000/svg">
<path fill-rule="evenodd" clip-rule="evenodd" d="M44.1359 48.0171C43.964 47.9494 43.8411 47.8866 43.758 47.8335C43.8411 47.7802 43.964 47.7175 44.136 47.6497C44.5941 47.4691 45.2866 47.2965 46.1782 47.148C47.9534 46.8523 50.4246 46.6671 53.1667 46.6671C55.9088 46.6671 58.38 46.8523 60.1551 47.148C61.0467 47.2965 61.7392 47.4691 62.1973 47.6497C62.3693 47.7175 62.4923 47.7802 62.5753 47.8335C62.4922 47.8866 62.3693 47.9494 62.1974 48.0171C61.7392 48.1976 61.0467 48.3703 60.1551 48.5189C58.3799 48.8148 55.9087 49.0004 53.1667 49.0004C50.4246 49.0004 47.9534 48.8148 46.1783 48.5189C45.2867 48.3703 44.5941 48.1976 44.1359 48.0171ZM62.5639 48.9475C62.5986 48.9338 62.6328 48.9199 62.6667 48.9056V57.8337C62.6667 58.0748 62.5204 58.3842 62.0712 58.7381C61.6277 59.0875 60.955 59.4241 60.0792 59.7161C58.3328 60.2983 55.8887 60.6671 53.1667 60.6671C50.4447 60.6671 48.0005 60.2983 46.2542 59.7161C45.3784 59.4241 44.7056 59.0875 44.2621 58.7381C43.8129 58.3842 43.6667 58.0748 43.6667 57.8337V48.9056C43.7005 48.9199 43.7348 48.9338 43.7694 48.9475C44.3235 49.1657 45.0956 49.3522 46.0138 49.5053C47.8582 49.8127 50.387 50.0004 53.1667 50.0004C55.9463 50.0004 58.4751 49.8127 60.3195 49.5053C61.2377 49.3522 62.0099 49.1657 62.5639 48.9475ZM63.6667 57.8337V47.8337C63.6667 47.5003 63.4636 47.2601 63.2793 47.1099C63.0889 46.9547 62.8385 46.8275 62.564 46.7193C62.0099 46.501 61.2376 46.3145 60.3194 46.1616C58.475 45.8544 55.9462 45.6671 53.1667 45.6671C50.3871 45.6671 47.8583 45.8544 46.0139 46.1616C45.0957 46.3145 44.3235 46.501 43.7694 46.7193C43.4948 46.8275 43.2444 46.9547 43.054 47.1099C42.8697 47.2601 42.6667 47.5003 42.6667 47.8337V57.8337C42.6667 58.5127 43.0802 59.08 43.6433 59.5236C44.0914 59.8767 44.6782 60.1886 45.3639 60.4573C45.7446 61.5533 46.7406 62.4512 48.0157 63.0785C49.4067 63.7628 51.2071 64.1676 53.1667 64.1676C55.1262 64.1676 56.9266 63.7629 58.3174 63.0785C59.592 62.4513 60.5875 61.5538 60.9677 60.458C61.6541 60.1891 62.2415 59.877 62.6901 59.5236C63.2531 59.08 63.6667 58.5127 63.6667 57.8337ZM48.4572 62.1812C47.7095 61.8134 47.1398 61.3767 46.7598 60.9111C48.5283 61.3872 50.7572 61.6671 53.1667 61.6671C55.5756 61.6671 57.8041 61.3873 59.5725 60.9114C59.1928 61.3768 58.6234 61.8134 57.8759 62.1812C56.6425 62.7881 54.9971 63.1676 53.1667 63.1676C51.3362 63.1676 49.6908 62.7881 48.4572 62.1812ZM62.6876 47.7445C62.689 47.7423 62.6899 47.7413 62.69 47.7413C62.6901 47.7413 62.6894 47.7423 62.6876 47.7445ZM43.6457 47.7445C43.6439 47.7423 43.6432 47.7413 43.6433 47.7413C43.6434 47.7413 43.6443 47.7423 43.6457 47.7445ZM43.4955 68.7288L43.9917 68.6666C43.4955 68.7288 43.4956 68.7289 43.4956 68.729L43.4956 68.7294L43.4958 68.7304L43.4961 68.7334L43.4975 68.7434L43.5024 68.7793C43.5067 68.8101 43.5132 68.8544 43.5222 68.9108C43.54 69.0235 43.5677 69.1848 43.6073 69.3835C43.6864 69.7803 43.814 70.3291 44.0082 70.9389C44.3914 72.1426 45.0556 73.6535 46.1792 74.672L46.1794 74.6722C48.487 76.762 50.4082 78.2782 53.1667 78.2782C55.9251 78.2782 57.8479 76.7621 60.1541 74.6721L60.1541 74.672C61.2778 73.6535 61.9419 72.1426 62.3252 70.9389C62.5194 70.3291 62.6469 69.7803 62.726 69.3835C62.7656 69.1848 62.7933 69.0235 62.8112 68.9108C62.8201 68.8544 62.8266 68.8101 62.8309 68.7793L62.8359 68.7434L62.8372 68.7334L62.8376 68.7304L62.8377 68.7294L62.8377 68.729C62.8378 68.7289 62.8378 68.7288 62.3417 68.6666L62.8379 68.7288L62.8387 68.7207L63.6637 61.1373L62.6696 61.0292L61.8451 68.6075L61.8446 68.6115L61.8408 68.6396C61.8372 68.665 61.8315 68.7037 61.8235 68.7542C61.8075 68.8553 61.7821 69.0035 61.7453 69.1879C61.6717 69.5573 61.5527 70.0689 61.3723 70.6355C61.0064 71.7847 60.4089 73.0913 59.4826 73.9311C57.1655 76.031 55.5016 77.2782 53.1667 77.2782C50.8318 77.2782 49.1696 76.0311 46.8506 73.931C45.9243 73.0912 45.3269 71.7846 44.961 70.6355C44.7806 70.0689 44.6617 69.5573 44.588 69.1879C44.5512 69.0035 44.5259 68.8553 44.5098 68.7542C44.5018 68.7037 44.4962 68.665 44.4926 68.6396L44.4887 68.6115L44.4882 68.6075L43.6637 61.0292L42.6696 61.1373L43.4946 68.7207L43.4945 68.7207L43.4955 68.7288ZM53.1667 72.3329C52.0896 72.3329 51.1333 71.9551 50.434 71.5634C50.0864 71.3687 49.8089 71.1741 49.6195 71.0294C49.525 70.9572 49.453 70.8978 49.4058 70.8575C49.3822 70.8373 49.3648 70.822 49.354 70.8123L49.3427 70.8021L49.3412 70.8007C49.3413 70.8008 49.3414 70.8009 49 71.1662C48.6586 71.5315 48.6587 71.5317 48.6589 71.5318L48.6592 71.5321L48.6599 71.5327L48.6618 71.5345L48.6677 71.5399L48.6872 71.5576C48.7037 71.5723 48.7269 71.5928 48.7568 71.6182C48.8164 71.6691 48.9023 71.7399 49.0123 71.8239C49.2318 71.9917 49.549 72.2138 49.9452 72.4358C50.7334 72.8773 51.8604 73.3329 53.1667 73.3329C54.4729 73.3329 55.6 72.8773 56.3881 72.4358C56.7844 72.2138 57.1016 71.9917 57.3211 71.8239C57.431 71.7399 57.5169 71.6691 57.5766 71.6182C57.6064 71.5928 57.6297 71.5723 57.6461 71.5576L57.6656 71.5399L57.6715 71.5345L57.6735 71.5327L57.6742 71.5321L57.6745 71.5318C57.6746 71.5317 57.6747 71.5315 57.3333 71.1662C56.9919 70.8009 56.992 70.8008 56.9921 70.8007L56.9906 70.8021L56.9793 70.8123C56.9685 70.822 56.9511 70.8373 56.9275 70.8575C56.8803 70.8978 56.8083 70.9572 56.7138 71.0294C56.5245 71.1741 56.2469 71.3687 55.8994 71.5634C55.2 71.9551 54.2437 72.3329 53.1667 72.3329ZM57.1679 54.4996L54.4996 51.9996H56.4996L59.8329 55.3329L56.4996 58.6663H54.4996L57.1679 56.1663H53.9996V58.6663H52.3329V56.1663H49.1663L51.8329 58.6663H49.8329L46.4996 55.3329L49.8329 51.9996H51.8329L49.1663 54.4996H52.3329V51.9996H53.9996V54.4996H57.1679ZM51.0003 67.3332C51.0003 66.6665 50.5003 65.9998 49.667 65.9998C48.8337 65.9998 48.3337 66.4998 48.3337 67.3332C48.3337 67.9998 48.8337 68.6665 49.667 68.6665C50.5003 68.6665 51.0003 68.1665 51.0003 67.3332ZM57.667 67.3332C57.667 66.6665 57.167 65.9998 56.3337 65.9998C55.5003 65.9998 55.0003 66.4998 55.0003 67.3332C55.0003 67.9998 55.5003 68.6665 56.3337 68.6665C57.167 68.6665 57.667 68.1665 57.667 67.3332Z" fill="white"/>
<rect width="108" height="40" fill="#EB0000"/>
<path fill-rule="evenodd" clip-rule="evenodd" d="M47.9901 35.4615H51.4863L46.7816 30.6731H52.6207V35.4615H55.3802V30.6731H61.2197L56.5137 35.4615H60.0102L66 29.2405L60.0102 23H56.5137L61.2197 27.8079H55.3802V23H52.6207V27.8079H46.7816L51.4863 23H47.9901L42 29.2405L47.9901 35.4615Z" fill="white"/>
</svg>
