<svg width="24" height="24" viewBox="0 0 24 24" fill="none" xmlns="http://www.w3.org/2000/svg">
<path fill-rule="evenodd" clip-rule="evenodd" d="M7.33983 3.71405C6.94344 3.64798 6.61991 3.57486 6.37499 3.50002C6.61987 3.42519 6.94338 3.3521 7.33978 3.28607C8.39103 3.11097 9.86224 3.00024 11.5 3.00024C13.1378 3.00024 14.609 3.11097 15.6602 3.28607C16.0566 3.3521 16.3801 3.42519 16.625 3.50002C16.3801 3.57486 16.0566 3.64798 15.6602 3.71405C14.6089 3.88928 13.1377 4.00024 11.5 4.00024C9.8623 4.00024 8.3911 3.88928 7.33983 3.71405ZM15.8246 4.70044C16.2762 4.62517 16.677 4.53544 17 4.43022V9.50024C17 9.55725 16.9657 9.69132 16.719 9.88574C16.4779 10.0757 16.0981 10.2686 15.5842 10.4399C14.5618 10.7808 13.1177 11.0002 11.5 11.0002C9.88233 11.0002 8.43819 10.7808 7.41576 10.4399C6.90192 10.2686 6.52212 10.0757 6.28104 9.88574C6.03427 9.69132 6 9.55725 6 9.50024V4.43022C6.32298 4.53544 6.72383 4.62517 7.17542 4.70044C8.2959 4.88721 9.8247 5.00024 11.5 5.00024C13.1753 5.00024 14.7041 4.88721 15.8246 4.70044ZM18 9.50024V3.50024C18 3.21293 17.8249 3.01764 17.6939 2.9109C17.5568 2.79916 17.3851 2.71383 17.2117 2.64552C16.8601 2.50694 16.3808 2.39232 15.8245 2.29966C14.704 2.11302 13.1752 2.00024 11.5 2.00024C9.82476 2.00024 8.29597 2.11302 7.17547 2.29966C6.61924 2.39232 6.13994 2.50694 5.78829 2.64552C5.61495 2.71383 5.44319 2.79916 5.30607 2.9109C5.17509 3.01764 5 3.21293 5 3.50024V9.50024C5 9.99523 5.30161 10.3872 5.66218 10.6712C5.93152 10.8834 6.27265 11.0683 6.66181 11.2272C6.93429 11.9126 7.56403 12.4541 8.32115 12.8266C9.18721 13.2527 10.2985 13.5005 11.5 13.5005C12.7015 13.5005 13.8128 13.2527 14.6788 12.8265C15.4355 12.4542 16.065 11.9129 16.3372 11.2276C16.7268 11.0687 17.0682 10.8836 17.3378 10.6712C17.6984 10.3872 18 9.99523 18 9.50024ZM8.7626 11.9293C8.62711 11.8626 8.50326 11.7928 8.39079 11.7206C9.3141 11.8999 10.3764 12.0002 11.5 12.0002C12.6235 12.0002 13.6857 11.8999 14.6089 11.7207C14.4965 11.7928 14.3727 11.8626 14.2372 11.9293C13.5287 12.2779 12.5725 12.5005 11.5 12.5005C10.4275 12.5005 9.47129 12.2779 8.7626 11.9293ZM17.0681 3.30895L17.0661 3.31086C17.0666 3.31038 17.0671 3.30999 17.0674 3.30969C17.0679 3.3092 17.0681 3.30895 17.0681 3.30895ZM5.93392 3.31086C5.93247 3.30959 5.93184 3.30895 5.93188 3.30895L5.93392 3.31086ZM5.49888 16.0621L5.995 15.9999C5.49888 16.0621 5.4989 16.0622 5.49891 16.0624L5.49895 16.0627L5.49905 16.0635L5.49933 16.0656L5.50022 16.0724L5.50339 16.0955C5.50615 16.1151 5.51022 16.1428 5.51577 16.1778C5.52687 16.2478 5.54391 16.3472 5.56825 16.4692C5.61682 16.7128 5.69506 17.0495 5.81432 17.424C6.04774 18.1571 6.45957 19.1045 7.17319 19.7514L7.17337 19.7516C8.55569 21.0034 9.7602 21.9669 11.5 21.9669C13.2398 21.9669 14.4452 21.0035 15.8268 19.7514L15.8268 19.7514C16.5404 19.1045 16.9523 18.1571 17.1857 17.424C17.3049 17.0495 17.3832 16.7128 17.4317 16.4692C17.4561 16.3472 17.4731 16.2478 17.4842 16.1778C17.4898 16.1428 17.4938 16.1151 17.4966 16.0955L17.4998 16.0724L17.5007 16.0656L17.5009 16.0635L17.501 16.0627L17.5011 16.0624C17.5011 16.0622 17.5011 16.0621 17.0129 16.0009L17.5012 16.0621L17.5021 16.054L17.9971 11.504L17.0029 11.3959L16.5085 15.9405L16.5085 15.9406L16.5064 15.9558C16.5044 15.97 16.5012 15.9921 16.4966 16.0212C16.4873 16.0795 16.4726 16.1658 16.4511 16.2736C16.4079 16.4898 16.3383 16.7893 16.2328 17.1206C16.0167 17.7993 15.6716 18.5424 15.1552 19.0105C13.7628 20.2724 12.8162 20.9669 11.5 20.9669C10.1839 20.9669 9.23839 20.2725 7.84481 19.0105C7.32843 18.5424 6.98326 17.7993 6.76718 17.1206C6.66169 16.7893 6.59205 16.4898 6.54894 16.2736C6.52744 16.1658 6.51268 16.0795 6.50344 16.0212C6.49882 15.9921 6.49559 15.97 6.49358 15.9558L6.4915 15.9406L6.49149 15.9405L5.99707 11.3959L5.00293 11.504L5.49793 16.054L5.49787 16.054L5.49888 16.0621ZM11.5 17.9997C10.8996 17.9997 10.36 17.7886 9.95813 17.5635C9.75936 17.4522 9.60073 17.341 9.49316 17.2587C9.43956 17.2178 9.39914 17.1844 9.37329 17.1623C9.36037 17.1513 9.35114 17.1432 9.34576 17.1384L9.34118 17.1342C9.34129 17.1343 9.3414 17.1344 9 17.4997C8.6586 17.865 8.65872 17.8652 8.65885 17.8653L8.65912 17.8655L8.65975 17.8661L8.66131 17.8676L8.66561 17.8715L8.67897 17.8836C8.68996 17.8934 8.70511 17.9068 8.72425 17.9231C8.7625 17.9557 8.81685 18.0005 8.8859 18.0532C9.02365 18.1585 9.22189 18.2973 9.46937 18.436C9.96004 18.7108 10.6704 18.9997 11.5 18.9997C12.3296 18.9997 13.04 18.7108 13.5306 18.436C13.7781 18.2973 13.9764 18.1585 14.1141 18.0532C14.1831 18.0005 14.2375 17.9557 14.2757 17.9231C14.2949 17.9068 14.31 17.8934 14.321 17.8836L14.3344 17.8715L14.3387 17.8676L14.3402 17.8661L14.3409 17.8655L14.3412 17.8653C14.3413 17.8652 14.3414 17.865 14 17.4997C13.6586 17.1344 13.6587 17.1343 13.6588 17.1342L13.6542 17.1384C13.6489 17.1432 13.6396 17.1513 13.6267 17.1623C13.6009 17.1844 13.5604 17.2178 13.5068 17.2587C13.3993 17.341 13.2406 17.4522 13.0419 17.5635C12.64 17.7886 12.1004 17.9997 11.5 17.9997ZM13.9008 7.49976L12.2998 5.99976H13.4998L15.4998 7.99976L13.4998 9.99976H12.2998L13.9008 8.49976H11.9998V9.99976H10.9998V8.49976H9.09976L10.6998 9.99976H9.49976L7.49976 7.99976L9.49976 5.99976H10.6998L9.09976 7.49976H10.9998V5.99976H11.9998V7.49976H13.9008ZM10.2002 15.1999C10.2002 14.7999 9.9002 14.3999 9.4002 14.3999C8.9002 14.3999 8.6002 14.6999 8.6002 15.1999C8.6002 15.5999 8.9002 15.9999 9.4002 15.9999C9.9002 15.9999 10.2002 15.6999 10.2002 15.1999ZM14.2002 15.1999C14.2002 14.7999 13.9002 14.3999 13.4002 14.3999C12.9002 14.3999 12.6002 14.6999 12.6002 15.1999C12.6002 15.5999 12.9002 15.9999 13.4002 15.9999C13.9002 15.9999 14.2002 15.6999 14.2002 15.1999Z" fill="white"/>
</svg>
