<svg width="36" height="36" viewBox="0 0 36 36" fill="none" xmlns="http://www.w3.org/2000/svg">
<path fill-rule="evenodd" clip-rule="evenodd" d="M9.14067 5.36897C9.0321 5.3262 8.94658 5.28608 8.88077 5.25021C8.94657 5.21432 9.0321 5.17416 9.14073 5.13135C9.54826 4.97075 10.1675 4.81607 10.9686 4.68263C12.5628 4.41708 14.784 4.25049 17.25 4.25049C19.716 4.25049 21.9372 4.41708 23.5314 4.68263C24.3325 4.81607 24.9517 4.97075 25.3593 5.13135C25.4679 5.17416 25.5534 5.21432 25.6192 5.25021C25.5534 5.28607 25.4679 5.3262 25.3593 5.36897C24.9517 5.52953 24.3325 5.68426 23.5314 5.81779C21.9372 6.08352 19.7159 6.25049 17.25 6.25049C14.7841 6.25049 12.5628 6.08352 10.9686 5.81779C10.1675 5.68426 9.54826 5.52953 9.14067 5.36897ZM25.7258 6.29938L25.75 6.28978V14.2505C25.75 14.4455 25.6318 14.7111 25.2332 15.0251C24.8402 15.3347 24.2407 15.6354 23.4554 15.8972C21.8901 16.419 19.6959 16.7505 17.25 16.7505C14.8041 16.7505 12.6099 16.419 11.0446 15.8972C10.2593 15.6354 9.65976 15.3347 9.26684 15.0251C8.86824 14.7111 8.75 14.4455 8.75 14.2505V6.28978L8.77416 6.29938C9.27758 6.4977 9.97653 6.66622 10.8042 6.80418C12.4677 7.08145 14.7464 7.25049 17.25 7.25049C19.7536 7.25049 22.0323 7.08145 23.6958 6.80418C24.5235 6.66622 25.2224 6.4977 25.7258 6.29938ZM26.75 14.2505V5.25049C26.75 4.92861 26.5539 4.69959 26.383 4.56028C26.2059 4.41596 25.9752 4.29922 25.7259 4.20099C25.2224 4.00257 24.5234 3.83409 23.6957 3.69622C22.0323 3.41914 19.7535 3.25049 17.25 3.25049C14.7465 3.25049 12.4677 3.41914 10.8043 3.69622C9.97658 3.83409 9.27758 4.00257 8.77409 4.20099C8.52483 4.29922 8.29413 4.41596 8.11703 4.56028C7.94608 4.69959 7.75 4.92861 7.75 5.25049V14.2505C7.75 14.8835 8.13558 15.4069 8.64798 15.8106C9.05153 16.1286 9.57679 16.4087 10.1879 16.6498C10.5421 17.6436 11.4468 18.4522 12.5921 19.0156C13.8518 19.6354 15.48 20.0009 17.25 20.0009C19.02 20.0009 20.6482 19.6354 21.9078 19.0156C23.0525 18.4524 23.9569 17.644 24.3105 16.6505C24.9223 16.4091 25.4481 16.1288 25.852 15.8106C26.3644 15.4069 26.75 14.8835 26.75 14.2505ZM13.0335 18.1184C12.4303 17.8216 11.9598 17.4763 11.6268 17.1095C13.1978 17.5143 15.1484 17.7505 17.25 17.7505C19.3512 17.7505 21.3015 17.5144 22.8723 17.1097C22.5395 17.4764 22.0693 17.8216 21.4662 18.1184C20.3641 18.6607 18.891 19.0009 17.25 19.0009C15.609 19.0009 14.1359 18.6607 13.0335 18.1184ZM25.7792 5.13972C25.7807 5.1376 25.7817 5.13655 25.7818 5.13655C25.7819 5.13656 25.7811 5.13761 25.7792 5.13972ZM8.72083 5.13972C8.71891 5.13761 8.71814 5.13655 8.71824 5.13655C8.71834 5.13655 8.7193 5.1376 8.72083 5.13972ZM8.74707 17.121L9.48901 23.9409L9.48941 23.9439L9.49283 23.9688C9.49602 23.9914 9.50108 24.0259 9.50824 24.0711C9.52257 24.1614 9.54527 24.2942 9.57823 24.4595C9.64427 24.7906 9.75088 25.2491 9.91256 25.7569C10.241 26.7884 10.7753 27.9541 11.5991 28.7009C13.6868 30.5916 15.1698 31.7005 17.25 31.7005C19.3302 31.7005 20.8148 30.5915 22.9007 28.701C23.7246 27.9542 24.259 26.7885 24.5874 25.7569C24.7491 25.2491 24.8557 24.7906 24.9218 24.4595C24.9547 24.2942 24.9774 24.1614 24.9918 24.0711C24.9989 24.0259 25.004 23.9914 25.0072 23.9688L25.0106 23.9439L25.011 23.9408L25.7529 17.121L26.7471 17.2291L26.0046 24.0541L26.0037 24.0622L25.5207 24.0017C26.0036 24.0622 26.0036 24.0623 26.0036 24.0625L26.0035 24.0628L26.0034 24.0638L26.0031 24.0665L26.0019 24.0758L25.9974 24.1085C25.9934 24.1365 25.9875 24.1766 25.9794 24.2276C25.9632 24.3297 25.9383 24.4755 25.9025 24.6551C25.831 25.0135 25.7158 25.5093 25.5403 26.0603C25.1945 27.1464 24.5934 28.5163 23.5723 29.442L23.5723 29.442C21.4972 31.3226 19.7538 32.7005 17.25 32.7005C14.7462 32.7005 13.0042 31.3225 10.9279 29.4421L10.9277 29.442C9.90657 28.5163 9.30549 27.1464 8.95969 26.0603C8.78425 25.5093 8.66904 25.0135 8.59755 24.6551C8.56174 24.4755 8.53675 24.3297 8.52058 24.2276C8.51248 24.1766 8.50659 24.1365 8.50264 24.1085L8.49814 24.0758L8.49693 24.0665L8.49658 24.0638L8.49646 24.0628L8.49642 24.0625C8.4964 24.0623 8.49638 24.0622 8.9925 24L8.49638 24.0622L8.49537 24.0541L8.49543 24.0541L7.75293 17.2291L8.74707 17.121ZM17.25 27.2497C16.2921 27.2497 15.44 26.9136 14.815 26.5635C14.5047 26.3897 14.2568 26.216 14.0879 26.0869C14.0037 26.0224 13.9395 25.9695 13.8977 25.9338C13.8767 25.916 13.8614 25.9024 13.8519 25.894L13.8422 25.8851L13.8412 25.8842C13.8413 25.8843 13.8414 25.8844 13.5 26.2497C13.1586 26.615 13.1587 26.6152 13.1589 26.6153L13.1591 26.6156L13.1598 26.6162L13.1617 26.6179L13.1672 26.6229L13.1852 26.6392C13.2002 26.6527 13.2215 26.6714 13.2486 26.6946C13.3029 26.7409 13.381 26.8051 13.4807 26.8814C13.6797 27.0335 13.9672 27.2348 14.3262 27.4359C15.04 27.8358 16.0629 28.2497 17.25 28.2497C18.4371 28.2497 19.46 27.8358 20.1738 27.4359C20.5328 27.2348 20.8203 27.0335 21.0193 26.8814C21.119 26.8051 21.1971 26.7409 21.2514 26.6946C21.2785 26.6714 21.2998 26.6527 21.3148 26.6392L21.3328 26.6229L21.3383 26.6179L21.3402 26.6162L21.3409 26.6156L21.3411 26.6153C21.3413 26.6152 21.3414 26.615 21 26.2497C20.6586 25.8844 20.6587 25.8843 20.6588 25.8842L20.6578 25.8851L20.6481 25.894C20.6386 25.9024 20.6233 25.916 20.6023 25.9338C20.5605 25.9695 20.4963 26.0224 20.4121 26.0869C20.2432 26.216 19.9953 26.3897 19.685 26.5635C19.06 26.9136 18.2079 27.2497 17.25 27.2497ZM20.8511 11.2498L18.4496 8.99976H20.2496L23.2496 11.9998L20.2496 14.9998H18.4496L20.8511 12.7498H17.9996V14.9998H16.4996V12.7498H13.6496L16.0496 14.9998H14.2496L11.2496 11.9998L14.2496 8.99976H16.0496L13.6496 11.2498H16.4996V8.99976H17.9996V11.2498H20.8511ZM15.3003 22.8C15.3003 22.2 14.8503 21.6 14.1003 21.6C13.3503 21.6 12.9003 22.05 12.9003 22.8C12.9003 23.4 13.3503 24 14.1003 24C14.8503 24 15.3003 23.55 15.3003 22.8ZM21.3003 22.8C21.3003 22.2 20.8503 21.6 20.1003 21.6C19.3503 21.6 18.9003 22.05 18.9003 22.8C18.9003 23.4 19.3503 24 20.1003 24C20.8503 24 21.3003 23.55 21.3003 22.8Z" fill="black"/>
</svg>
