<svg width="108" height="108" viewBox="0 0 108 108" fill="none" xmlns="http://www.w3.org/2000/svg">
<path d="M53.834 49C56.7309 49.0004 58.834 51.7606 58.834 54.8333C58.834 56.2561 58.3768 57.6075 57.6051 58.6533C61.386 60.4183 63.834 64.919 63.834 69.8333V70.6666H43.834V69.8333C43.834 64.8792 46.3105 60.5329 50.0807 58.6826C49.2963 57.633 48.834 56.2688 48.834 54.8333C48.834 51.7604 50.9367 49 53.834 49ZM56.2949 59.9179C55.5805 60.3901 54.7474 60.6665 53.834 60.6666C52.926 60.6666 52.0961 60.3946 51.3844 59.9277C48.1906 61.1885 45.8019 64.6681 45.5283 69H62.1396C61.8659 64.6273 59.4581 61.0447 56.2949 59.9179ZM44.6673 62.3333H41.8971L40.4404 65.9759L38.8942 65.3574L40.5609 61.1907L40.7692 60.6666H44.6673V62.3333ZM67.1071 61.1907L68.7737 65.3574L67.2275 65.9759L65.7708 62.3333H63.0006V60.6666H66.8987L67.1071 61.1907ZM70.6553 38.3034L67.3219 58.3034L67.2064 59H60.5006V57.3333H65.7936L68.8502 39H39.1041L41.2412 57.3333H47.3333V59H39.7584L39.6722 58.2627L37.3382 38.2627L37.2308 37.3333H70.8164L70.6553 38.3034ZM53.834 50.6666C52.1288 50.6666 50.5006 52.3834 50.5006 54.8333C50.5006 57.2832 52.1288 59 53.834 59C55.5389 58.9996 57.1673 57.2829 57.1673 54.8333C57.1673 52.3837 55.5389 50.6671 53.834 50.6666ZM57.6474 42.3333H59.6673V44H58.4303L59.2148 45.6666H61.334V47.3333H59.9993L60.7838 49H63.0006V50.6666H61.5683L62.3528 52.3333H64.6673V54H63.1374L63.7542 55.3118L62.2471 56.0215L61.2965 54H60.5006V52.3333H60.512L59.7275 50.6666H58.834V49H58.943L58.1585 47.3333H49L48.3131 49H48.834V50.6666H47.6263L46.9411 52.3333H47.1673V54H46.2542L45.4372 55.984L43.8974 55.3493L44.4525 54H43.0006V52.3333H45.1393L45.8262 50.6666H44.6673V49H46.5114L47.1982 47.3333H46.334V45.6666H47.8851L48.5703 44H48.0006V42.3333H49.2571L49.7308 41.1826L51.2705 41.8174L51.0573 42.3333H55.805L55.5804 41.8548L57.0875 41.1452L57.6474 42.3333ZM49.6852 45.6666H57.374L56.5895 44H50.3721L49.6852 45.6666Z" fill="white"/>
</svg>
