<svg width="30" height="24" viewBox="0 0 30 24" fill="none" xmlns="http://www.w3.org/2000/svg">
    <rect x="2.5" y="2.5" width="27" height="19" stroke="black"/>
    <path fill-rule="evenodd" clip-rule="evenodd" d="M8.45081 11L10.7425 7H22.0499L23.8833 11H23H9H8.45081ZM21 17H11C11 18.1046 10.1046 19 9 19H8C6.89543 19 6 18.1046 6 17H5C4.44772 17 4 16.5523 4 16V12C4 11.4477 4.44772 11 5 11H6.14583L9.29522 5.50289C9.47341 5.19186 9.80445 5 10.1629 5H22.6916C23.0826 5 23.4378 5.22789 23.6007 5.58335L26.0833 11H27C27.5523 11 28 11.4477 28 12V16C28 16.5523 27.5523 17 27 17H26C26 18.1046 25.1046 19 24 19H23C21.8954 19 21 18.1046 21 17ZM25 14.5C25 15.3284 24.3284 16 23.5 16C22.6716 16 22 15.3284 22 14.5C22 13.6716 22.6716 13 23.5 13C24.3284 13 25 13.6716 25 14.5ZM8.5 16C9.32843 16 10 15.3284 10 14.5C10 13.6716 9.32843 13 8.5 13C7.67157 13 7 13.6716 7 14.5C7 15.3284 7.67157 16 8.5 16Z" fill="black"/>
</svg>
