<svg width="40" height="22" viewBox="0 0 40 22" fill="none" xmlns="http://www.w3.org/2000/svg">
<rect x="1" y="1" width="38" height="20" stroke="black"/>
<path d="M14.7393 12.4644C14.6465 13.5483 14.3022 14.459 13.7065 15.1963C12.8618 16.2314 11.6606 16.749 10.103 16.749C8.45264 16.749 7.17822 16.1655 6.27979 14.9985C5.51807 14.0024 5.13721 12.7231 5.13721 11.1606C5.13721 9.48096 5.62549 8.104 6.60205 7.02979C7.50049 6.03857 8.7041 5.54297 10.2129 5.54297C11.6826 5.54297 12.8398 5.99707 13.6846 6.90527C14.2559 7.53027 14.5781 8.22852 14.6514 9H13.2305C13.0693 8.29199 12.7178 7.74023 12.1758 7.34473C11.6387 6.94434 10.9722 6.74414 10.1763 6.74414C8.89697 6.74414 7.93506 7.26416 7.29053 8.3042C6.80225 9.09521 6.55811 10.0425 6.55811 11.146C6.55811 12.3179 6.81201 13.2944 7.31982 14.0757C7.96436 15.0571 8.9165 15.5479 10.1763 15.5479C11.0845 15.5479 11.8071 15.2842 12.3442 14.7568C12.8862 14.2246 13.2158 13.4604 13.333 12.4644H14.7393ZM20.7012 5.74805L24.8906 16.5H23.3159L22.1221 13.2114H17.625L16.4019 16.5H14.9077L19.1118 5.74805H20.7012ZM21.7046 12.0688L19.8735 7.13232L18.0352 12.0688H21.7046ZM25.96 5.79199H30.2666C31.3115 5.79199 32.0732 5.91162 32.5518 6.15088C32.9912 6.37061 33.3379 6.69043 33.5918 7.11035C33.8506 7.52539 33.98 7.97949 33.98 8.47266C33.98 8.99512 33.8384 9.45898 33.5552 9.86426C33.2769 10.2695 32.8911 10.5674 32.3979 10.7578C32.7983 10.8652 33.1084 10.9946 33.3281 11.146C34.0801 11.6538 34.4561 12.3936 34.4561 13.3652C34.4561 14.6396 33.9312 15.5552 32.8813 16.1118C32.3882 16.3706 31.7388 16.5 30.9331 16.5H25.96V5.79199ZM27.3735 7.02246V10.355H29.9224C30.6206 10.355 31.1357 10.3086 31.4678 10.2158C31.7998 10.1182 32.0635 9.93018 32.2588 9.65186C32.459 9.37354 32.5591 9.04883 32.5591 8.67773C32.5591 8.30664 32.4736 7.98926 32.3027 7.72559C32.1318 7.46191 31.8926 7.27393 31.585 7.16162C31.3262 7.06885 30.8184 7.02246 30.0615 7.02246H27.3735ZM27.3735 11.4976V15.2695H30.2007C31.1772 15.2695 31.834 15.1841 32.1709 15.0132C32.7471 14.7202 33.0352 14.188 33.0352 13.4165C33.0352 12.5474 32.647 11.9663 31.8706 11.6733C31.5679 11.5562 30.9331 11.4976 29.9663 11.4976H27.3735Z" fill="black"/>
</svg>
