<svg width="24" height="24" viewBox="0 0 24 24" fill="none" xmlns="http://www.w3.org/2000/svg">
    <g id="app-icon-warnfunktion-rangier">
        <path id="Union" fill-rule="evenodd" clip-rule="evenodd"
              d="M16.479 6.04852L13.2764 4.44722L13.7236 3.5528L17.7236 5.5528L18.521 5.9515L17.765 6.42401L15.2434 8.00001H18V9.00001H8V12.5V13H7.5H4V17H6H12.96V18H7C7 18.5523 6.55228 19 6 19C5.44772 19 5 18.5523 5 18H3.5H3V17.5V17H2V16H3V12.5V12H3.5H7V9.00001H5V8.00001H13.3566L16.479 6.04852ZM14.5 13H15V12.5V10.5V10H14.5H9.5H9V10.5V12.5V13H9.5H14.5ZM14 11V12H10V11H14ZM17.9569 11.2969L17.5 10.2689L17.0431 11.2969L13.0431 20.2969L12.7306 21H13.5H21.5H22.2694L21.9569 20.2969L17.9569 11.2969ZM17.5 12.7311L20.7306 20H14.2694L17.5 12.7311ZM17 19V18H18V19H17ZM18 17V15H17V17H18Z"
              fill="black"/>
    </g>
</svg>
