<svg width="28" height="24" viewBox="0 0 28 24" fill="none" xmlns="http://www.w3.org/2000/svg">
    <g id="icon/halt auf verlangen">
        <g id="(H)">
            <path
                d="M5.90969 2C5.09721 3.47262 4.47335 5.05404 4.03809 6.74429C3.61009 8.42728 3.39609 10.1175 3.39609 11.815C3.39609 13.9042 3.64273 15.8629 4.13602 17.691C4.44796 18.8589 4.81067 19.8564 5.22416 20.6834C5.60138 21.4378 5.81538 21.8767 5.86616 22H3.23287C3.12405 21.8477 2.80487 21.2782 2.2753 20.2916C1.64418 19.1164 1.15452 17.7962 0.806317 16.3308C0.465366 14.8654 0.294891 13.3819 0.294891 11.8803C0.294891 8.42728 1.2851 5.13384 3.26551 2H5.90969Z"
                fill="black" />
            <path
                d="M20.7193 4.22851V20.1371H17.2481V13.2057H10.741V20.1371H7.26986V4.22851H10.741V10.2677H17.2481V4.22851H20.7193Z"
                fill="black" />
            <path
                d="M22.0903 22C22.9028 20.5274 23.523 18.9496 23.951 17.2666C24.3863 15.5836 24.6039 13.8897 24.6039 12.185C24.6039 10.103 24.3573 8.14436 23.864 6.30903C23.5521 5.13384 23.1893 4.13638 22.7758 3.31665C22.3986 2.56221 22.1846 2.12332 22.1338 2H24.7671C24.8832 2.16685 25.2024 2.73631 25.7247 3.70838C26.3558 4.88357 26.8419 6.20384 27.1828 7.66921C27.531 9.13457 27.7051 10.6108 27.7051 12.0979C27.7051 13.8172 27.4512 15.5183 26.9434 17.2013C26.4429 18.8843 25.7066 20.4839 24.7345 22H22.0903Z"
                fill="black" />
        </g>
    </g>
</svg>
