<svg width="28" height="20" viewBox="0 0 28 20" fill="none" xmlns="http://www.w3.org/2000/svg">
    <rect x="0.5" y="0.5" width="27" height="19" stroke="black"/>
    <path fill-rule="evenodd" clip-rule="evenodd" d="M6.45081 9L8.74248 5H20.0499L21.8833 9H21H7H6.45081ZM19 15H9C9 16.1046 8.10457 17 7 17H6C4.89543 17 4 16.1046 4 15H3C2.44772 15 2 14.5523 2 14V10C2 9.44772 2.44772 9 3 9H4.14583L7.29522 3.50289C7.47341 3.19186 7.80445 3 8.16291 3H20.6916C21.0826 3 21.4378 3.22789 21.6007 3.58335L24.0833 9H25C25.5523 9 26 9.44772 26 10V14C26 14.5523 25.5523 15 25 15H24C24 16.1046 23.1046 17 22 17H21C19.8954 17 19 16.1046 19 15ZM23 12.5C23 13.3284 22.3284 14 21.5 14C20.6716 14 20 13.3284 20 12.5C20 11.6716 20.6716 11 21.5 11C22.3284 11 23 11.6716 23 12.5ZM6.5 14C7.32843 14 8 13.3284 8 12.5C8 11.6716 7.32843 11 6.5 11C5.67157 11 5 11.6716 5 12.5C5 13.3284 5.67157 14 6.5 14Z" fill="black"/>
</svg>
