<svg width="40" height="24" viewBox="0 0 40 24" fill="none" xmlns="http://www.w3.org/2000/svg">
<g id="halt auf verlangen">
<g id="(H)">
<path d="M11.9097 2C11.0972 3.47262 10.4733 5.05404 10.0381 6.74429C9.61006 8.42728 9.39606 10.1175 9.39606 11.815C9.39606 13.9042 9.6427 15.8629 10.136 17.691C10.4479 18.8589 10.8106 19.8564 11.2241 20.6834C11.6014 21.4378 11.8154 21.8767 11.8661 22H9.23284C9.12402 21.8477 8.80484 21.2782 8.27527 20.2916C7.64415 19.1164 7.15449 17.7962 6.80629 16.3308C6.46534 14.8654 6.29486 13.3819 6.29486 11.8803C6.29486 8.42728 7.28507 5.13384 9.26548 2H11.9097Z" fill="black"/>
<path d="M26.7192 4.22851V20.1371H23.2481V13.2057H16.741V20.1371H13.2698V4.22851H16.741V10.2677H23.2481V4.22851H26.7192Z" fill="black"/>
<path d="M28.0903 22C28.9028 20.5274 29.523 18.9496 29.951 17.2666C30.3863 15.5836 30.6039 13.8897 30.6039 12.185C30.6039 10.103 30.3572 8.14436 29.864 6.30903C29.552 5.13384 29.1893 4.13638 28.7758 3.31665C28.3986 2.56221 28.1846 2.12332 28.1338 2H30.7671C30.8832 2.16685 31.2024 2.73631 31.7247 3.70838C32.3558 4.88357 32.8418 6.20384 33.1828 7.66921C33.531 9.13457 33.7051 10.6108 33.7051 12.0979C33.7051 13.8172 33.4512 15.5183 32.9434 17.2013C32.4428 18.8843 31.7065 20.4839 30.7345 22H28.0903Z" fill="black"/>
</g>
</g>
</svg>
