<svg width="39" height="21" viewBox="0 0 39 21" fill="none" xmlns="http://www.w3.org/2000/svg">
<rect x="0.5" y="0.5" width="38" height="20" stroke="black"/>
<path d="M1 20L38 1" stroke="black" stroke-width="2"/>
<path d="M14.2393 11.9644C14.1465 13.0483 13.8022 13.959 13.2065 14.6963C12.3618 15.7314 11.1606 16.249 9.60303 16.249C7.95264 16.249 6.67822 15.6655 5.77979 14.4985C5.01807 13.5024 4.63721 12.2231 4.63721 10.6606C4.63721 8.98096 5.12549 7.604 6.10205 6.52979C7.00049 5.53857 8.2041 5.04297 9.71289 5.04297C11.1826 5.04297 12.3398 5.49707 13.1846 6.40527C13.7559 7.03027 14.0781 7.72852 14.1514 8.5H12.7305C12.5693 7.79199 12.2178 7.24023 11.6758 6.84473C11.1387 6.44434 10.4722 6.24414 9.67627 6.24414C8.39697 6.24414 7.43506 6.76416 6.79053 7.8042C6.30225 8.59521 6.05811 9.54248 6.05811 10.646C6.05811 11.8179 6.31201 12.7944 6.81982 13.5757C7.46436 14.5571 8.4165 15.0479 9.67627 15.0479C10.5845 15.0479 11.3071 14.7842 11.8442 14.2568C12.3862 13.7246 12.7158 12.9604 12.833 11.9644H14.2393ZM20.2012 5.24805L24.3906 16H22.8159L21.6221 12.7114H17.125L15.9019 16H14.4077L18.6118 5.24805H20.2012ZM21.2046 11.5688L19.3735 6.63232L17.5352 11.5688H21.2046ZM25.46 5.29199H29.7666C30.8115 5.29199 31.5732 5.41162 32.0518 5.65088C32.4912 5.87061 32.8379 6.19043 33.0918 6.61035C33.3506 7.02539 33.48 7.47949 33.48 7.97266C33.48 8.49512 33.3384 8.95898 33.0552 9.36426C32.7769 9.76953 32.3911 10.0674 31.8979 10.2578C32.2983 10.3652 32.6084 10.4946 32.8281 10.646C33.5801 11.1538 33.9561 11.8936 33.9561 12.8652C33.9561 14.1396 33.4312 15.0552 32.3813 15.6118C31.8882 15.8706 31.2388 16 30.4331 16H25.46V5.29199ZM26.8735 6.52246V9.85498H29.4224C30.1206 9.85498 30.6357 9.80859 30.9678 9.71582C31.2998 9.61816 31.5635 9.43018 31.7588 9.15186C31.959 8.87354 32.0591 8.54883 32.0591 8.17773C32.0591 7.80664 31.9736 7.48926 31.8027 7.22559C31.6318 6.96191 31.3926 6.77393 31.085 6.66162C30.8262 6.56885 30.3184 6.52246 29.5615 6.52246H26.8735ZM26.8735 10.9976V14.7695H29.7007C30.6772 14.7695 31.334 14.6841 31.6709 14.5132C32.2471 14.2202 32.5352 13.688 32.5352 12.9165C32.5352 12.0474 32.147 11.4663 31.3706 11.1733C31.0679 11.0562 30.4331 10.9976 29.4663 10.9976H26.8735Z" fill="black"/>
</svg>
