<svg xmlns="http://www.w3.org/2000/svg" xmlns:xlink="http://www.w3.org/1999/xlink" contentStyleType="text/css" data-diagram-type="DESCRIPTION" height="378px" preserveAspectRatio="none" style="width:440px;height:378px;background:#FFFFFF;" version="1.1" viewBox="0 0 440 378" width="440px" zoomAndPan="magnify"><defs/><g><!--entity app--><g class="entity" data-entity="app" data-source-line="1" data-uid="ent0002" id="entity_app"><rect fill="#F1F1F1" height="46.2969" rx="2.5" ry="2.5" style="stroke:#181818;stroke-width:0.5;" width="66.3525" x="217.73" y="7"/><rect fill="#F1F1F1" height="10" style="stroke:#181818;stroke-width:0.5;" width="15" x="264.0825" y="12"/><rect fill="#F1F1F1" height="2" style="stroke:#181818;stroke-width:0.5;" width="4" x="262.0825" y="14"/><rect fill="#F1F1F1" height="2" style="stroke:#181818;stroke-width:0.5;" width="4" x="262.0825" y="18"/><text fill="#000000" font-family="sans-serif" font-size="14" lengthAdjust="spacing" textLength="26.3525" x="232.73" y="39.9951">app</text></g><!--entity auth--><g class="entity" data-entity="auth" data-source-line="2" data-uid="ent0003" id="entity_auth"><rect fill="#F1F1F1" height="46.2969" rx="2.5" ry="2.5" style="stroke:#181818;stroke-width:0.5;" width="71.8145" x="7" y="113.3"/><rect fill="#F1F1F1" height="10" style="stroke:#181818;stroke-width:0.5;" width="15" x="58.8145" y="118.3"/><rect fill="#F1F1F1" height="2" style="stroke:#181818;stroke-width:0.5;" width="4" x="56.8145" y="120.3"/><rect fill="#F1F1F1" height="2" style="stroke:#181818;stroke-width:0.5;" width="4" x="56.8145" y="124.3"/><text fill="#000000" font-family="sans-serif" font-size="14" lengthAdjust="spacing" textLength="31.8145" x="22" y="146.2951">auth</text></g><!--entity logger--><g class="entity" data-entity="logger" data-source-line="3" data-uid="ent0004" id="entity_logger"><rect fill="#F1F1F1" height="46.2969" rx="2.5" ry="2.5" style="stroke:#181818;stroke-width:0.5;" width="84.5977" x="113.61" y="113.3"/><rect fill="#F1F1F1" height="10" style="stroke:#181818;stroke-width:0.5;" width="15" x="178.2077" y="118.3"/><rect fill="#F1F1F1" height="2" style="stroke:#181818;stroke-width:0.5;" width="4" x="176.2077" y="120.3"/><rect fill="#F1F1F1" height="2" style="stroke:#181818;stroke-width:0.5;" width="4" x="176.2077" y="124.3"/><text fill="#000000" font-family="sans-serif" font-size="14" lengthAdjust="spacing" textLength="44.5977" x="128.61" y="146.2951">logger</text></g><!--entity sfera--><g class="entity" data-entity="sfera" data-source-line="4" data-uid="ent0005" id="entity_sfera"><rect fill="#F1F1F1" height="46.2969" rx="2.5" ry="2.5" style="stroke:#181818;stroke-width:0.5;" width="75.1709" x="304.32" y="113.3"/><rect fill="#F1F1F1" height="10" style="stroke:#181818;stroke-width:0.5;" width="15" x="359.4909" y="118.3"/><rect fill="#F1F1F1" height="2" style="stroke:#181818;stroke-width:0.5;" width="4" x="357.4909" y="120.3"/><rect fill="#F1F1F1" height="2" style="stroke:#181818;stroke-width:0.5;" width="4" x="357.4909" y="124.3"/><text fill="#000000" font-family="sans-serif" font-size="14" lengthAdjust="spacing" textLength="35.1709" x="319.32" y="146.2951">sfera</text></g><!--entity mqtt--><g class="entity" data-entity="mqtt" data-source-line="5" data-uid="ent0006" id="entity_mqtt"><rect fill="#F1F1F1" height="46.2969" rx="2.5" ry="2.5" style="stroke:#181818;stroke-width:0.5;" width="73.5029" x="338.16" y="219.6"/><rect fill="#F1F1F1" height="10" style="stroke:#181818;stroke-width:0.5;" width="15" x="391.6629" y="224.6"/><rect fill="#F1F1F1" height="2" style="stroke:#181818;stroke-width:0.5;" width="4" x="389.6629" y="226.6"/><rect fill="#F1F1F1" height="2" style="stroke:#181818;stroke-width:0.5;" width="4" x="389.6629" y="230.6"/><text fill="#000000" font-family="sans-serif" font-size="14" lengthAdjust="spacing" textLength="33.5029" x="353.16" y="252.5951">mqtt</text></g><!--entity mqtt_client--><g class="entity" data-entity="mqtt_client" data-source-line="6" data-uid="ent0007" id="entity_mqtt_client"><rect fill="#4DB1FF" height="46.2969" rx="2.5" ry="2.5" style="stroke:#181818;stroke-width:0.5;" width="118.9551" x="315.43" y="325.89"/><rect fill="#4DB1FF" height="10" style="stroke:#181818;stroke-width:0.5;" width="15" x="414.3851" y="330.89"/><rect fill="#4DB1FF" height="2" style="stroke:#181818;stroke-width:0.5;" width="4" x="412.3851" y="332.89"/><rect fill="#4DB1FF" height="2" style="stroke:#181818;stroke-width:0.5;" width="4" x="412.3851" y="336.89"/><text fill="#000000" font-family="sans-serif" font-size="14" lengthAdjust="spacing" textLength="78.9551" x="330.43" y="358.8851">mqtt_client</text></g><!--entity http_x--><g class="entity" data-entity="http_x" data-source-line="7" data-uid="ent0008" id="entity_http_x"><rect fill="#F1F1F1" height="46.2969" rx="2.5" ry="2.5" style="stroke:#181818;stroke-width:0.5;" width="84.0234" x="175.9" y="219.6"/><rect fill="#F1F1F1" height="10" style="stroke:#181818;stroke-width:0.5;" width="15" x="239.9234" y="224.6"/><rect fill="#F1F1F1" height="2" style="stroke:#181818;stroke-width:0.5;" width="4" x="237.9234" y="226.6"/><rect fill="#F1F1F1" height="2" style="stroke:#181818;stroke-width:0.5;" width="4" x="237.9234" y="230.6"/><text fill="#000000" font-family="sans-serif" font-size="14" lengthAdjust="spacing" textLength="44.0234" x="190.9" y="252.5951">http_x</text></g><!--entity http--><g class="entity" data-entity="http" data-source-line="8" data-uid="ent0009" id="entity_http"><rect fill="#4DB1FF" height="46.2969" rx="2.5" ry="2.5" style="stroke:#181818;stroke-width:0.5;" width="68.7383" x="183.54" y="325.89"/><rect fill="#4DB1FF" height="10" style="stroke:#181818;stroke-width:0.5;" width="15" x="232.2783" y="330.89"/><rect fill="#4DB1FF" height="2" style="stroke:#181818;stroke-width:0.5;" width="4" x="230.2783" y="332.89"/><rect fill="#4DB1FF" height="2" style="stroke:#181818;stroke-width:0.5;" width="4" x="230.2783" y="336.89"/><text fill="#000000" font-family="sans-serif" font-size="14" lengthAdjust="spacing" textLength="28.7383" x="198.54" y="358.8851">http</text></g><!--link app to auth--><g class="link" data-entity-1="app" data-entity-2="auth" data-source-line="10" data-uid="lnk10" id="link_app_auth"><path d="M217.49,47.91 C179.59,66.91 123.3833,95.0901 84.4033,114.6401" fill="none" id="app-to-auth" style="stroke:#181818;stroke-width:1;"/><polygon fill="#181818" points="79.04,117.33,88.8781,116.8707,83.5094,115.0884,85.2916,109.7197,79.04,117.33" style="stroke:#181818;stroke-width:1;"/></g><!--link app to sfera--><g class="link" data-entity-1="app" data-entity-2="sfera" data-source-line="11" data-uid="lnk11" id="link_app_sfera"><path d="M270.65,53.78 C285.92,71.28 303.0056,90.8588 318.2556,108.3388" fill="none" id="app-to-sfera" style="stroke:#181818;stroke-width:1;"/><polygon fill="#181818" points="322.2,112.86,319.2975,103.4485,318.913,109.0923,313.2692,108.7078,322.2,112.86" style="stroke:#181818;stroke-width:1;"/></g><!--link app to logger--><g class="link" data-entity-1="app" data-entity-2="logger" data-source-line="12" data-uid="lnk12" id="link_app_logger"><path d="M230.29,53.78 C214.36,71.28 196.4515,90.9453 180.5215,108.4253" fill="none" id="app-to-logger" style="stroke:#181818;stroke-width:1;"/><polygon fill="#181818" points="176.48,112.86,185.4987,108.9023,179.8479,109.1644,179.5857,103.5136,176.48,112.86" style="stroke:#181818;stroke-width:1;"/></g><!--link app to mqtt--><g class="link" data-entity-1="app" data-entity-2="mqtt" data-source-line="13" data-uid="lnk13" id="link_app_mqtt"><path d="M284.27,39.3 C319.36,49.86 372.76,72 396.91,113.3 C416.32,146.5 402.8521,186.8436 389.8621,213.8336" fill="none" id="app-to-mqtt" style="stroke:#181818;stroke-width:1;"/><polygon fill="#181818" points="387.26,219.24,394.7674,212.8651,389.4284,214.7347,387.5588,209.3957,387.26,219.24" style="stroke:#181818;stroke-width:1;"/></g><!--link app to http_x--><g class="link" data-entity-1="app" data-entity-2="http_x" data-source-line="14" data-uid="lnk14" id="link_app_http_x"><path d="M247.38,53.69 C241.02,94.22 228.6798,173.0225 222.3398,213.4425" fill="none" id="app-to-http_x" style="stroke:#181818;stroke-width:1;"/><polygon fill="#181818" points="221.41,219.37,226.7563,211.0985,222.1848,214.4304,218.8529,209.8589,221.41,219.37" style="stroke:#181818;stroke-width:1;"/></g><!--link logger to http_x--><g class="link" data-entity-1="logger" data-entity-2="http_x" data-source-line="16" data-uid="lnk15" id="link_logger_http_x"><path d="M169.36,160.08 C179.76,177.57 191.0243,196.5223 201.4143,214.0023" fill="none" id="logger-to-http_x" style="stroke:#181818;stroke-width:1;"/><polygon fill="#181818" points="204.48,219.16,203.3199,209.3797,201.9253,214.8619,196.443,213.4673,204.48,219.16" style="stroke:#181818;stroke-width:1;"/></g><!--link sfera to mqtt--><g class="link" data-entity-1="sfera" data-entity-2="mqtt" data-source-line="18" data-uid="lnk16" id="link_sfera_mqtt"><path d="M349.07,160.08 C354.6,177.57 360.4202,195.9594 365.9502,213.4394" fill="none" id="sfera-to-mqtt" style="stroke:#181818;stroke-width:1;"/><polygon fill="#181818" points="367.76,219.16,368.8591,209.3727,366.2519,214.3929,361.2317,211.7857,367.76,219.16" style="stroke:#181818;stroke-width:1;"/></g><!--reverse link http_x to http--><g class="link" data-entity-1="http_x" data-entity-2="http" data-source-line="20" data-uid="lnk17" id="link_http_x_http"><path d="M217.91,278.38 C217.91,295.87 217.91,307.97 217.91,325.45" fill="none" id="http_x-backto-http" style="stroke:#181818;stroke-width:1;"/><polygon fill="#181818" points="217.91,266.38,213.91,272.38,217.91,278.38,221.91,272.38,217.91,266.38" style="stroke:#181818;stroke-width:1;"/></g><!--reverse link mqtt to mqtt_client--><g class="link" data-entity-1="mqtt" data-entity-2="mqtt_client" data-source-line="22" data-uid="lnk18" id="link_mqtt_mqtt_client"><path d="M374.91,278.38 C374.91,295.87 374.91,307.97 374.91,325.45" fill="none" id="mqtt-backto-mqtt_client" style="stroke:#181818;stroke-width:1;"/><polygon fill="#181818" points="374.91,266.38,370.91,272.38,374.91,278.38,378.91,272.38,374.91,266.38" style="stroke:#181818;stroke-width:1;"/></g><!--SRC=[IyxFBSZFIyqhKKWiAE1AHl1AIpAGk3dvwUcfHKW2nMcfHOb8_Dp2aX8qRdnoJYQ8hMpYucJeveOacr5IKX1VWIO0LyS5T8c2hguTn0qm3iH260_g7XWNR3kC0pMT2w86HGXi24875qHSGKjN5wo4Ymia3EOYUG00]--></g></svg>