<?plantuml 1.2026.2?>
<svg xmlns="http://www.w3.org/2000/svg" contentStyleType="text/css" data-diagram-type="DESCRIPTION" height="591px"
     preserveAspectRatio="none" style="width:1257px;height:591px;background:#FFFFFF;" version="1.1" viewBox="0 0 1257 591" width="1257px" zoomAndPan="magnify">
    <defs/>
    <g><!--entity app-->
        <g class="entity" data-qualified-name="app" data-source-line="2" id="ent0002">
            <rect fill="#F1F1F1" height="46.4883" rx="2.5" ry="2.5" style="stroke:#181818;stroke-width:0.5;" width="65.3545" x="508.5" y="7"/>
            <rect fill="#F1F1F1" height="10" style="stroke:#181818;stroke-width:0.5;" width="15" x="553.8545" y="12"/>
            <rect fill="#F1F1F1" height="2" style="stroke:#181818;stroke-width:0.5;" width="4" x="551.8545" y="14"/>
            <rect fill="#F1F1F1" height="2" style="stroke:#181818;stroke-width:0.5;" width="4" x="551.8545" y="18"/>
            <text fill="#000000" font-family="sans-serif" font-size="14" lengthAdjust="spacing" textLength="25.3545" x="523.5" y="40.5352">app</text>
        </g><!--entity auth-->
        <g class="entity" data-qualified-name="auth" data-source-line="3" id="ent0003">
            <rect fill="#F1F1F1" height="46.4883" rx="2.5" ry="2.5" style="stroke:#181818;stroke-width:0.5;" width="70.3447" x="7" y="113.49"/>
            <rect fill="#F1F1F1" height="10" style="stroke:#181818;stroke-width:0.5;" width="15" x="57.3447" y="118.49"/>
            <rect fill="#F1F1F1" height="2" style="stroke:#181818;stroke-width:0.5;" width="4" x="55.3447" y="120.49"/>
            <rect fill="#F1F1F1" height="2" style="stroke:#181818;stroke-width:0.5;" width="4" x="55.3447" y="124.49"/>
            <text fill="#000000" font-family="sans-serif" font-size="14" lengthAdjust="spacing" textLength="30.3447" x="22" y="147.0252">auth</text>
        </g><!--entity logger-->
        <g class="entity" data-qualified-name="logger" data-source-line="4" id="ent0004">
            <rect fill="#F1F1F1" height="46.4883" rx="2.5" ry="2.5" style="stroke:#181818;stroke-width:0.5;" width="83.6338" x="395.36" y="326.47"/>
            <rect fill="#F1F1F1" height="10" style="stroke:#181818;stroke-width:0.5;" width="15" x="458.9938" y="331.47"/>
            <rect fill="#F1F1F1" height="2" style="stroke:#181818;stroke-width:0.5;" width="4" x="456.9938" y="333.47"/>
            <rect fill="#F1F1F1" height="2" style="stroke:#181818;stroke-width:0.5;" width="4" x="456.9938" y="337.47"/>
            <text fill="#000000" font-family="sans-serif" font-size="14" lengthAdjust="spacing" textLength="43.6338" x="410.36" y="360.0052">logger</text>
        </g><!--entity formation-->
        <g class="entity" data-qualified-name="formation" data-source-line="5" id="ent0005">
            <rect fill="#F1F1F1" height="46.4883" rx="2.5" ry="2.5" style="stroke:#181818;stroke-width:0.5;" width="106.8486" x="182.75" y="326.47"/>
            <rect fill="#F1F1F1" height="10" style="stroke:#181818;stroke-width:0.5;" width="15" x="269.5986" y="331.47"/>
            <rect fill="#F1F1F1" height="2" style="stroke:#181818;stroke-width:0.5;" width="4" x="267.5986" y="333.47"/>
            <rect fill="#F1F1F1" height="2" style="stroke:#181818;stroke-width:0.5;" width="4" x="267.5986" y="337.47"/>
            <text fill="#000000" font-family="sans-serif" font-size="14" lengthAdjust="spacing" textLength="66.8486" x="197.75" y="360.0052">formation</text>
        </g><!--entity sfera-->
        <g class="entity" data-qualified-name="sfera" data-source-line="6" id="ent0006">
            <rect fill="#F1F1F1" height="46.4883" rx="2.5" ry="2.5" style="stroke:#181818;stroke-width:0.5;" width="73.5439" x="747.4" y="219.98"/>
            <rect fill="#F1F1F1" height="10" style="stroke:#181818;stroke-width:0.5;" width="15" x="800.9439" y="224.98"/>
            <rect fill="#F1F1F1" height="2" style="stroke:#181818;stroke-width:0.5;" width="4" x="798.9439" y="226.98"/>
            <rect fill="#F1F1F1" height="2" style="stroke:#181818;stroke-width:0.5;" width="4" x="798.9439" y="230.98"/>
            <text fill="#000000" font-family="sans-serif" font-size="14" lengthAdjust="spacing" textLength="33.5439" x="762.4" y="253.5152">sfera</text>
        </g><!--entity mqtt-->
        <g class="entity" data-qualified-name="mqtt" data-source-line="7" id="ent0007">
            <rect fill="#F1F1F1" height="46.4883" rx="2.5" ry="2.5" style="stroke:#181818;stroke-width:0.5;" width="72.3545" x="787" y="326.47"/>
            <rect fill="#F1F1F1" height="10" style="stroke:#181818;stroke-width:0.5;" width="15" x="839.3545" y="331.47"/>
            <rect fill="#F1F1F1" height="2" style="stroke:#181818;stroke-width:0.5;" width="4" x="837.3545" y="333.47"/>
            <rect fill="#F1F1F1" height="2" style="stroke:#181818;stroke-width:0.5;" width="4" x="837.3545" y="337.47"/>
            <text fill="#000000" font-family="sans-serif" font-size="14" lengthAdjust="spacing" textLength="32.3545" x="802" y="360.0052">mqtt</text>
        </g><!--entity connectivity_x-->
        <g class="entity" data-qualified-name="connectivity_x" data-source-line="8" id="ent0008">
            <rect fill="#F1F1F1" height="46.4883" rx="2.5" ry="2.5" style="stroke:#181818;stroke-width:0.5;" width="136.8311" x="876.76" y="432.95"/>
            <rect fill="#F1F1F1" height="10" style="stroke:#181818;stroke-width:0.5;" width="15" x="993.5911" y="437.95"/>
            <rect fill="#F1F1F1" height="2" style="stroke:#181818;stroke-width:0.5;" width="4" x="991.5911" y="439.95"/>
            <rect fill="#F1F1F1" height="2" style="stroke:#181818;stroke-width:0.5;" width="4" x="991.5911" y="443.95"/>
            <text fill="#000000" font-family="sans-serif" font-size="14" lengthAdjust="spacing" textLength="96.8311" x="891.76" y="466.4852">connectivity_x
            </text>
        </g><!--entity local_regulations-->
        <g class="entity" data-qualified-name="local_regulations" data-source-line="9" id="ent0009">
            <rect fill="#F1F1F1" height="46.4883" rx="2.5" ry="2.5" style="stroke:#181818;stroke-width:0.5;" width="155.0283" x="594.66" y="113.49"/>
            <rect fill="#F1F1F1" height="10" style="stroke:#181818;stroke-width:0.5;" width="15" x="729.6883" y="118.49"/>
            <rect fill="#F1F1F1" height="2" style="stroke:#181818;stroke-width:0.5;" width="4" x="727.6883" y="120.49"/>
            <rect fill="#F1F1F1" height="2" style="stroke:#181818;stroke-width:0.5;" width="4" x="727.6883" y="124.49"/>
            <text fill="#000000" font-family="sans-serif" font-size="14" lengthAdjust="spacing" textLength="115.0283" x="609.66" y="147.0252">
                local_regulations
            </text>
        </g><!--entity settings-->
        <g class="entity" data-qualified-name="settings" data-source-line="10" id="ent0010">
            <rect fill="#F1F1F1" height="46.4883" rx="2.5" ry="2.5" style="stroke:#181818;stroke-width:0.5;" width="94.0107" x="272.17" y="219.98"/>
            <rect fill="#F1F1F1" height="10" style="stroke:#181818;stroke-width:0.5;" width="15" x="346.1807" y="224.98"/>
            <rect fill="#F1F1F1" height="2" style="stroke:#181818;stroke-width:0.5;" width="4" x="344.1807" y="226.98"/>
            <rect fill="#F1F1F1" height="2" style="stroke:#181818;stroke-width:0.5;" width="4" x="344.1807" y="230.98"/>
            <text fill="#000000" font-family="sans-serif" font-size="14" lengthAdjust="spacing" textLength="54.0107" x="287.17" y="253.5152">settings</text>
        </g><!--entity warnapp-->
        <g class="entity" data-qualified-name="warnapp" data-source-line="11" id="ent0011">
            <rect fill="#F1F1F1" height="46.4883" rx="2.5" ry="2.5" style="stroke:#181818;stroke-width:0.5;" width="98.29" x="998.03" y="113.49"/>
            <rect fill="#F1F1F1" height="10" style="stroke:#181818;stroke-width:0.5;" width="15" x="1076.32" y="118.49"/>
            <rect fill="#F1F1F1" height="2" style="stroke:#181818;stroke-width:0.5;" width="4" x="1074.32" y="120.49"/>
            <rect fill="#F1F1F1" height="2" style="stroke:#181818;stroke-width:0.5;" width="4" x="1074.32" y="124.49"/>
            <text fill="#000000" font-family="sans-serif" font-size="14" lengthAdjust="spacing" textLength="58.29" x="1013.03" y="147.0252">warnapp</text>
        </g><!--entity mqtt_client-->
        <g class="entity" data-qualified-name="mqtt_client" data-source-line="12" id="ent0012">
            <rect fill="#4DB1FF" height="46.4883" rx="2.5" ry="2.5" style="stroke:#181818;stroke-width:0.5;" width="116.3438" x="725" y="432.95"/>
            <rect fill="#4DB1FF" height="10" style="stroke:#181818;stroke-width:0.5;" width="15" x="821.3438" y="437.95"/>
            <rect fill="#4DB1FF" height="2" style="stroke:#181818;stroke-width:0.5;" width="4" x="819.3438" y="439.95"/>
            <rect fill="#4DB1FF" height="2" style="stroke:#181818;stroke-width:0.5;" width="4" x="819.3438" y="443.95"/>
            <text fill="#000000" font-family="sans-serif" font-size="14" lengthAdjust="spacing" textLength="76.3438" x="740" y="466.4852">mqtt_client</text>
        </g><!--entity http_x-->
        <g class="entity" data-qualified-name="http_x" data-source-line="13" id="ent0013">
            <rect fill="#F1F1F1" height="46.4883" rx="2.5" ry="2.5" style="stroke:#181818;stroke-width:0.5;" width="83.5586" x="348.39" y="432.95"/>
            <rect fill="#F1F1F1" height="10" style="stroke:#181818;stroke-width:0.5;" width="15" x="411.9486" y="437.95"/>
            <rect fill="#F1F1F1" height="2" style="stroke:#181818;stroke-width:0.5;" width="4" x="409.9486" y="439.95"/>
            <rect fill="#F1F1F1" height="2" style="stroke:#181818;stroke-width:0.5;" width="4" x="409.9486" y="443.95"/>
            <text fill="#000000" font-family="sans-serif" font-size="14" lengthAdjust="spacing" textLength="43.5586" x="363.39" y="466.4852">http_x</text>
        </g><!--entity http-->
        <g class="entity" data-qualified-name="http" data-source-line="14" id="ent0014">
            <rect fill="#4DB1FF" height="46.4883" rx="2.5" ry="2.5" style="stroke:#181818;stroke-width:0.5;" width="67.9727" x="356.19" y="539.44"/>
            <rect fill="#4DB1FF" height="10" style="stroke:#181818;stroke-width:0.5;" width="15" x="404.1627" y="544.44"/>
            <rect fill="#4DB1FF" height="2" style="stroke:#181818;stroke-width:0.5;" width="4" x="402.1627" y="546.44"/>
            <rect fill="#4DB1FF" height="2" style="stroke:#181818;stroke-width:0.5;" width="4" x="402.1627" y="550.44"/>
            <text fill="#000000" font-family="sans-serif" font-size="14" lengthAdjust="spacing" textLength="27.9727" x="371.19" y="572.9752">http</text>
        </g><!--entity connectivity_plus-->
        <g class="entity" data-qualified-name="connectivity_plus" data-source-line="15" id="ent0015">
            <rect fill="#4DB1FF" height="46.4883" rx="2.5" ry="2.5" style="stroke:#181818;stroke-width:0.5;" width="156.9287" x="866.71" y="539.44"/>
            <rect fill="#4DB1FF" height="10" style="stroke:#181818;stroke-width:0.5;" width="15" x="1003.6387" y="544.44"/>
            <rect fill="#4DB1FF" height="2" style="stroke:#181818;stroke-width:0.5;" width="4" x="1001.6387" y="546.44"/>
            <rect fill="#4DB1FF" height="2" style="stroke:#181818;stroke-width:0.5;" width="4" x="1001.6387" y="550.44"/>
            <text fill="#000000" font-family="sans-serif" font-size="14" lengthAdjust="spacing" textLength="116.9287" x="881.71" y="572.9752">
                connectivity_plus
            </text>
        </g><!--entity app_links-->
        <g class="entity" data-qualified-name="app_links" data-source-line="16" id="ent0016">
            <rect fill="#4DB1FF" height="46.4883" rx="2.5" ry="2.5" style="stroke:#181818;stroke-width:0.5;" width="104.4561" x="1138.94" y="219.98"/>
            <rect fill="#4DB1FF" height="10" style="stroke:#181818;stroke-width:0.5;" width="15" x="1223.3961" y="224.98"/>
            <rect fill="#4DB1FF" height="2" style="stroke:#181818;stroke-width:0.5;" width="4" x="1221.3961" y="226.98"/>
            <rect fill="#4DB1FF" height="2" style="stroke:#181818;stroke-width:0.5;" width="4" x="1221.3961" y="230.98"/>
            <text fill="#000000" font-family="sans-serif" font-size="14" lengthAdjust="spacing" textLength="64.4561" x="1153.94" y="253.5152">app_links</text>
        </g><!--entity app_links_x-->
        <g class="entity" data-qualified-name="app_links_x" data-source-line="17" id="ent0017">
            <rect fill="#F1F1F1" height="46.4883" rx="2.5" ry="2.5" style="stroke:#181818;stroke-width:0.5;" width="120.042" x="1131.15" y="113.49"/>
            <rect fill="#F1F1F1" height="10" style="stroke:#181818;stroke-width:0.5;" width="15" x="1231.192" y="118.49"/>
            <rect fill="#F1F1F1" height="2" style="stroke:#181818;stroke-width:0.5;" width="4" x="1229.192" y="120.49"/>
            <rect fill="#F1F1F1" height="2" style="stroke:#181818;stroke-width:0.5;" width="4" x="1229.192" y="124.49"/>
            <text fill="#000000" font-family="sans-serif" font-size="14" lengthAdjust="spacing" textLength="80.042" x="1146.15" y="147.0252">app_links_x</text>
        </g><!--entity preload-->
        <g class="entity" data-qualified-name="preload" data-source-line="18" id="ent0018">
            <rect fill="#F1F1F1" height="46.4883" rx="2.5" ry="2.5" style="stroke:#181818;stroke-width:0.5;" width="91.5293" x="325.41" y="113.49"/>
            <rect fill="#F1F1F1" height="10" style="stroke:#181818;stroke-width:0.5;" width="15" x="396.9393" y="118.49"/>
            <rect fill="#F1F1F1" height="2" style="stroke:#181818;stroke-width:0.5;" width="4" x="394.9393" y="120.49"/>
            <rect fill="#F1F1F1" height="2" style="stroke:#181818;stroke-width:0.5;" width="4" x="394.9393" y="124.49"/>
            <text fill="#000000" font-family="sans-serif" font-size="14" lengthAdjust="spacing" textLength="51.5293" x="340.41" y="147.0252">preload</text>
        </g><!--entity customer_oriented_departure-->
        <g class="entity" data-qualified-name="customer_oriented_departure" data-source-line="19" id="ent0019">
            <rect fill="#F1F1F1" height="46.4883" rx="2.5" ry="2.5" style="stroke:#181818;stroke-width:0.5;" width="240.4775" x="471.93" y="219.98"/>
            <rect fill="#F1F1F1" height="10" style="stroke:#181818;stroke-width:0.5;" width="15" x="692.4075" y="224.98"/>
            <rect fill="#F1F1F1" height="2" style="stroke:#181818;stroke-width:0.5;" width="4" x="690.4075" y="226.98"/>
            <rect fill="#F1F1F1" height="2" style="stroke:#181818;stroke-width:0.5;" width="4" x="690.4075" y="230.98"/>
            <text fill="#000000" font-family="sans-serif" font-size="14" lengthAdjust="spacing" textLength="200.4775" x="486.93" y="253.5152">
                customer_oriented_departure
            </text>
        </g><!--link app to auth-->
        <g class="link" data-entity-1="ent0002" data-entity-2="ent0003" data-link-type="dependency" data-source-line="21" id="lnk20">
            <path d="M508.15,35.63 C434.71,45.79 252.61,73.16 104.17,113.49 C95.45,115.86 91.8656,116.8766 83.2556,119.9266" fill="none" id="app-to-auth"
                  style="stroke:#181818;stroke-width:1;"/>
            <polygon fill="#181818" points="77.6,121.93,87.4191,122.6953,82.313,120.2605,84.7478,115.1544,77.6,121.93" style="stroke:#181818;stroke-width:1;"/>
        </g><!--link app to sfera-->
        <g class="link" data-entity-1="ent0002" data-entity-2="ent0006" data-link-type="dependency" data-source-line="22" id="lnk21">
            <path d="M574.15,32.96 C624.4,37.48 719.33,53.91 767.17,113.49 C791.45,143.72 791.4305,185.4754 788.3705,213.5354" fill="none" id="app-to-sfera"
                  style="stroke:#181818;stroke-width:1;"/>
            <polygon fill="#181818" points="787.72,219.5,792.6721,210.9867,788.262,214.5295,784.7193,210.1194,787.72,219.5"
                     style="stroke:#181818;stroke-width:1;"/>
        </g><!--link app to mqtt-->
        <g class="link" data-entity-1="ent0002" data-entity-2="ent0007" data-link-type="dependency" data-source-line="23" id="lnk22">
            <path d="M574,32.4 C628.69,36.09 738.7,51.32 802.17,113.49 C859.87,170.01 842.6413,273.0057 830.9713,320.1657" fill="none" id="app-to-mqtt"
                  style="stroke:#181818;stroke-width:1;"/>
            <polygon fill="#181818" points="829.53,325.99,835.5748,318.2144,830.7311,321.1364,827.809,316.2927,829.53,325.99"
                     style="stroke:#181818;stroke-width:1;"/>
        </g><!--link app to connectivity_x-->
        <g class="link" data-entity-1="ent0002" data-entity-2="ent0008" data-link-type="dependency" data-source-line="24" id="lnk23">
            <path d="M574.24,30.49 C635.61,30.93 767.67,40.91 842.17,113.49 C934.26,203.21 944.6638,365.9804 945.3338,426.7104" fill="none"
                  id="app-to-connectivity_x" style="stroke:#181818;stroke-width:1;"/>
            <polygon fill="#181818" points="945.4,432.71,949.3005,423.6664,945.3448,427.7103,941.301,423.7547,945.4,432.71"
                     style="stroke:#181818;stroke-width:1;"/>
        </g><!--link app to local_regulations-->
        <g class="link" data-entity-1="ent0002" data-entity-2="ent0009" data-link-type="dependency" data-source-line="25" id="lnk24">
            <path d="M569.6,53.92 C591.57,71.44 617.1487,91.8494 639.1087,109.3594" fill="none" id="app-to-local_regulations"
                  style="stroke:#181818;stroke-width:1;"/>
            <polygon fill="#181818" points="643.8,113.1,639.2569,104.3616,639.8906,109.9828,634.2694,110.6166,643.8,113.1"
                     style="stroke:#181818;stroke-width:1;"/>
        </g><!--link app to settings-->
        <g class="link" data-entity-1="ent0002" data-entity-2="ent0010" data-link-type="dependency" data-source-line="26" id="lnk25">
            <path d="M508.35,31.74 C455.82,34.53 354.13,48.53 308.17,113.49 C285.89,144.98 296.3457,186.674 307.0357,214.314" fill="none" id="app-to-settings"
                  style="stroke:#181818;stroke-width:1;"/>
            <polygon fill="#181818" points="309.2,219.91,309.6842,210.0731,307.3964,215.2466,302.2228,212.9588,309.2,219.91"
                     style="stroke:#181818;stroke-width:1;"/>
        </g><!--link app to warnapp-->
        <g class="link" data-entity-1="ent0002" data-entity-2="ent0011" data-link-type="dependency" data-source-line="27" id="lnk26">
            <path d="M574.31,36.47 C646.76,48.14 824.51,78.09 971.17,113.49 C979.86,115.59 983.2572,116.4146 992.1172,118.9246" fill="none" id="app-to-warnapp"
                  style="stroke:#181818;stroke-width:1;"/>
            <polygon fill="#181818" points="997.89,120.56,990.3211,114.2583,993.0793,119.1972,988.1405,121.9554,997.89,120.56"
                     style="stroke:#181818;stroke-width:1;"/>
        </g><!--link app to logger-->
        <g class="link" data-entity-1="ent0002" data-entity-2="ent0004" data-link-type="dependency" data-source-line="28" id="lnk27">
            <path d="M527.98,53.91 C508.5,88.5 472.37,157.07 454.17,219.98 C443.65,256.36 439.9602,294.4402 438.4402,320.4402" fill="none" id="app-to-logger"
                  style="stroke:#181818;stroke-width:1;"/>
            <polygon fill="#181818" points="438.09,326.43,442.6084,317.6788,438.3818,321.4385,434.6221,317.2119,438.09,326.43"
                     style="stroke:#181818;stroke-width:1;"/>
        </g><!--link app to http_x-->
        <g class="link" data-entity-1="ent0002" data-entity-2="ent0013" data-link-type="dependency" data-source-line="29" id="lnk28">
            <path
                d="M508.23,31.43 C448.96,33.52 323.61,46.22 249.17,113.49 C173.68,181.71 184.17,226.5 165.17,326.47 C161.31,346.76 153.33,356.02 165.17,372.95 C206.52,432.09 289.1931,448.324 342.0331,452.974"
                fill="none" id="app-to-http_x" style="stroke:#181818;stroke-width:1;"/>
            <polygon fill="#181818" points="348.01,453.5,339.3953,448.7264,343.0292,453.0617,338.694,456.6956,348.01,453.5"
                     style="stroke:#181818;stroke-width:1;"/>
        </g><!--link app to formation-->
        <g class="link" data-entity-1="ent0002" data-entity-2="ent0005" data-link-type="dependency" data-source-line="30" id="lnk29">
            <path d="M508.36,32.67 C454.86,36.77 348.76,52.58 288.17,113.49 C230.07,171.9 230.1722,273.7253 233.5022,320.3053" fill="none" id="app-to-formation"
                  style="stroke:#181818;stroke-width:1;"/>
            <polygon fill="#181818" points="233.93,326.29,237.278,317.0277,233.5735,321.3027,229.2984,317.5981,233.93,326.29"
                     style="stroke:#181818;stroke-width:1;"/>
        </g><!--link app to app_links_x-->
        <g class="link" data-entity-1="ent0002" data-entity-2="ent0017" data-link-type="dependency" data-source-line="31" id="lnk30">
            <path d="M574.08,34.35 C662.28,43.03 911.04,69.79 1114.17,113.49 C1119.61,114.66 1119.4178,114.5207 1125.0378,115.9607" fill="none"
                  id="app-to-app_links_x" style="stroke:#181818;stroke-width:1;"/>
            <polygon fill="#181818" points="1130.85,117.45,1123.1245,111.3413,1126.0065,116.209,1121.1388,119.0909,1130.85,117.45"
                     style="stroke:#181818;stroke-width:1;"/>
        </g><!--link app to preload-->
        <g class="link" data-entity-1="ent0002" data-entity-2="ent0018" data-link-type="dependency" data-source-line="32" id="lnk31">
            <path d="M508.39,51.39 C479.64,69.06 442.9818,91.5984 413.0918,109.9684" fill="none" id="app-to-preload" style="stroke:#181818;stroke-width:1;"/>
            <polygon fill="#181818" points="407.98,113.11,417.7421,111.8054,412.2398,110.492,413.5532,104.9897,407.98,113.11"
                     style="stroke:#181818;stroke-width:1;"/>
        </g><!--link app to customer_oriented_departure-->
        <g class="link" data-entity-1="ent0002" data-entity-2="ent0019" data-link-type="dependency" data-source-line="33" id="lnk32">
            <path d="M546.63,53.82 C556.42,94.32 575.4501,173.038 585.2701,213.658" fill="none" id="app-to-customer_oriented_departure"
                  style="stroke:#181818;stroke-width:1;"/>
            <polygon fill="#181818" points="586.68,219.49,588.4531,209.8021,585.5051,214.63,580.6772,211.6819,586.68,219.49"
                     style="stroke:#181818;stroke-width:1;"/>
        </g><!--link settings to http_x-->
        <g class="link" data-entity-1="ent0010" data-entity-2="ent0013" data-link-type="dependency" data-source-line="35" id="lnk33">
            <path d="M326.77,266.8 C340.4,307.3 366.9358,386.1635 380.6058,426.7735" fill="none" id="settings-to-http_x"
                  style="stroke:#181818;stroke-width:1;"/>
            <polygon fill="#181818" points="382.52,432.46,383.4397,422.6542,380.9249,427.7213,375.8578,425.2064,382.52,432.46"
                     style="stroke:#181818;stroke-width:1;"/>
        </g><!--link settings to logger-->
        <g class="link" data-entity-1="ent0010" data-entity-2="ent0004" data-link-type="dependency" data-source-line="36" id="lnk34">
            <path d="M344.78,266.89 C364.57,284.42 387.3474,304.593 407.1274,322.103" fill="none" id="settings-to-logger"
                  style="stroke:#181818;stroke-width:1;"/>
            <polygon fill="#181818" points="411.62,326.08,407.5325,317.1194,407.8762,322.7658,402.2298,323.1095,411.62,326.08"
                     style="stroke:#181818;stroke-width:1;"/>
        </g><!--link formation to http_x-->
        <g class="link" data-entity-1="ent0005" data-entity-2="ent0013" data-link-type="dependency" data-source-line="38" id="lnk35">
            <path d="M269.59,373.38 C295.42,390.91 326.0457,411.6802 351.8557,429.2002" fill="none" id="formation-to-http_x"
                  style="stroke:#181818;stroke-width:1;"/>
            <polygon fill="#181818" points="356.82,432.57,351.6201,424.2057,352.6831,429.7618,347.127,430.8248,356.82,432.57"
                     style="stroke:#181818;stroke-width:1;"/>
        </g><!--link customer_oriented_departure to http_x-->
        <g class="link" data-entity-1="ent0019" data-entity-2="ent0013" data-link-type="dependency" data-source-line="40" id="lnk36">
            <path d="M578.19,266.59 C560.81,293.45 529.36,339.12 496.17,372.95 C474.15,395.4 450.776,413.5717 428.966,429.0217" fill="none"
                  id="customer_oriented_departure-to-http_x" style="stroke:#181818;stroke-width:1;"/>
            <polygon fill="#181818" points="424.07,432.49,433.7262,430.5516,428.15,429.5998,429.1018,424.0236,424.07,432.49"
                     style="stroke:#181818;stroke-width:1;"/>
        </g><!--link customer_oriented_departure to logger-->
        <g class="link" data-entity-1="ent0019" data-entity-2="ent0004" data-link-type="dependency" data-source-line="41" id="lnk37">
            <path d="M558.54,266.89 C532.54,284.42 501.6954,305.2167 475.7154,322.7267" fill="none" id="customer_oriented_departure-to-logger"
                  style="stroke:#181818;stroke-width:1;"/>
            <polygon fill="#181818" points="470.74,326.08,480.4387,324.3669,474.8862,323.2855,475.9676,317.733,470.74,326.08"
                     style="stroke:#181818;stroke-width:1;"/>
        </g><!--link logger to http_x-->
        <g class="link" data-entity-1="ent0004" data-entity-2="ent0013" data-link-type="dependency" data-source-line="43" id="lnk38">
            <path d="M426.97,373.38 C419.09,390.91 410.6911,409.578 402.8111,427.098" fill="none" id="logger-to-http_x" style="stroke:#181818;stroke-width:1;"/>
            <polygon fill="#181818" points="400.35,432.57,407.6897,426.0028,402.401,428.01,400.3937,422.7212,400.35,432.57"
                     style="stroke:#181818;stroke-width:1;"/>
        </g><!--link sfera to mqtt-->
        <g class="link" data-entity-1="ent0006" data-entity-2="ent0007" data-link-type="dependency" data-source-line="45" id="lnk39">
            <path d="M792.63,266.89 C799.18,284.42 806.0906,302.9493 812.6306,320.4593" fill="none" id="sfera-to-mqtt" style="stroke:#181818;stroke-width:1;"/>
            <polygon fill="#181818" points="814.73,326.08,815.3281,316.2493,812.9805,321.396,807.8338,319.0485,814.73,326.08"
                     style="stroke:#181818;stroke-width:1;"/>
        </g><!--link sfera to http_x-->
        <g class="link" data-entity-1="ent0006" data-entity-2="ent0013" data-link-type="dependency" data-source-line="46" id="lnk40">
            <path d="M747.11,264.07 C673.55,303.46 514.8393,388.4374 437.4393,429.8874" fill="none" id="sfera-to-http_x"
                  style="stroke:#181818;stroke-width:1;"/>
            <polygon fill="#181818" points="432.15,432.72,441.9723,431.9973,436.5577,430.3595,438.1955,424.945,432.15,432.72"
                     style="stroke:#181818;stroke-width:1;"/>
        </g><!--link local_regulations to sfera-->
        <g class="link" data-entity-1="ent0009" data-entity-2="ent0006" data-link-type="dependency" data-source-line="48" id="lnk41">
            <path d="M696.47,160.41 C715.26,177.93 736.7516,197.9883 755.5316,215.4983" fill="none" id="local_regulations-to-sfera"
                  style="stroke:#181818;stroke-width:1;"/>
            <polygon fill="#181818" points="759.92,219.59,756.0651,210.5269,756.263,216.1803,750.6096,216.3781,759.92,219.59"
                     style="stroke:#181818;stroke-width:1;"/>
        </g><!--reverse link http_x to http-->
        <g class="link" data-entity-1="ent0013" data-entity-2="ent0014" data-link-type="composition" data-source-line="50" id="lnk42">
            <path d="M390.17,491.87 C390.17,509.4 390.17,521.54 390.17,539.06" fill="none" id="http_x-backto-http" style="stroke:#181818;stroke-width:1;"/>
            <polygon fill="#181818" points="390.17,479.87,386.17,485.87,390.17,491.87,394.17,485.87,390.17,479.87" style="stroke:#181818;stroke-width:1;"/>
        </g><!--link mqtt to connectivity_x-->
        <g class="link" data-entity-1="ent0007" data-entity-2="ent0008" data-link-type="dependency" data-source-line="52" id="lnk43">
            <path d="M849.64,373.38 C870.11,390.91 893.7435,411.1464 914.1935,428.6664" fill="none" id="mqtt-to-connectivity_x"
                  style="stroke:#181818;stroke-width:1;"/>
            <polygon fill="#181818" points="918.75,432.57,914.5177,423.6769,914.9529,429.317,909.3128,429.7522,918.75,432.57"
                     style="stroke:#181818;stroke-width:1;"/>
        </g><!--reverse link mqtt to mqtt_client-->
        <g class="link" data-entity-1="ent0007" data-entity-2="ent0012" data-link-type="composition" data-source-line="53" id="lnk44">
            <path d="M810.2002,384.5871 C803.4902,402.1171 798.54,415.05 791.83,432.57" fill="none" id="mqtt-backto-mqtt_client"
                  style="stroke:#181818;stroke-width:1;"/>
            <polygon fill="#181818" points="814.49,373.38,808.6094,377.5536,810.2002,384.5871,816.0808,380.4134,814.49,373.38"
                     style="stroke:#181818;stroke-width:1;"/>
        </g><!--reverse link connectivity_x to connectivity_plus-->
        <g class="link" data-entity-1="ent0008" data-entity-2="ent0015" data-link-type="composition" data-source-line="55" id="lnk45">
            <path d="M945.17,491.87 C945.17,509.4 945.17,521.54 945.17,539.06" fill="none" id="connectivity_x-backto-connectivity_plus"
                  style="stroke:#181818;stroke-width:1;"/>
            <polygon fill="#181818" points="945.17,479.87,941.17,485.87,945.17,491.87,949.17,485.87,945.17,479.87" style="stroke:#181818;stroke-width:1;"/>
        </g><!--reverse link app_links_x to app_links-->
        <g class="link" data-entity-1="ent0017" data-entity-2="ent0016" data-link-type="composition" data-source-line="57" id="lnk46">
            <path d="M1191.17,172.41 C1191.17,189.93 1191.17,202.08 1191.17,219.59" fill="none" id="app_links_x-backto-app_links"
                  style="stroke:#181818;stroke-width:1;"/>
            <polygon fill="#181818" points="1191.17,160.41,1187.17,166.41,1191.17,172.41,1195.17,166.41,1191.17,160.41" style="stroke:#181818;stroke-width:1;"/>
        </g><!--link preload to settings-->
        <g class="link" data-entity-1="ent0018" data-entity-2="ent0010" data-link-type="dependency" data-source-line="59" id="lnk47">
            <path d="M359.89,160.41 C351.17,177.93 341.8247,196.7091 333.1047,214.2191" fill="none" id="preload-to-settings"
                  style="stroke:#181818;stroke-width:1;"/>
            <polygon fill="#181818" points="330.43,219.59,338.0226,213.3169,332.6589,215.1143,330.8615,209.7506,330.43,219.59"
                     style="stroke:#181818;stroke-width:1;"/>
        </g><!--link preload to sfera-->
        <g class="link" data-entity-1="ent0018" data-entity-2="ent0006" data-link-type="dependency" data-source-line="60" id="lnk48">
            <path d="M417.16,145.74 C486.09,158.31 619.88,184.89 730.17,219.98 C735.68,221.73 735.8167,221.6287 741.4067,223.7987" fill="none"
                  id="preload-to-sfera" style="stroke:#181818;stroke-width:1;"/>
            <polygon fill="#181818" points="747,225.97,740.0575,218.9842,742.3389,224.1606,737.1625,226.4419,747,225.97"
                     style="stroke:#181818;stroke-width:1;"/>
        </g>
        <?plantuml-src XLBBRiCW4Bpp5PPwg-H3fPvpgAhy1a9uuw1Ye7ZTnz_7O2zUQiiznJDCTePPj1-2T-2mKI48lQ49xmnQt_SG6N7pSL1el6FSU8Ee61u-4HdKtZdGQBuC_igVQhXMLaRe9vj7Zdmc81hNS-fRHLU7JKPIMvE-drxVtrwkLtPwHmoLNo8ET5M-OAVnG3FxIclSn-bPPHOYMAywxZEDw0U8qiUK63hPGL0HfmX2p4EQjhqi_HDOYYMKQoNmfrIYzvMMMLGe4LJdzjUyQe9hUmItlPUaxDh4qQLBohChKo9kLt5h8b6ykLASpEQw_sHailnM3hd-hVeDac3NDjkQM4JDSzjclH1foD7kCfzax3dFrwj4-NptKFEpeILaIS52hBkebr-HEUS3?>
    </g>
</svg>