<?plantuml 1.2026.2?>
<svg xmlns="http://www.w3.org/2000/svg" contentStyleType="text/css" data-diagram-type="DESCRIPTION" height="591px"
     preserveAspectRatio="none" style="width:1851px;height:591px;background:#FFFFFF;" version="1.1" viewBox="0 0 1851 591" width="1851px" zoomAndPan="magnify">
    <defs/>
    <g><!--entity app-->
        <g class="entity" data-qualified-name="app" data-source-line="2" id="ent0002">
            <rect fill="#F1F1F1" height="46.4883" rx="2.5" ry="2.5" style="stroke:#181818;stroke-width:0.5;" width="65.3545" x="932.75" y="7"/>
            <rect fill="#F1F1F1" height="10" style="stroke:#181818;stroke-width:0.5;" width="15" x="978.1045" y="12"/>
            <rect fill="#F1F1F1" height="2" style="stroke:#181818;stroke-width:0.5;" width="4" x="976.1045" y="14"/>
            <rect fill="#F1F1F1" height="2" style="stroke:#181818;stroke-width:0.5;" width="4" x="976.1045" y="18"/>
            <text fill="#000000" font-family="sans-serif" font-size="14" lengthAdjust="spacing" textLength="25.3545" x="947.75" y="40.5352">app</text>
        </g><!--entity auth-->
        <g class="entity" data-qualified-name="auth" data-source-line="3" id="ent0003">
            <rect fill="#F1F1F1" height="46.4883" rx="2.5" ry="2.5" style="stroke:#181818;stroke-width:0.5;" width="70.3447" x="22.25" y="113.49"/>
            <rect fill="#F1F1F1" height="10" style="stroke:#181818;stroke-width:0.5;" width="15" x="72.5947" y="118.49"/>
            <rect fill="#F1F1F1" height="2" style="stroke:#181818;stroke-width:0.5;" width="4" x="70.5947" y="120.49"/>
            <rect fill="#F1F1F1" height="2" style="stroke:#181818;stroke-width:0.5;" width="4" x="70.5947" y="124.49"/>
            <text fill="#000000" font-family="sans-serif" font-size="14" lengthAdjust="spacing" textLength="30.3447" x="37.25" y="147.0252">auth</text>
        </g><!--entity logger-->
        <g class="entity" data-qualified-name="logger" data-source-line="4" id="ent0004">
            <rect fill="#F1F1F1" height="46.4883" rx="2.5" ry="2.5" style="stroke:#181818;stroke-width:0.5;" width="83.6338" x="749.61" y="326.47"/>
            <rect fill="#F1F1F1" height="10" style="stroke:#181818;stroke-width:0.5;" width="15" x="813.2438" y="331.47"/>
            <rect fill="#F1F1F1" height="2" style="stroke:#181818;stroke-width:0.5;" width="4" x="811.2438" y="333.47"/>
            <rect fill="#F1F1F1" height="2" style="stroke:#181818;stroke-width:0.5;" width="4" x="811.2438" y="337.47"/>
            <text fill="#000000" font-family="sans-serif" font-size="14" lengthAdjust="spacing" textLength="43.6338" x="764.61" y="360.0052">logger</text>
        </g><!--entity formation-->
        <g class="entity" data-qualified-name="formation" data-source-line="5" id="ent0005">
            <rect fill="#F1F1F1" height="46.4883" rx="2.5" ry="2.5" style="stroke:#181818;stroke-width:0.5;" width="106.8486" x="7" y="326.47"/>
            <rect fill="#F1F1F1" height="10" style="stroke:#181818;stroke-width:0.5;" width="15" x="93.8486" y="331.47"/>
            <rect fill="#F1F1F1" height="2" style="stroke:#181818;stroke-width:0.5;" width="4" x="91.8486" y="333.47"/>
            <rect fill="#F1F1F1" height="2" style="stroke:#181818;stroke-width:0.5;" width="4" x="91.8486" y="337.47"/>
            <text fill="#000000" font-family="sans-serif" font-size="14" lengthAdjust="spacing" textLength="66.8486" x="22" y="360.0052">formation</text>
        </g><!--entity sfera-->
        <g class="entity" data-qualified-name="sfera" data-source-line="6" id="ent0006">
            <rect fill="#F1F1F1" height="46.4883" rx="2.5" ry="2.5" style="stroke:#181818;stroke-width:0.5;" width="73.5439" x="1306.65" y="219.98"/>
            <rect fill="#F1F1F1" height="10" style="stroke:#181818;stroke-width:0.5;" width="15" x="1360.1939" y="224.98"/>
            <rect fill="#F1F1F1" height="2" style="stroke:#181818;stroke-width:0.5;" width="4" x="1358.1939" y="226.98"/>
            <rect fill="#F1F1F1" height="2" style="stroke:#181818;stroke-width:0.5;" width="4" x="1358.1939" y="230.98"/>
            <text fill="#000000" font-family="sans-serif" font-size="14" lengthAdjust="spacing" textLength="33.5439" x="1321.65" y="253.5152">sfera</text>
        </g><!--entity mqtt-->
        <g class="entity" data-qualified-name="mqtt" data-source-line="7" id="ent0007">
            <rect fill="#F1F1F1" height="46.4883" rx="2.5" ry="2.5" style="stroke:#181818;stroke-width:0.5;" width="72.3545" x="1395.25" y="326.47"/>
            <rect fill="#F1F1F1" height="10" style="stroke:#181818;stroke-width:0.5;" width="15" x="1447.6045" y="331.47"/>
            <rect fill="#F1F1F1" height="2" style="stroke:#181818;stroke-width:0.5;" width="4" x="1445.6045" y="333.47"/>
            <rect fill="#F1F1F1" height="2" style="stroke:#181818;stroke-width:0.5;" width="4" x="1445.6045" y="337.47"/>
            <text fill="#000000" font-family="sans-serif" font-size="14" lengthAdjust="spacing" textLength="32.3545" x="1410.25" y="360.0052">mqtt</text>
        </g><!--entity connectivity_x-->
        <g class="entity" data-qualified-name="connectivity_x" data-source-line="8" id="ent0008">
            <rect fill="#F1F1F1" height="46.4883" rx="2.5" ry="2.5" style="stroke:#181818;stroke-width:0.5;" width="136.8311" x="1471.01" y="432.95"/>
            <rect fill="#F1F1F1" height="10" style="stroke:#181818;stroke-width:0.5;" width="15" x="1587.8411" y="437.95"/>
            <rect fill="#F1F1F1" height="2" style="stroke:#181818;stroke-width:0.5;" width="4" x="1585.8411" y="439.95"/>
            <rect fill="#F1F1F1" height="2" style="stroke:#181818;stroke-width:0.5;" width="4" x="1585.8411" y="443.95"/>
            <text fill="#000000" font-family="sans-serif" font-size="14" lengthAdjust="spacing" textLength="96.8311" x="1486.01" y="466.4852">connectivity_x
            </text>
        </g><!--entity local_regulations-->
        <g class="entity" data-qualified-name="local_regulations" data-source-line="9" id="ent0009">
            <rect fill="#F1F1F1" height="46.4883" rx="2.5" ry="2.5" style="stroke:#181818;stroke-width:0.5;" width="155.0283" x="1188.91" y="113.49"/>
            <rect fill="#F1F1F1" height="10" style="stroke:#181818;stroke-width:0.5;" width="15" x="1323.9383" y="118.49"/>
            <rect fill="#F1F1F1" height="2" style="stroke:#181818;stroke-width:0.5;" width="4" x="1321.9383" y="120.49"/>
            <rect fill="#F1F1F1" height="2" style="stroke:#181818;stroke-width:0.5;" width="4" x="1321.9383" y="124.49"/>
            <text fill="#000000" font-family="sans-serif" font-size="14" lengthAdjust="spacing" textLength="115.0283" x="1203.91" y="147.0252">
                local_regulations
            </text>
        </g><!--entity settings-->
        <g class="entity" data-qualified-name="settings" data-source-line="10" id="ent0010">
            <rect fill="#F1F1F1" height="46.4883" rx="2.5" ry="2.5" style="stroke:#181818;stroke-width:0.5;" width="94.0107" x="856.42" y="219.98"/>
            <rect fill="#F1F1F1" height="10" style="stroke:#181818;stroke-width:0.5;" width="15" x="930.4307" y="224.98"/>
            <rect fill="#F1F1F1" height="2" style="stroke:#181818;stroke-width:0.5;" width="4" x="928.4307" y="226.98"/>
            <rect fill="#F1F1F1" height="2" style="stroke:#181818;stroke-width:0.5;" width="4" x="928.4307" y="230.98"/>
            <text fill="#000000" font-family="sans-serif" font-size="14" lengthAdjust="spacing" textLength="54.0107" x="871.42" y="253.5152">settings</text>
        </g><!--entity warnapp-->
        <g class="entity" data-qualified-name="warnapp" data-source-line="11" id="ent0011">
            <rect fill="#F1F1F1" height="46.4883" rx="2.5" ry="2.5" style="stroke:#181818;stroke-width:0.5;" width="98.29" x="1592.28" y="113.49"/>
            <rect fill="#F1F1F1" height="10" style="stroke:#181818;stroke-width:0.5;" width="15" x="1670.57" y="118.49"/>
            <rect fill="#F1F1F1" height="2" style="stroke:#181818;stroke-width:0.5;" width="4" x="1668.57" y="120.49"/>
            <rect fill="#F1F1F1" height="2" style="stroke:#181818;stroke-width:0.5;" width="4" x="1668.57" y="124.49"/>
            <text fill="#000000" font-family="sans-serif" font-size="14" lengthAdjust="spacing" textLength="58.29" x="1607.28" y="147.0252">warnapp</text>
        </g><!--entity mqtt_client-->
        <g class="entity" data-qualified-name="mqtt_client" data-source-line="12" id="ent0012">
            <rect fill="#4DB1FF" height="46.4883" rx="2.5" ry="2.5" style="stroke:#181818;stroke-width:0.5;" width="116.3438" x="1319.25" y="432.95"/>
            <rect fill="#4DB1FF" height="10" style="stroke:#181818;stroke-width:0.5;" width="15" x="1415.5938" y="437.95"/>
            <rect fill="#4DB1FF" height="2" style="stroke:#181818;stroke-width:0.5;" width="4" x="1413.5938" y="439.95"/>
            <rect fill="#4DB1FF" height="2" style="stroke:#181818;stroke-width:0.5;" width="4" x="1413.5938" y="443.95"/>
            <text fill="#000000" font-family="sans-serif" font-size="14" lengthAdjust="spacing" textLength="76.3438" x="1334.25" y="466.4852">mqtt_client</text>
        </g><!--entity http_x-->
        <g class="entity" data-qualified-name="http_x" data-source-line="13" id="ent0013">
            <rect fill="#F1F1F1" height="46.4883" rx="2.5" ry="2.5" style="stroke:#181818;stroke-width:0.5;" width="83.5586" x="641.65" y="432.95"/>
            <rect fill="#F1F1F1" height="10" style="stroke:#181818;stroke-width:0.5;" width="15" x="705.2086" y="437.95"/>
            <rect fill="#F1F1F1" height="2" style="stroke:#181818;stroke-width:0.5;" width="4" x="703.2086" y="439.95"/>
            <rect fill="#F1F1F1" height="2" style="stroke:#181818;stroke-width:0.5;" width="4" x="703.2086" y="443.95"/>
            <text fill="#000000" font-family="sans-serif" font-size="14" lengthAdjust="spacing" textLength="43.5586" x="656.65" y="466.4852">http_x</text>
        </g><!--entity http-->
        <g class="entity" data-qualified-name="http" data-source-line="14" id="ent0014">
            <rect fill="#4DB1FF" height="46.4883" rx="2.5" ry="2.5" style="stroke:#181818;stroke-width:0.5;" width="67.9727" x="649.44" y="539.44"/>
            <rect fill="#4DB1FF" height="10" style="stroke:#181818;stroke-width:0.5;" width="15" x="697.4127" y="544.44"/>
            <rect fill="#4DB1FF" height="2" style="stroke:#181818;stroke-width:0.5;" width="4" x="695.4127" y="546.44"/>
            <rect fill="#4DB1FF" height="2" style="stroke:#181818;stroke-width:0.5;" width="4" x="695.4127" y="550.44"/>
            <text fill="#000000" font-family="sans-serif" font-size="14" lengthAdjust="spacing" textLength="27.9727" x="664.44" y="572.9752">http</text>
        </g><!--entity connectivity_plus-->
        <g class="entity" data-qualified-name="connectivity_plus" data-source-line="15" id="ent0015">
            <rect fill="#4DB1FF" height="46.4883" rx="2.5" ry="2.5" style="stroke:#181818;stroke-width:0.5;" width="156.9287" x="1460.96" y="539.44"/>
            <rect fill="#4DB1FF" height="10" style="stroke:#181818;stroke-width:0.5;" width="15" x="1597.8887" y="544.44"/>
            <rect fill="#4DB1FF" height="2" style="stroke:#181818;stroke-width:0.5;" width="4" x="1595.8887" y="546.44"/>
            <rect fill="#4DB1FF" height="2" style="stroke:#181818;stroke-width:0.5;" width="4" x="1595.8887" y="550.44"/>
            <text fill="#000000" font-family="sans-serif" font-size="14" lengthAdjust="spacing" textLength="116.9287" x="1475.96" y="572.9752">
                connectivity_plus
            </text>
        </g><!--entity app_links-->
        <g class="entity" data-qualified-name="app_links" data-source-line="16" id="ent0016">
            <rect fill="#4DB1FF" height="46.4883" rx="2.5" ry="2.5" style="stroke:#181818;stroke-width:0.5;" width="104.4561" x="1733.2" y="219.98"/>
            <rect fill="#4DB1FF" height="10" style="stroke:#181818;stroke-width:0.5;" width="15" x="1817.6561" y="224.98"/>
            <rect fill="#4DB1FF" height="2" style="stroke:#181818;stroke-width:0.5;" width="4" x="1815.6561" y="226.98"/>
            <rect fill="#4DB1FF" height="2" style="stroke:#181818;stroke-width:0.5;" width="4" x="1815.6561" y="230.98"/>
            <text fill="#000000" font-family="sans-serif" font-size="14" lengthAdjust="spacing" textLength="64.4561" x="1748.2" y="253.5152">app_links</text>
        </g><!--entity app_links_x-->
        <g class="entity" data-qualified-name="app_links_x" data-source-line="17" id="ent0017">
            <rect fill="#F1F1F1" height="46.4883" rx="2.5" ry="2.5" style="stroke:#181818;stroke-width:0.5;" width="120.042" x="1725.4" y="113.49"/>
            <rect fill="#F1F1F1" height="10" style="stroke:#181818;stroke-width:0.5;" width="15" x="1825.442" y="118.49"/>
            <rect fill="#F1F1F1" height="2" style="stroke:#181818;stroke-width:0.5;" width="4" x="1823.442" y="120.49"/>
            <rect fill="#F1F1F1" height="2" style="stroke:#181818;stroke-width:0.5;" width="4" x="1823.442" y="124.49"/>
            <text fill="#000000" font-family="sans-serif" font-size="14" lengthAdjust="spacing" textLength="80.042" x="1740.4" y="147.0252">app_links_x</text>
        </g><!--entity preload-->
        <g class="entity" data-qualified-name="preload" data-source-line="18" id="ent0018">
            <rect fill="#F1F1F1" height="46.4883" rx="2.5" ry="2.5" style="stroke:#181818;stroke-width:0.5;" width="91.5293" x="919.66" y="113.49"/>
            <rect fill="#F1F1F1" height="10" style="stroke:#181818;stroke-width:0.5;" width="15" x="991.1893" y="118.49"/>
            <rect fill="#F1F1F1" height="2" style="stroke:#181818;stroke-width:0.5;" width="4" x="989.1893" y="120.49"/>
            <rect fill="#F1F1F1" height="2" style="stroke:#181818;stroke-width:0.5;" width="4" x="989.1893" y="124.49"/>
            <text fill="#000000" font-family="sans-serif" font-size="14" lengthAdjust="spacing" textLength="51.5293" x="934.66" y="147.0252">preload</text>
        </g><!--entity customer_oriented_departure-->
        <g class="entity" data-qualified-name="customer_oriented_departure" data-source-line="19" id="ent0019">
            <rect fill="#F1F1F1" height="46.4883" rx="2.5" ry="2.5" style="stroke:#181818;stroke-width:0.5;" width="240.4775" x="340.19" y="219.98"/>
            <rect fill="#F1F1F1" height="10" style="stroke:#181818;stroke-width:0.5;" width="15" x="560.6675" y="224.98"/>
            <rect fill="#F1F1F1" height="2" style="stroke:#181818;stroke-width:0.5;" width="4" x="558.6675" y="226.98"/>
            <rect fill="#F1F1F1" height="2" style="stroke:#181818;stroke-width:0.5;" width="4" x="558.6675" y="230.98"/>
            <text fill="#000000" font-family="sans-serif" font-size="14" lengthAdjust="spacing" textLength="200.4775" x="355.19" y="253.5152">
                customer_oriented_departure
            </text>
        </g><!--entity ru_indications-->
        <g class="entity" data-qualified-name="ru_indications" data-source-line="20" id="ent0020">
            <rect fill="#F1F1F1" height="46.4883" rx="2.5" ry="2.5" style="stroke:#181818;stroke-width:0.5;" width="135.6211" x="148.61" y="326.47"/>
            <rect fill="#F1F1F1" height="10" style="stroke:#181818;stroke-width:0.5;" width="15" x="264.2311" y="331.47"/>
            <rect fill="#F1F1F1" height="2" style="stroke:#181818;stroke-width:0.5;" width="4" x="262.2311" y="333.47"/>
            <rect fill="#F1F1F1" height="2" style="stroke:#181818;stroke-width:0.5;" width="4" x="262.2311" y="337.47"/>
            <text fill="#000000" font-family="sans-serif" font-size="14" lengthAdjust="spacing" textLength="95.6211" x="163.61" y="360.0052">ru_indications
            </text>
        </g><!--entity external_links-->
        <g class="entity" data-qualified-name="external_links" data-source-line="21" id="ent0021">
            <rect fill="#F1F1F1" height="46.4883" rx="2.5" ry="2.5" style="stroke:#181818;stroke-width:0.5;" width="134.7188" x="616.06" y="219.98"/>
            <rect fill="#F1F1F1" height="10" style="stroke:#181818;stroke-width:0.5;" width="15" x="730.7788" y="224.98"/>
            <rect fill="#F1F1F1" height="2" style="stroke:#181818;stroke-width:0.5;" width="4" x="728.7788" y="226.98"/>
            <rect fill="#F1F1F1" height="2" style="stroke:#181818;stroke-width:0.5;" width="4" x="728.7788" y="230.98"/>
            <text fill="#000000" font-family="sans-serif" font-size="14" lengthAdjust="spacing" textLength="94.7188" x="631.06" y="253.5152">external_links
            </text>
        </g><!--entity core_data-->
        <g class="entity" data-qualified-name="core_data" data-source-line="22" id="ent0022">
            <rect fill="#F1F1F1" height="46.4883" rx="2.5" ry="2.5" style="stroke:#181818;stroke-width:0.5;" width="105.8096" x="1129.52" y="326.47"/>
            <rect fill="#F1F1F1" height="10" style="stroke:#181818;stroke-width:0.5;" width="15" x="1215.3296" y="331.47"/>
            <rect fill="#F1F1F1" height="2" style="stroke:#181818;stroke-width:0.5;" width="4" x="1213.3296" y="333.47"/>
            <rect fill="#F1F1F1" height="2" style="stroke:#181818;stroke-width:0.5;" width="4" x="1213.3296" y="337.47"/>
            <text fill="#000000" font-family="sans-serif" font-size="14" lengthAdjust="spacing" textLength="65.8096" x="1144.52" y="360.0052">core_data</text>
        </g><!--entity personal_notes-->
        <g class="entity" data-qualified-name="personal_notes" data-source-line="23" id="ent0023">
            <rect fill="#F1F1F1" height="46.4883" rx="2.5" ry="2.5" style="stroke:#181818;stroke-width:0.5;" width="143.0039" x="985.92" y="219.98"/>
            <rect fill="#F1F1F1" height="10" style="stroke:#181818;stroke-width:0.5;" width="15" x="1108.9239" y="224.98"/>
            <rect fill="#F1F1F1" height="2" style="stroke:#181818;stroke-width:0.5;" width="4" x="1106.9239" y="226.98"/>
            <rect fill="#F1F1F1" height="2" style="stroke:#181818;stroke-width:0.5;" width="4" x="1106.9239" y="230.98"/>
            <text fill="#000000" font-family="sans-serif" font-size="14" lengthAdjust="spacing" textLength="103.0039" x="1000.92" y="253.5152">personal_notes
            </text>
        </g><!--link app to auth-->
        <g class="link" data-entity-1="ent0002" data-entity-2="ent0003" data-link-type="dependency" data-source-line="25" id="lnk24">
            <path d="M932.3,31.54 C818,33.16 430.08,43.79 119.42,113.49 C110.72,115.44 107.2322,116.2852 98.7022,119.2752" fill="none" id="app-to-auth"
                  style="stroke:#181818;stroke-width:1;"/>
            <polygon fill="#181818" points="93.04,121.26,102.8565,122.0577,97.7585,119.606,100.2102,114.508,93.04,121.26"
                     style="stroke:#181818;stroke-width:1;"/>
        </g><!--link app to sfera-->
        <g class="link" data-entity-1="ent0002" data-entity-2="ent0006" data-link-type="dependency" data-source-line="26" id="lnk25">
            <path d="M998.35,32.93 C1084.95,38.14 1315.56,57.12 1361.42,113.49 C1386.06,143.77 1371.789,186.507 1358.249,214.547" fill="none" id="app-to-sfera"
                  style="stroke:#181818;stroke-width:1;"/>
            <polygon fill="#181818" points="1355.64,219.95,1363.1556,213.5848,1357.8142,215.4475,1355.9515,210.1061,1355.64,219.95"
                     style="stroke:#181818;stroke-width:1;"/>
        </g><!--link app to mqtt-->
        <g class="link" data-entity-1="ent0002" data-entity-2="ent0007" data-link-type="dependency" data-source-line="27" id="lnk26">
            <path d="M998.49,32.84 C1089.13,37.93 1338.48,56.89 1393.42,113.49 C1450.19,171.96 1442.9507,273.792 1436.2007,320.362" fill="none" id="app-to-mqtt"
                  style="stroke:#181818;stroke-width:1;"/>
            <polygon fill="#181818" points="1435.34,326.3,1440.5896,317.9669,1436.0572,321.3517,1432.6724,316.8193,1435.34,326.3"
                     style="stroke:#181818;stroke-width:1;"/>
        </g><!--link app to connectivity_x-->
        <g class="link" data-entity-1="ent0002" data-entity-2="ent0008" data-link-type="dependency" data-source-line="28" id="lnk27">
            <path d="M998.42,32.66 C1094.14,37.42 1369.19,55.91 1434.42,113.49 C1531.21,198.91 1540.0388,365.1 1539.9488,426.67" fill="none"
                  id="app-to-connectivity_x" style="stroke:#181818;stroke-width:1;"/>
            <polygon fill="#181818" points="1539.94,432.67,1543.9532,423.6759,1539.9473,427.67,1535.9532,423.6642,1539.94,432.67"
                     style="stroke:#181818;stroke-width:1;"/>
        </g><!--link app to local_regulations-->
        <g class="link" data-entity-1="ent0002" data-entity-2="ent0009" data-link-type="dependency" data-source-line="29" id="lnk28">
            <path d="M998.5,42.73 C1047.06,59.58 1132.9817,89.4128 1195.4217,111.0828" fill="none" id="app-to-local_regulations"
                  style="stroke:#181818;stroke-width:1;"/>
            <polygon fill="#181818" points="1201.09,113.05,1193.899,106.3203,1196.3664,111.4107,1191.276,113.8781,1201.09,113.05"
                     style="stroke:#181818;stroke-width:1;"/>
        </g><!--link app to settings-->
        <g class="link" data-entity-1="ent0002" data-entity-2="ent0010" data-link-type="dependency" data-source-line="30" id="lnk29">
            <path d="M941.41,53.93 C927.06,69.2 910.16,90.66 902.42,113.49 C890.37,149.05 893.5986,187.4592 897.9086,213.7292" fill="none" id="app-to-settings"
                  style="stroke:#181818;stroke-width:1;"/>
            <polygon fill="#181818" points="898.88,219.65,901.3701,210.1211,898.0705,214.716,893.4757,211.4163,898.88,219.65"
                     style="stroke:#181818;stroke-width:1;"/>
        </g><!--link app to warnapp-->
        <g class="link" data-entity-1="ent0002" data-entity-2="ent0011" data-link-type="dependency" data-source-line="31" id="lnk30">
            <path d="M998.57,34.04 C1089.76,42.12 1351.82,67.85 1565.42,113.49 C1574.03,115.33 1577.2993,116.0328 1586.0393,118.4628" fill="none"
                  id="app-to-warnapp" style="stroke:#181818;stroke-width:1;"/>
            <polygon fill="#181818" points="1591.82,120.07,1584.2204,113.8053,1587.0027,118.7306,1582.0774,121.513,1591.82,120.07"
                     style="stroke:#181818;stroke-width:1;"/>
        </g><!--link app to logger-->
        <g class="link" data-entity-1="ent0002" data-entity-2="ent0004" data-link-type="dependency" data-source-line="32" id="lnk31">
            <path d="M939.56,53.81 C922.86,69.36 901.5,91.18 886.42,113.49 C838.7,184.09 810.4044,276.5548 798.6644,320.3248" fill="none" id="app-to-logger"
                  style="stroke:#181818;stroke-width:1;"/>
            <polygon fill="#181818" points="797.11,326.12,803.305,318.4635,798.4053,321.2907,795.5781,316.391,797.11,326.12"
                     style="stroke:#181818;stroke-width:1;"/>
        </g><!--link app to http_x-->
        <g class="link" data-entity-1="ent0002" data-entity-2="ent0013" data-link-type="dependency" data-source-line="33" id="lnk32">
            <path d="M932.34,35.55 C811.19,52.09 395.04,115.83 322.42,219.98 C233.22,347.91 522.9077,422.2489 635.6677,445.8889" fill="none" id="app-to-http_x"
                  style="stroke:#181818;stroke-width:1;"/>
            <polygon fill="#181818" points="641.54,447.12,633.5522,441.3584,636.6464,446.0941,631.9107,449.1882,641.54,447.12"
                     style="stroke:#181818;stroke-width:1;"/>
        </g><!--link app to formation-->
        <g class="link" data-entity-1="ent0002" data-entity-2="ent0005" data-link-type="dependency" data-source-line="34" id="lnk33">
            <path d="M932.31,31.32 C804.56,32.16 344.81,40.3 222.42,113.49 C137.95,164.01 89.2278,271.9976 70.6378,320.4876" fill="none" id="app-to-formation"
                  style="stroke:#181818;stroke-width:1;"/>
            <polygon fill="#181818" points="68.49,326.09,75.4467,319.1183,70.2799,321.4213,67.9768,316.2545,68.49,326.09"
                     style="stroke:#181818;stroke-width:1;"/>
        </g><!--link app to app_links_x-->
        <g class="link" data-entity-1="ent0002" data-entity-2="ent0017" data-link-type="dependency" data-source-line="35" id="lnk34">
            <path d="M998.32,32.88 C1102.97,38.49 1437.27,59.73 1708.42,113.49 C1713.88,114.57 1713.6979,114.4097 1719.3179,115.8097" fill="none"
                  id="app-to-app_links_x" style="stroke:#181818;stroke-width:1;"/>
            <polygon fill="#181818" points="1725.14,117.26,1717.3738,111.2031,1720.2883,116.0514,1715.44,118.9659,1725.14,117.26"
                     style="stroke:#181818;stroke-width:1;"/>
        </g><!--link app to preload-->
        <g class="link" data-entity-1="ent0002" data-entity-2="ent0018" data-link-type="dependency" data-source-line="36" id="lnk35">
            <path d="M965.42,53.92 C965.42,71.44 965.42,89.59 965.42,107.1" fill="none" id="app-to-preload" style="stroke:#181818;stroke-width:1;"/>
            <polygon fill="#181818" points="965.42,113.1,969.42,104.1,965.42,108.1,961.42,104.1,965.42,113.1" style="stroke:#181818;stroke-width:1;"/>
        </g><!--link app to customer_oriented_departure-->
        <g class="link" data-entity-1="ent0002" data-entity-2="ent0019" data-link-type="dependency" data-source-line="37" id="lnk36">
            <path d="M932.55,40.8 C885.21,54.9 795.38,82.94 721.42,113.49 C642.04,146.28 558.2807,189.46 507.4107,216.67" fill="none"
                  id="app-to-customer_oriented_departure" style="stroke:#181818;stroke-width:1;"/>
            <polygon fill="#181818" points="502.12,219.5,511.9427,218.7822,506.5289,217.1417,508.1694,211.7279,502.12,219.5"
                     style="stroke:#181818;stroke-width:1;"/>
        </g><!--link app to ru_indications-->
        <g class="link" data-entity-1="ent0002" data-entity-2="ent0020" data-link-type="dependency" data-source-line="38" id="lnk37">
            <path d="M932.34,32.84 C799.7,39.54 311.21,67.19 261.42,113.49 C201.29,169.4 206.4256,273.0851 212.2456,320.2751" fill="none"
                  id="app-to-ru_indications" style="stroke:#181818;stroke-width:1;"/>
            <polygon fill="#181818" points="212.98,326.23,215.8483,316.8081,212.368,321.2676,207.9084,317.7873,212.98,326.23"
                     style="stroke:#181818;stroke-width:1;"/>
        </g><!--link app to external_links-->
        <g class="link" data-entity-1="ent0002" data-entity-2="ent0021" data-link-type="dependency" data-source-line="39" id="lnk38">
            <path d="M932.51,38.77 C890.87,49.59 818.68,72.87 769.42,113.49 C733.55,143.07 709.4787,186.0472 695.9587,214.3172" fill="none"
                  id="app-to-external_links" style="stroke:#181818;stroke-width:1;"/>
            <polygon fill="#181818" points="693.37,219.73,700.8616,213.3365,695.5272,215.2193,693.6444,209.885,693.37,219.73"
                     style="stroke:#181818;stroke-width:1;"/>
        </g><!--link app to core_data-->
        <g class="link" data-entity-1="ent0002" data-entity-2="ent0022" data-link-type="dependency" data-source-line="40" id="lnk39">
            <path d="M996.44,53.88 C1037.84,85.9 1110.11,148.55 1146.42,219.98 C1164.2,254.94 1173.1328,293.9339 1177.8728,320.4139" fill="none"
                  id="app-to-core_data" style="stroke:#181818;stroke-width:1;"/>
            <polygon fill="#181818" points="1178.93,326.32,1181.2816,316.756,1178.049,321.3982,1173.4068,318.1656,1178.93,326.32"
                     style="stroke:#181818;stroke-width:1;"/>
        </g><!--link app to personal_notes-->
        <g class="link" data-entity-1="ent0002" data-entity-2="ent0023" data-link-type="dependency" data-source-line="41" id="lnk40">
            <path d="M987.14,53.91 C1000.93,69.51 1018.06,91.33 1028.42,113.49 C1044.83,148.56 1051.5046,187.4716 1054.6346,213.9116" fill="none"
                  id="app-to-personal_notes" style="stroke:#181818;stroke-width:1;"/>
            <polygon fill="#181818" points="1055.34,219.87,1058.2542,210.4622,1054.7522,214.9047,1050.3097,211.4026,1055.34,219.87"
                     style="stroke:#181818;stroke-width:1;"/>
        </g><!--link settings to http_x-->
        <g class="link" data-entity-1="ent0010" data-entity-2="ent0013" data-link-type="dependency" data-source-line="43" id="lnk41">
            <path d="M899.22,266.9 C892.98,294.91 878.82,342.59 850.42,372.95 C816.43,409.31 768.608,429.831 731.348,441.901" fill="none"
                  id="settings-to-http_x" style="stroke:#181818;stroke-width:1;"/>
            <polygon fill="#181818" points="725.64,443.75,735.4347,444.7818,730.3967,442.2091,732.9693,437.1711,725.64,443.75"
                     style="stroke:#181818;stroke-width:1;"/>
        </g><!--link settings to logger-->
        <g class="link" data-entity-1="ent0010" data-entity-2="ent0004" data-link-type="dependency" data-source-line="44" id="lnk42">
            <path d="M879.12,266.89 C860.34,284.42 838.8373,304.4772 820.0673,321.9872" fill="none" id="settings-to-logger"
                  style="stroke:#181818;stroke-width:1;"/>
            <polygon fill="#181818" points="815.68,326.08,824.9896,322.8657,819.3361,322.6693,819.5325,317.0159,815.68,326.08"
                     style="stroke:#181818;stroke-width:1;"/>
        </g><!--link formation to http_x-->
        <g class="link" data-entity-1="ent0005" data-entity-2="ent0013" data-link-type="dependency" data-source-line="46" id="lnk43">
            <path d="M114.07,368.48 C119.89,370.12 125.76,371.65 131.42,372.95 C319.35,416.11 542.6901,441.2698 635.4901,450.5998" fill="none"
                  id="formation-to-http_x" style="stroke:#181818;stroke-width:1;"/>
            <polygon fill="#181818" points="641.46,451.2,632.9053,446.3198,636.4851,450.6998,632.105,454.2796,641.46,451.2"
                     style="stroke:#181818;stroke-width:1;"/>
        </g><!--link customer_oriented_departure to http_x-->
        <g class="link" data-entity-1="ent0019" data-entity-2="ent0013" data-link-type="dependency" data-source-line="48" id="lnk44">
            <path d="M484.29,266.8 C527.1,307.3 612.1117,387.7263 655.0317,428.3363" fill="none" id="customer_oriented_departure-to-http_x"
                  style="stroke:#181818;stroke-width:1;"/>
            <polygon fill="#181818" points="659.39,432.46,655.6017,423.3689,655.7581,429.0236,650.1034,429.1799,659.39,432.46"
                     style="stroke:#181818;stroke-width:1;"/>
        </g><!--link customer_oriented_departure to logger-->
        <g class="link" data-entity-1="ent0019" data-entity-2="ent0004" data-link-type="dependency" data-source-line="49" id="lnk45">
            <path d="M532.25,266.89 C598.6,287.84 689.1981,316.4444 743.7981,333.6744" fill="none" id="customer_oriented_departure-to-logger"
                  style="stroke:#181818;stroke-width:1;"/>
            <polygon fill="#181818" points="749.52,335.48,742.141,328.957,744.7518,333.9753,739.7335,336.5861,749.52,335.48"
                     style="stroke:#181818;stroke-width:1;"/>
        </g><!--link logger to http_x-->
        <g class="link" data-entity-1="ent0004" data-entity-2="ent0013" data-link-type="dependency" data-source-line="51" id="lnk46">
            <path d="M767.99,373.38 C749.87,390.91 729.2323,410.8782 711.1223,428.3982" fill="none" id="logger-to-http_x"
                  style="stroke:#181818;stroke-width:1;"/>
            <polygon fill="#181818" points="706.81,432.57,716.0597,429.1871,710.4036,429.0935,710.4972,423.4374,706.81,432.57"
                     style="stroke:#181818;stroke-width:1;"/>
        </g><!--link sfera to mqtt-->
        <g class="link" data-entity-1="ent0006" data-entity-2="ent0007" data-link-type="dependency" data-source-line="53" id="lnk47">
            <path d="M1362.52,266.89 C1377.28,284.42 1393.7545,303.9811 1408.5045,321.4911" fill="none" id="sfera-to-mqtt"
                  style="stroke:#181818;stroke-width:1;"/>
            <polygon fill="#181818" points="1412.37,326.08,1409.6309,316.6197,1409.1487,322.256,1403.5125,321.7737,1412.37,326.08"
                     style="stroke:#181818;stroke-width:1;"/>
        </g><!--link sfera to http_x-->
        <g class="link" data-entity-1="ent0006" data-entity-2="ent0013" data-link-type="dependency" data-source-line="54" id="lnk48">
            <path d="M1334.24,266.96 C1320.95,296.68 1293.39,347.87 1252.42,372.95 C1163.58,427.36 847.2828,447.4269 731.3328,453.0969" fill="none"
                  id="sfera-to-http_x" style="stroke:#181818;stroke-width:1;"/>
            <polygon fill="#181818" points="725.34,453.39,734.5246,456.9456,730.334,453.1458,734.1339,448.9552,725.34,453.39"
                     style="stroke:#181818;stroke-width:1;"/>
        </g><!--link sfera to core_data-->
        <g class="link" data-entity-1="ent0006" data-entity-2="ent0022" data-link-type="dependency" data-source-line="55" id="lnk49">
            <path d="M1308.49,266.89 C1281.48,284.42 1249.3135,305.3045 1222.3235,322.8145" fill="none" id="sfera-to-core_data"
                  style="stroke:#181818;stroke-width:1;"/>
            <polygon fill="#181818" points="1217.29,326.08,1227.0173,324.5374,1221.4846,323.3587,1222.6632,317.826,1217.29,326.08"
                     style="stroke:#181818;stroke-width:1;"/>
        </g><!--link local_regulations to sfera-->
        <g class="link" data-entity-1="ent0009" data-entity-2="ent0006" data-link-type="dependency" data-source-line="57" id="lnk50">
            <path d="M1283.13,160.41 C1296.05,177.93 1310.2794,197.2507 1323.1894,214.7607" fill="none" id="local_regulations-to-sfera"
                  style="stroke:#181818;stroke-width:1;"/>
            <polygon fill="#181818" points="1326.75,219.59,1324.6286,209.9723,1323.7828,215.5656,1318.1896,214.7198,1326.75,219.59"
                     style="stroke:#181818;stroke-width:1;"/>
        </g><!--link local_regulations to core_data-->
        <g class="link" data-entity-1="ent0009" data-entity-2="ent0022" data-link-type="dependency" data-source-line="58" id="lnk51">
            <path d="M1257.43,160.31 C1241.31,200.81 1209.8696,279.7856 1193.6996,320.3956" fill="none" id="local_regulations-to-core_data"
                  style="stroke:#181818;stroke-width:1;"/>
            <polygon fill="#181818" points="1191.48,325.97,1198.5256,319.0882,1193.3297,321.3247,1191.0931,316.1287,1191.48,325.97"
                     style="stroke:#181818;stroke-width:1;"/>
        </g><!--reverse link http_x to http-->
        <g class="link" data-entity-1="ent0013" data-entity-2="ent0014" data-link-type="composition" data-source-line="60" id="lnk52">
            <path d="M683.42,491.87 C683.42,509.4 683.42,521.54 683.42,539.06" fill="none" id="http_x-backto-http" style="stroke:#181818;stroke-width:1;"/>
            <polygon fill="#181818" points="683.42,479.87,679.42,485.87,683.42,491.87,687.42,485.87,683.42,479.87" style="stroke:#181818;stroke-width:1;"/>
        </g><!--link mqtt to connectivity_x-->
        <g class="link" data-entity-1="ent0007" data-entity-2="ent0008" data-link-type="dependency" data-source-line="62" id="lnk53">
            <path d="M1454.86,373.38 C1472.97,390.91 1493.6177,410.8782 1511.7277,428.3982" fill="none" id="mqtt-to-connectivity_x"
                  style="stroke:#181818;stroke-width:1;"/>
            <polygon fill="#181818" points="1516.04,432.57,1512.3528,423.4374,1512.4464,429.0935,1506.7903,429.1871,1516.04,432.57"
                     style="stroke:#181818;stroke-width:1;"/>
        </g><!--reverse link mqtt to mqtt_client-->
        <g class="link" data-entity-1="ent0007" data-entity-2="ent0012" data-link-type="composition" data-source-line="63" id="lnk54">
            <path d="M1414.2004,384.0404 C1405.1404,401.5704 1398.17,415.05 1389.12,432.57" fill="none" id="mqtt-backto-mqtt_client"
                  style="stroke:#181818;stroke-width:1;"/>
            <polygon fill="#181818" points="1419.71,373.38,1413.4017,376.8737,1414.2004,384.0404,1420.5087,380.5467,1419.71,373.38"
                     style="stroke:#181818;stroke-width:1;"/>
        </g><!--reverse link connectivity_x to connectivity_plus-->
        <g class="link" data-entity-1="ent0008" data-entity-2="ent0015" data-link-type="composition" data-source-line="65" id="lnk55">
            <path d="M1539.42,491.87 C1539.42,509.4 1539.42,521.54 1539.42,539.06" fill="none" id="connectivity_x-backto-connectivity_plus"
                  style="stroke:#181818;stroke-width:1;"/>
            <polygon fill="#181818" points="1539.42,479.87,1535.42,485.87,1539.42,491.87,1543.42,485.87,1539.42,479.87" style="stroke:#181818;stroke-width:1;"/>
        </g><!--reverse link app_links_x to app_links-->
        <g class="link" data-entity-1="ent0017" data-entity-2="ent0016" data-link-type="composition" data-source-line="67" id="lnk56">
            <path d="M1785.42,172.41 C1785.42,189.93 1785.42,202.08 1785.42,219.59" fill="none" id="app_links_x-backto-app_links"
                  style="stroke:#181818;stroke-width:1;"/>
            <polygon fill="#181818" points="1785.42,160.41,1781.42,166.41,1785.42,172.41,1789.42,166.41,1785.42,160.41" style="stroke:#181818;stroke-width:1;"/>
        </g><!--link preload to settings-->
        <g class="link" data-entity-1="ent0018" data-entity-2="ent0010" data-link-type="dependency" data-source-line="69" id="lnk57">
            <path d="M951.97,160.41 C941.57,177.93 930.3018,196.92 919.9118,214.43" fill="none" id="preload-to-settings"
                  style="stroke:#181818;stroke-width:1;"/>
            <polygon fill="#181818" points="916.85,219.59,924.8827,213.8912,919.4015,215.29,918.0027,209.8088,916.85,219.59"
                     style="stroke:#181818;stroke-width:1;"/>
        </g><!--link preload to sfera-->
        <g class="link" data-entity-1="ent0018" data-entity-2="ent0006" data-link-type="dependency" data-source-line="70" id="lnk58">
            <path d="M1011.4,150.44 C1087.15,171.38 1230.9371,211.1206 1300.4671,230.3506" fill="none" id="preload-to-sfera"
                  style="stroke:#181818;stroke-width:1;"/>
            <polygon fill="#181818" points="1306.25,231.95,1298.6419,225.6957,1301.4309,230.6172,1296.5094,233.4062,1306.25,231.95"
                     style="stroke:#181818;stroke-width:1;"/>
        </g><!--link ru_indications to http_x-->
        <g class="link" data-entity-1="ent0020" data-entity-2="ent0013" data-link-type="dependency" data-source-line="72" id="lnk59">
            <path d="M284.64,366.79 C293.64,368.88 302.75,370.98 311.42,372.95 C430.9,400.15 566.3971,429.7748 635.4071,444.7848" fill="none"
                  id="ru_indications-to-http_x" style="stroke:#181818;stroke-width:1;"/>
            <polygon fill="#181818" points="641.27,446.06,633.3258,440.2386,636.3842,444.9973,631.6255,448.0558,641.27,446.06"
                     style="stroke:#181818;stroke-width:1;"/>
        </g><!--link external_links to http_x-->
        <g class="link" data-entity-1="ent0021" data-entity-2="ent0013" data-link-type="dependency" data-source-line="74" id="lnk60">
            <path d="M683.42,266.8 C683.42,307.3 683.42,385.85 683.42,426.46" fill="none" id="external_links-to-http_x" style="stroke:#181818;stroke-width:1;"/>
            <polygon fill="#181818" points="683.42,432.46,687.42,423.46,683.42,427.46,679.42,423.46,683.42,432.46" style="stroke:#181818;stroke-width:1;"/>
        </g><!--link external_links to core_data-->
        <g class="link" data-entity-1="ent0021" data-entity-2="ent0022" data-link-type="dependency" data-source-line="75" id="lnk61">
            <path d="M751.24,258.42 C851.7,279.46 1032.1274,317.2401 1123.3774,336.3501" fill="none" id="external_links-to-core_data"
                  style="stroke:#181818;stroke-width:1;"/>
            <polygon fill="#181818" points="1129.25,337.58,1121.261,331.8201,1124.3562,336.5551,1119.6212,339.6503,1129.25,337.58"
                     style="stroke:#181818;stroke-width:1;"/>
        </g><!--link personal_notes to http_x-->
        <g class="link" data-entity-1="ent0023" data-entity-2="ent0013" data-link-type="dependency" data-source-line="77" id="lnk62">
            <path d="M1032.69,266.89 C1001.39,294.68 944.99,341.9 890.42,372.95 C836.32,403.75 774.0943,426.4797 731.1343,440.4897" fill="none"
                  id="personal_notes-to-http_x" style="stroke:#181818;stroke-width:1;"/>
            <polygon fill="#181818" points="725.43,442.35,735.2267,443.3625,730.1836,440.7998,732.7463,435.7567,725.43,442.35"
                     style="stroke:#181818;stroke-width:1;"/>
        </g><!--link personal_notes to core_data-->
        <g class="link" data-entity-1="ent0023" data-entity-2="ent0022" data-link-type="dependency" data-source-line="78" id="lnk63">
            <path d="M1084.55,266.89 C1105.51,284.42 1129.7963,304.7222 1150.7463,322.2322" fill="none" id="personal_notes-to-core_data"
                  style="stroke:#181818;stroke-width:1;"/>
            <polygon fill="#181818" points="1155.35,326.08,1151.0096,317.2391,1151.5136,322.8735,1145.8792,323.3775,1155.35,326.08"
                     style="stroke:#181818;stroke-width:1;"/>
        </g>
        <?plantuml-src XLF1JiCm3BtdAoPnG-e1YJC7XFORKTHwNKIQXDI5yVUqwPpORJLEcvzV_6m_jmr331uydaoCggtHX5SMkj3ta1Xm2MamQ8Dds7Y1P5WyV26oi0tUGulss-AlledYhN4wGJ-vN7BaDG7H-fv3FoPvsUmYf5jdb_zFhn_lB-SporuHez1RW0EUw2-wQJpWpBhQMV_vC2V4OW8NJCTrfX7304c7j7GCdUuWceHJ0iPAaxQ-i-rk8t13c1VWLYtHVmBT6UGMH4XZMCW-88nApJsUckPjjPU2rJUAiciKR3mZUEzOgKL-4K1krQVvaYYycqDXFQlIATigORJJqkM3ZH9diq-2DzkiSzCkY-PcapGedq9Wzq5L6OaprOEMEUy_6ecilq8XkreThI4rMu0whDePomxaECSUhuLFpqsJDPHQX8_EAECBZNsuyqe4AUTtdsI-OBg7J2cnKlUpa7Sem3o7agSWbYRFWQSECcnqUHtytK6clli3?>
    </g>
</svg>