<svg width="121" height="120" viewBox="0 0 121 120" fill="none" xmlns="http://www.w3.org/2000/svg">
<g clip-path="url(#clip0_10541_233625)">
<path d="M117.713 2.7951H3.28778V117.205H117.713V2.7951Z" fill="#1D1D1B" stroke="#1D1D1B" stroke-width="97.64" stroke-miterlimit="10"/>
<g filter="url(#filter0_d_10541_233625)">
<path d="M112.85 60.0006C112.85 88.9884 89.4129 112.488 60.4997 112.488C31.5865 112.488 8.14957 88.9884 8.14957 60.0006C8.14957 31.0128 31.5871 7.51105 60.5003 7.51105C89.4135 7.51105 112.85 31.01 112.85 60.0006Z" fill="#1D1D1B"/>
<path d="M112.85 60.0006C112.85 88.9884 89.4129 112.488 60.4997 112.488C31.5865 112.488 8.14957 88.9884 8.14957 60.0006C8.14957 31.0128 31.5871 7.51105 60.5003 7.51105C89.4135 7.51105 112.85 31.01 112.85 60.0006Z" stroke="white" stroke-width="10" stroke-miterlimit="10"/>
</g>
<path d="M26.9018 75.0639C26.9018 82.5617 32.9644 88.6431 40.4444 88.6431C47.9244 88.6431 53.9871 82.5623 53.9871 75.0639C53.9871 67.5654 47.9244 61.488 40.4444 61.488C32.9644 61.488 26.9018 67.5666 26.9018 75.0639Z" fill="#BDBDBD"/>
<path d="M67.0146 75.0639C67.0146 82.5634 73.0773 88.6431 80.5573 88.6431C88.0373 88.6431 94.0988 82.5634 94.0988 75.0639C94.0988 67.5643 88.0361 61.488 80.5573 61.488C73.0785 61.488 67.0146 67.5666 67.0146 75.0639Z" fill="#BDBDBD"/>
<path d="M46.9571 39.3849C46.9571 46.8822 53.0197 52.9608 60.5014 52.9608C67.9831 52.9608 74.0412 46.8822 74.0412 39.3849C74.0412 31.8876 67.9803 25.8057 60.5014 25.8057C53.0226 25.8057 46.9571 31.8848 46.9571 39.3849Z" fill="#EB0000"/>
</g>
<defs>
<filter id="filter0_d_10541_233625" x="-0.850433" y="2.51105" width="122.701" height="122.977" filterUnits="userSpaceOnUse" color-interpolation-filters="sRGB">
<feFlood flood-opacity="0" result="BackgroundImageFix"/>
<feColorMatrix in="SourceAlpha" type="matrix" values="0 0 0 0 0 0 0 0 0 0 0 0 0 0 0 0 0 0 127 0" result="hardAlpha"/>
<feOffset dy="4"/>
<feGaussianBlur stdDeviation="2"/>
<feComposite in2="hardAlpha" operator="out"/>
<feColorMatrix type="matrix" values="0 0 0 0 0 0 0 0 0 0 0 0 0 0 0 0 0 0 0.25 0"/>
<feBlend mode="normal" in2="BackgroundImageFix" result="effect1_dropShadow_10541_233625"/>
<feBlend mode="normal" in="SourceGraphic" in2="effect1_dropShadow_10541_233625" result="shape"/>
</filter>
<clipPath id="clip0_10541_233625">
<rect width="120" height="120" fill="white" transform="translate(0.5)"/>
</clipPath>
</defs>
</svg>
